if (_typeface_js && _typeface_js.loadFace) _typeface_js.loadFace({"glyphs":{"S":{"x_min":24,"x_max":729,"ha":783,"o":"m 375 424 l 364 424 l 364 448 l 375 448 l 375 424 m 563 168 l 551 168 l 551 204 l 563 204 l 563 168 m 495 101 l 495 101 l 495 101 m 505 65 l 493 65 l 493 89 l 505 89 l 505 65 m 465 97 l 449 82 l 442 89 l 458 104 l 465 97 m 424 49 q 398 39 414 39 q 393 18 398 18 q 386 22 390 18 q 394 50 392 28 q 424 49 396 49 m 372 14 q 356 9 356 15 q 356 37 356 15 q 372 14 372 21 m 282 25 l 278 16 l 262 25 l 266 33 l 282 25 m 729 850 q 687 789 729 839 q 644 733 645 740 l 619 733 q 625 754 619 749 q 606 767 618 757 q 618 793 606 777 q 559 883 562 879 q 460 931 516 931 q 442 928 451 931 q 432 925 434 925 q 435 940 432 929 q 434 950 438 946 q 305 841 333 841 q 288 839 288 841 q 312 835 296 835 q 332 840 328 835 q 325 803 329 822 q 308 766 320 782 q 311 751 308 754 q 331 754 323 762 q 314 747 326 759 q 339 743 321 743 q 343 714 339 735 q 347 684 347 694 q 372 678 353 678 q 352 654 352 659 l 328 679 l 342 666 q 334 693 335 693 q 298 667 311 693 q 300 706 300 667 q 298 751 300 732 q 286 709 285 726 q 260 719 286 719 q 253 723 251 719 q 249 727 255 727 q 268 702 252 717 q 288 675 283 686 q 243 656 277 673 l 253 649 q 259 660 259 654 q 265 651 262 657 q 272 641 268 645 q 277 654 277 648 q 282 651 278 654 q 295 649 286 649 q 296 659 307 649 q 314 653 309 653 q 306 632 312 651 q 308 594 315 605 l 318 583 q 326 589 322 587 q 334 594 331 590 q 314 632 331 607 q 334 645 321 635 q 324 663 324 654 q 363 635 336 655 q 367 647 364 637 q 376 663 369 656 q 370 658 373 661 q 369 655 368 656 q 379 654 371 654 q 417 618 393 654 q 394 616 406 617 q 371 596 374 611 q 373 599 373 598 q 366 604 373 601 q 356 610 359 607 q 340 592 352 604 l 340 576 q 389 589 354 579 q 434 597 416 597 q 434 592 436 597 q 434 577 431 584 q 453 590 440 580 q 486 539 479 564 q 492 551 492 546 q 596 430 578 455 q 645 292 645 360 q 630 216 645 264 q 604 160 616 169 q 577 152 577 155 q 587 151 578 151 q 553 137 583 151 q 586 133 559 133 q 466 32 484 32 q 459 35 457 32 q 460 45 462 42 q 350 -7 408 -7 q 322 4 345 -7 q 281 15 300 15 q 292 0 283 10 q 302 0 296 3 q 311 -4 310 -4 q 286 -13 295 -4 l 271 0 q 208 -7 248 -7 q 94 46 165 -7 q 24 131 24 100 q 58 217 24 162 q 109 288 84 252 l 132 288 q 134 247 147 261 q 152 243 138 243 q 151 217 151 230 q 213 67 151 154 q 211 44 211 57 q 218 55 230 44 q 252 50 227 55 q 285 45 277 45 q 292 40 294 45 q 291 32 288 34 q 297 44 297 37 q 315 41 301 44 q 337 38 328 38 q 408 64 372 38 q 438 98 415 70 q 466 122 457 122 q 475 118 475 122 q 477 114 475 114 q 509 176 481 156 q 497 182 506 178 q 498 200 498 191 q 448 317 498 252 q 375 405 411 361 q 321 451 348 428 q 276 532 276 494 q 272 510 265 520 q 264 521 272 509 q 257 545 257 533 q 273 542 264 545 q 283 539 281 539 q 292 542 286 540 q 295 552 295 543 q 282 557 295 560 q 257 552 261 552 q 228 566 237 552 q 226 593 221 579 q 212 632 222 597 q 198 689 198 672 q 209 774 198 741 q 297 907 229 836 q 308 907 297 907 q 320 912 320 907 q 311 923 320 916 q 331 937 315 923 l 344 924 q 340 941 351 931 q 434 976 428 976 q 451 969 441 976 q 469 962 461 962 q 478 965 478 962 q 486 969 478 969 q 502 975 494 969 q 518 981 510 981 q 573 967 528 981 q 559 931 568 964 q 582 965 582 952 q 600 960 587 960 q 624 956 617 960 l 643 937 l 663 937 q 698 900 664 932 q 729 850 729 871 m 631 935 l 631 946 l 607 946 l 607 935 l 631 935 m 605 930 l 605 930 l 605 930 m 645 898 l 642 907 l 626 899 l 626 889 l 645 898 m 607 889 l 599 892 l 591 876 l 600 872 l 607 889 m 566 951 l 566 962 l 470 962 l 470 951 l 566 951 m 562 906 l 553 924 l 545 921 l 553 906 l 562 906 m 592 883 l 592 893 l 562 901 l 562 890 l 592 883 m 631 770 l 631 770 l 631 770 m 411 941 q 395 953 395 941 l 395 934 q 411 941 395 940 m 385 922 l 385 933 l 368 933 l 368 922 l 385 922 m 363 893 l 363 911 l 351 911 l 351 893 l 363 893 m 327 857 l 327 869 l 310 869 l 310 857 l 327 857 m 269 763 l 269 763 l 269 763 m 324 709 l 324 709 l 324 709 m 509 512 l 506 522 l 484 514 l 484 505 l 509 512 m 450 544 l 450 544 l 450 544 m 424 574 l 424 586 l 399 586 l 399 574 l 424 574 m 374 618 l 357 631 l 352 622 l 368 610 l 374 618 m 459 502 l 450 508 l 435 486 l 443 479 l 459 502 m 375 569 l 367 575 l 352 556 l 360 551 l 375 569 m 288 634 q 256 625 266 634 q 272 628 262 625 q 278 603 278 622 q 288 634 284 615 m 376 523 q 364 532 370 523 q 355 514 355 532 q 365 518 357 514 q 376 523 373 523 m 346 550 l 346 560 l 315 560 l 315 550 l 346 550 m 305 580 l 305 580 l 305 580 m 302 567 q 287 603 287 573 q 269 581 281 595 q 302 567 278 562 m 389 477 l 389 477 l 389 477 m 349 502 l 334 532 l 326 529 l 340 502 l 349 502 m 233 604 l 233 628 l 222 628 l 222 604 l 233 604 "},"¦":{"x_min":0,"x_max":0,"ha":1389},"/":{"x_min":0,"x_max":0,"ha":1389},"y":{"x_min":14,"x_max":739,"ha":723,"o":"m 167 -350 l 153 -350 l 153 -329 l 167 -329 l 167 -350 m 313 565 q 248 407 295 520 q 220 408 235 419 q 232 438 226 423 q 258 467 242 461 q 247 487 257 473 q 240 471 240 478 q 231 487 234 487 q 219 494 223 487 q 207 502 214 502 q 190 504 190 505 q 193 498 190 504 q 196 486 196 492 q 191 471 196 479 q 171 500 189 476 q 156 530 156 521 q 206 555 156 543 q 271 565 250 565 l 313 565 m 214 448 l 200 448 l 200 470 l 214 470 l 214 448 m 214 393 l 200 393 l 200 422 l 214 422 l 214 393 m 214 361 l 200 361 l 200 383 l 214 383 l 214 361 m 738 217 q 739 204 739 211 q 632 67 739 132 q 466 -26 549 20 q 367 -226 444 -125 q 173 -346 275 -346 q 177 -333 173 -347 q 181 -311 181 -319 q 156 -306 156 -311 q 176 -296 157 -296 q 186 -301 185 -296 q 187 -311 187 -306 q 190 -312 188 -312 q 191 -311 190 -312 q 192 -292 192 -310 q 201 -298 192 -296 q 215 -304 211 -300 q 215 -292 220 -298 q 203 -286 210 -286 q 252 -194 209 -277 q 306 -118 282 -134 q 287 -109 289 -112 q 290 -87 287 -107 q 265 -86 285 -86 q 187 -86 222 -86 q 312 -5 234 -63 q 329 40 321 4 q 346 96 338 81 l 346 117 q 318 90 331 117 l 302 107 q 298 90 296 101 q 306 80 300 80 q 286 68 304 68 q 260 77 275 68 q 243 86 246 86 q 401 311 352 178 q 466 491 433 401 q 627 565 508 565 l 661 565 l 495 78 l 495 50 q 738 217 599 75 m 225 359 q 221 344 225 355 q 218 330 218 333 l 190 330 l 190 359 q 207 354 195 354 q 225 359 218 354 m 168 356 l 168 356 l 168 356 m 437 119 q 439 93 437 122 q 436 68 441 78 q 427 84 436 84 q 423 82 425 84 q 437 119 437 93 m 138 -3 l 79 -3 q 14 162 14 38 q 54 349 14 245 q 138 541 96 445 l 138 -3 m 266 57 q 227 24 263 54 q 191 4 202 4 q 173 1 181 4 q 160 -2 166 -2 q 175 43 167 7 q 185 28 179 36 q 196 47 196 28 q 232 52 204 48 q 266 57 255 57 m 146 -350 q 69 -252 69 -323 q 89 -180 69 -219 q 146 -114 112 -138 q 131 -196 146 -150 q 116 -256 116 -242 q 146 -298 116 -286 l 146 -350 m 238 520 l 238 541 l 224 541 l 224 520 l 238 520 m 451 190 l 440 195 l 429 174 l 441 169 l 451 190 m 210 311 q 190 319 202 311 q 193 296 190 317 q 192 281 196 285 l 173 296 q 175 218 175 201 q 186 263 173 235 q 210 311 198 287 "},"≈":{"x_min":0,"x_max":0,"ha":1389},"Ž":{"x_min":0,"x_max":0,"ha":1389},"Á":{"x_min":-6.25,"x_max":967,"ha":940,"o":"m 684 433 l 684 433 l 684 433 m 599 220 l 599 220 l 599 220 m 37 538 l 37 538 l 37 538 m 44 470 l 44 470 l 44 470 m 90 416 l 81 398 l 72 403 l 80 420 l 90 416 m 105 338 l 82 329 l 82 339 l 102 347 l 105 338 m 96 311 l 71 295 l 66 305 l 90 320 l 96 311 m 26 350 l 8 350 l 8 362 l 26 362 l 26 350 m 84 274 l 84 274 l 84 274 m 122 216 l 84 193 l 80 204 l 118 225 l 122 216 m 56 254 l 47 248 l 31 273 l 40 279 l 56 254 m 61 220 l 61 220 l 61 220 m 64 200 l 64 200 l 64 200 m 39 217 q 7 209 17 215 q -5 204 -2 204 q 26 249 -7 218 q 30 230 18 242 q 39 247 36 236 l 39 217 m 23 206 l 23 206 l 23 206 m 83 116 l 58 92 l 52 100 l 75 123 l 83 116 m 23 139 l 23 139 l 23 139 m 105 57 l 105 57 l 105 57 m 71 57 l 71 57 l 71 57 m 948 930 q 911 888 919 902 q 888 927 894 904 q 867 953 884 946 q 887 958 881 953 q 882 970 883 962 q 877 982 880 979 q 821 949 857 961 q 814 979 821 979 q 808 976 811 978 q 816 981 808 981 q 829 976 824 981 q 832 996 832 982 q 836 1016 832 1010 q 867 990 873 989 q 877 996 875 990 q 887 1003 879 1003 q 915 995 894 1003 q 948 988 936 988 l 948 930 m 967 236 q 867 63 967 142 q 663 -14 770 -14 q 545 33 586 -14 q 490 189 503 81 q 348 40 419 115 q 200 -14 283 -14 q 87 19 126 -14 q -6 160 48 52 q 6 157 -5 160 q 35 155 19 155 q 35 170 39 158 q 39 179 33 179 q 70 168 46 179 q 75 195 73 174 q 81 222 78 215 l 108 247 q 92 259 96 259 q 111 250 96 266 q 118 254 115 252 q 122 267 122 256 q 110 291 122 291 q 59 284 91 291 q 56 283 57 283 q 49 305 59 283 q 34 312 42 305 q 20 320 27 320 q 34 332 24 324 q 48 343 44 339 q 41 358 48 345 q 35 379 35 371 q 62 365 49 365 q 65 380 62 364 q 60 403 68 389 q 72 418 68 414 q 99 432 80 424 q 93 437 101 436 q 65 439 86 439 q 57 441 62 436 q 41 454 51 449 q 38 457 39 447 q 40 477 35 467 q 22 482 35 482 l 22 514 q 43 487 30 508 q 74 518 54 508 q 54 539 66 522 q 40 575 40 560 q 224 874 40 718 q 538 1024 401 1024 q 601 1017 584 1024 l 620 1030 q 641 1009 626 1024 q 707 1024 706 1024 q 812 1015 769 1024 q 782 971 797 993 q 760 914 760 940 q 783 938 767 919 q 801 956 795 956 q 804 955 803 956 q 859 948 832 931 q 847 924 859 936 q 863 906 849 919 q 875 884 875 895 q 872 873 875 879 q 871 871 871 872 q 894 857 871 869 q 879 846 886 851 q 864 819 869 836 q 861 821 863 821 q 852 813 859 821 q 840 802 846 805 q 859 799 851 791 q 770 590 827 749 q 697 257 697 385 q 789 115 697 115 q 888 161 824 115 q 967 236 947 204 m 224 625 l 200 601 l 194 609 l 217 632 l 224 625 m 116 582 l 92 567 l 86 576 l 110 592 l 116 582 m 90 564 l 72 547 l 66 554 l 82 571 l 90 564 m 917 902 l 917 934 l 905 934 l 905 902 l 917 902 m 789 1001 l 789 1013 l 753 1005 l 753 993 l 789 1001 m 891 878 l 891 878 l 891 878 m 781 984 l 773 991 l 757 974 l 763 966 l 781 984 m 799 942 l 799 942 l 799 942 m 842 909 l 834 916 l 818 900 l 824 892 l 842 909 m 823 921 l 820 930 l 800 922 l 800 912 l 823 921 m 860 868 l 860 868 l 860 868 m 792 929 l 792 929 l 792 929 m 798 907 l 765 890 q 780 884 771 890 q 789 873 789 878 q 798 907 795 886 m 860 836 q 848 855 857 841 q 840 869 840 865 q 848 876 848 874 q 845 878 848 878 q 822 872 840 878 q 801 865 803 866 q 779 822 801 844 q 826 784 796 805 q 810 801 819 788 q 800 826 800 816 q 815 841 809 841 q 825 838 819 841 q 837 806 837 830 q 860 836 838 821 m 780 866 l 776 875 l 760 867 l 760 858 l 780 866 m 813 823 l 813 823 l 813 823 m 747 886 l 737 886 l 715 843 l 725 839 l 747 886 m 782 783 l 782 783 l 782 783 m 774 803 l 767 812 l 750 799 l 756 790 l 774 803 m 544 977 l 536 1009 l 525 1009 l 532 977 l 544 977 m 751 817 q 711 833 715 826 q 611 661 674 779 q 703 801 640 708 q 715 809 710 809 q 724 801 719 809 q 729 793 728 793 q 751 817 731 797 m 711 555 l 711 555 l 711 555 m 611 654 l 602 658 l 593 640 l 603 636 l 611 654 m 312 907 l 308 916 l 279 902 l 279 892 l 312 907 m 285 801 l 279 807 l 255 784 l 262 777 l 285 801 m 299 780 l 292 787 l 268 764 l 275 757 l 299 780 m 744 972 q 689 982 709 982 q 663 969 682 969 q 643 974 648 969 q 639 1002 643 998 q 630 976 639 976 q 459 912 567 981 q 340 832 399 872 q 346 821 340 828 q 353 811 353 814 q 284 741 329 786 q 305 735 298 741 q 255 637 284 705 q 216 553 227 569 q 198 425 210 482 q 190 342 190 383 q 204 226 190 277 q 301 135 232 135 q 451 231 396 135 q 520 429 486 291 q 575 602 554 567 q 578 618 576 612 q 580 618 580 624 q 586 626 584 618 q 578 635 589 635 q 711 869 644 802 q 746 933 746 904 q 744 940 746 938 q 718 956 729 956 q 697 965 707 956 q 715 976 703 966 q 730 974 719 976 q 744 972 741 972 m 220 717 l 216 728 l 190 712 l 190 702 l 220 717 m 224 683 l 219 694 l 170 672 l 170 662 l 224 683 m 224 659 l 217 666 l 201 649 l 207 642 l 224 659 m 170 590 l 164 599 l 137 575 l 143 567 l 170 590 m 142 596 l 116 605 l 116 595 l 138 587 l 142 596 m 128 629 q 77 596 92 611 q 55 616 58 616 q 51 600 55 613 q 47 579 47 587 q 57 570 47 569 q 70 569 68 571 q 128 629 113 601 m 30 552 l 30 552 l 30 552 m 873 1294 q 774 1142 853 1210 q 620 1040 723 1098 l 578 1055 q 717 1277 680 1172 l 873 1294 "},"g":{"x_min":3,"x_max":673.90625,"ha":665,"o":"m 292 -163 l 279 -163 l 279 -122 l 292 -122 l 292 -163 m 289 -82 q 262 -147 289 -89 q 224 -237 243 -192 q 139 -300 190 -300 q 75 -228 75 -300 q 79 -187 75 -199 q 125 -138 89 -164 q 115 -89 114 -117 q 135 -122 115 -122 q 200 -90 146 -122 q 263 -42 257 -57 q 289 -50 271 -50 l 289 -82 m 673 145 q 575 76 625 110 q 473 20 512 34 q 417 -107 445 -43 q 321 -257 381 -184 q 298 -178 314 -241 l 292 -178 q 302 -224 294 -190 q 311 -264 311 -256 q 230 -326 311 -297 q 142 -350 168 -350 q 24 -228 24 -350 q 176 -38 24 -112 q 298 9 217 -24 q 321 61 316 18 q 346 118 327 104 q 328 143 338 122 q 128 8 224 8 q 3 200 3 8 q 105 463 3 351 q 356 580 209 580 q 407 555 365 580 q 457 530 449 530 q 515 552 464 530 q 595 586 575 579 q 526 306 566 484 q 489 126 489 143 l 489 84 q 582 131 519 80 q 673 206 628 169 l 673 145 m 443 432 l 443 432 l 443 432 m 449 352 l 449 378 l 436 378 l 436 352 l 449 352 m 409 407 l 409 433 q 399 494 404 464 q 339 530 390 530 q 209 416 262 530 q 168 247 168 324 q 235 129 168 129 q 331 194 294 129 q 375 316 354 233 q 402 388 394 384 q 404 412 399 412 q 409 407 406 411 m 418 64 l 418 64 l 418 64 m 405 73 l 396 93 l 386 89 l 395 73 l 405 73 "},"²":{"x_min":28,"x_max":425,"ha":449,"o":"m 379 526 q 341 433 360 456 q 254 395 314 395 q 181 399 229 395 q 108 403 132 403 q 33 395 85 403 q 28 404 28 395 q 159 594 28 478 q 310 835 310 728 q 290 898 310 872 q 233 926 269 926 q 175 902 199 926 q 151 845 151 879 q 170 803 151 820 q 190 779 190 785 q 157 753 190 767 q 113 741 128 741 q 78 787 78 741 q 144 914 78 859 q 280 966 207 966 q 382 929 340 966 q 425 832 425 892 q 360 700 425 764 q 240 607 326 664 q 90 481 121 526 q 178 493 136 493 q 233 490 197 493 q 287 487 269 487 q 333 496 319 487 q 358 534 347 505 l 379 526 "},"–":{"x_min":0,"x_max":0,"ha":1389},"ë":{"x_min":17.0625,"x_max":529.5,"ha":507,"o":"m 529 209 l 520 137 q 508 153 520 153 q 382 30 517 107 q 385 45 382 32 q 388 67 388 59 q 369 80 382 67 q 368 61 365 76 q 373 16 373 37 q 229 -14 293 -14 q 81 37 135 -14 q 26 178 26 89 q 26 200 26 189 q 39 214 33 208 q 55 222 46 224 q 68 181 55 199 l 72 181 q 64 254 64 196 q 48 314 64 303 q 60 330 53 319 q 65 395 58 353 q 192 536 111 483 q 344 585 268 585 q 481 466 481 585 q 412 343 481 392 q 252 261 380 319 l 252 301 q 318 365 282 317 q 358 452 358 416 q 346 499 358 473 q 304 535 330 535 q 224 478 265 535 q 182 390 186 427 q 185 402 178 402 l 174 411 q 152 318 164 366 q 156 356 147 338 l 145 367 q 133 338 138 357 q 120 307 127 318 q 166 303 135 309 q 176 328 171 308 l 176 286 q 182 278 179 282 q 196 274 184 274 q 203 278 203 274 q 201 281 203 279 q 200 285 200 284 q 206 289 200 289 q 232 274 217 289 q 237 289 237 278 q 242 303 237 299 q 211 238 242 246 q 188 260 199 238 q 178 227 178 250 q 215 148 178 193 q 269 103 247 108 q 307 96 288 99 q 341 80 337 89 q 361 96 357 96 q 368 94 365 96 l 384 108 q 390 94 384 100 q 529 209 403 116 m 42 317 l 27 243 l 17 243 l 31 317 l 42 317 m 374 370 l 367 377 l 349 359 l 356 352 l 374 370 m 194 437 l 184 441 l 175 422 l 185 418 l 194 437 m 303 305 l 293 326 l 283 322 l 292 305 l 303 305 m 166 399 l 166 425 l 154 425 l 154 399 l 166 399 m 94 312 l 91 352 l 78 352 l 82 312 l 94 312 m 354 31 l 354 57 l 341 57 l 341 31 l 354 31 m 100 298 l 93 305 l 75 287 l 82 280 l 100 298 m 274 53 l 265 74 l 255 70 l 264 53 l 274 53 m 167 296 q 137 216 147 263 q 131 238 131 223 q 149 295 131 274 l 122 295 l 122 211 q 136 198 133 211 q 113 36 125 140 q 146 121 119 63 q 141 154 141 135 q 154 225 141 178 q 167 296 167 275 m 123 187 l 111 187 l 103 146 l 115 146 l 123 187 "},"ƒ":{"x_min":0,"x_max":0,"ha":1389},"Î":{"x_min":42,"x_max":837.203125,"ha":839,"o":"m 130 195 l 113 195 l 113 206 l 130 206 l 130 195 m 837 931 q 758 831 797 899 q 707 696 718 760 q 663 428 685 562 q 585 209 619 209 q 576 206 577 209 q 574 204 576 204 q 576 196 571 201 q 583 181 583 189 q 543 126 583 166 q 502 88 512 95 q 507 98 502 90 q 513 114 513 105 q 491 173 513 131 q 500 194 500 181 q 491 184 500 184 q 483 265 483 184 q 483 394 483 372 q 481 384 482 393 q 481 58 481 273 q 412 18 457 40 q 357 -4 368 -4 q 282 -4 349 -4 q 207 -4 215 -4 q 100 39 159 -4 q 42 122 42 83 q 81 191 42 146 q 150 235 121 235 q 174 197 174 235 q 170 157 174 189 q 207 76 198 90 q 274 38 232 38 q 404 139 353 38 q 462 332 441 212 q 477 452 469 392 q 483 439 477 449 q 482 462 491 462 q 475 459 479 462 q 555 660 511 586 q 716 848 608 749 q 566 834 623 834 q 522 852 559 834 q 478 871 485 871 q 452 858 464 871 q 443 872 448 864 l 432 885 q 388 834 416 878 q 383 846 389 840 q 350 806 367 826 q 328 744 328 777 q 363 671 328 703 q 398 627 398 639 q 362 574 398 599 q 318 554 333 554 q 265 605 285 554 q 252 671 252 642 q 278 772 252 720 q 341 837 306 827 q 322 842 336 842 q 381 903 341 863 q 454 940 385 906 q 429 895 447 922 l 440 884 q 466 919 455 891 q 488 927 473 920 l 488 943 q 461 952 480 951 q 489 959 470 952 q 516 967 507 967 q 534 961 525 967 q 542 970 541 965 q 547 955 542 961 q 576 968 560 968 q 600 955 584 968 q 624 942 616 942 q 667 939 632 942 q 709 936 702 936 q 750 952 717 936 q 792 968 784 968 q 837 953 808 968 l 837 931 m 621 910 l 617 919 l 603 911 l 603 902 l 621 910 m 729 801 l 726 810 l 711 802 l 711 793 l 729 801 m 627 886 q 598 891 610 903 l 585 891 q 610 889 607 891 q 627 886 615 886 m 541 905 l 541 935 l 530 935 l 530 905 l 541 905 m 515 903 l 506 903 l 497 881 l 507 877 l 515 903 m 400 866 l 393 873 l 377 858 l 383 850 l 400 866 m 354 826 l 351 836 l 330 828 l 330 819 l 354 826 m 309 770 l 309 770 l 309 770 m 310 783 l 305 791 l 282 777 l 288 767 l 310 783 m 311 682 l 303 700 l 294 696 l 302 682 l 311 682 m 321 628 l 321 639 l 298 639 l 298 628 l 321 628 m 490 402 l 490 426 l 479 426 l 479 402 l 490 402 m 547 209 q 532 201 547 204 q 537 188 532 198 q 542 174 542 177 q 546 192 542 179 q 547 209 550 202 m 337 1166 l 346 1200 q 555 1424 468 1282 l 701 1447 q 708 1312 701 1358 q 764 1191 721 1241 l 758 1164 q 587 1322 656 1200 q 337 1166 470 1199 "},"e":{"x_min":17.0625,"x_max":529.5,"ha":507,"o":"m 529 209 l 520 137 q 508 153 520 153 q 382 30 517 107 q 385 45 382 32 q 388 67 388 59 q 369 80 382 67 q 368 61 365 76 q 373 16 373 37 q 229 -14 293 -14 q 81 37 135 -14 q 26 178 26 89 q 26 200 26 189 q 39 214 33 208 q 55 222 46 224 q 68 181 55 199 l 72 181 q 64 254 64 196 q 48 314 64 303 q 60 330 53 319 q 65 395 58 353 q 192 536 111 483 q 344 585 268 585 q 481 466 481 585 q 412 343 481 392 q 252 261 380 319 l 252 301 q 318 365 282 317 q 358 452 358 416 q 346 499 358 473 q 304 535 330 535 q 224 478 265 535 q 182 390 186 427 q 185 402 178 402 l 174 411 q 152 318 164 366 q 156 356 147 338 l 145 367 q 133 338 138 357 q 120 307 127 318 q 166 303 135 309 q 176 328 171 308 l 176 286 q 182 278 179 282 q 196 274 184 274 q 203 278 203 274 q 201 281 203 279 q 200 285 200 284 q 206 289 200 289 q 232 274 217 289 q 237 289 237 278 q 242 303 237 299 q 211 238 242 246 q 188 260 199 238 q 178 227 178 250 q 215 148 178 193 q 269 103 247 108 q 307 96 288 99 q 341 80 337 89 q 361 96 357 96 q 368 94 365 96 l 384 108 q 390 94 384 100 q 529 209 403 116 m 42 317 l 27 243 l 17 243 l 31 317 l 42 317 m 374 370 l 367 377 l 349 359 l 356 352 l 374 370 m 194 437 l 184 441 l 175 422 l 185 418 l 194 437 m 303 305 l 293 326 l 283 322 l 292 305 l 303 305 m 166 399 l 166 425 l 154 425 l 154 399 l 166 399 m 94 312 l 91 352 l 78 352 l 82 312 l 94 312 m 354 31 l 354 57 l 341 57 l 341 31 l 354 31 m 100 298 l 93 305 l 75 287 l 82 280 l 100 298 m 274 53 l 265 74 l 255 70 l 264 53 l 274 53 m 167 296 q 137 216 147 263 q 131 238 131 223 q 149 295 131 274 l 122 295 l 122 211 q 136 198 133 211 q 113 36 125 140 q 146 121 119 63 q 141 154 141 135 q 154 225 141 178 q 167 296 167 275 m 123 187 l 111 187 l 103 146 l 115 146 l 123 187 "},"Ã":{"x_min":-6.25,"x_max":967,"ha":940,"o":"m 684 433 l 684 433 l 684 433 m 599 220 l 599 220 l 599 220 m 37 538 l 37 538 l 37 538 m 44 470 l 44 470 l 44 470 m 90 416 l 81 398 l 72 403 l 80 420 l 90 416 m 105 338 l 82 329 l 82 339 l 102 347 l 105 338 m 96 311 l 71 295 l 66 305 l 90 320 l 96 311 m 26 350 l 8 350 l 8 362 l 26 362 l 26 350 m 84 274 l 84 274 l 84 274 m 122 216 l 84 193 l 80 204 l 118 225 l 122 216 m 56 254 l 47 248 l 31 273 l 40 279 l 56 254 m 61 220 l 61 220 l 61 220 m 64 200 l 64 200 l 64 200 m 39 217 q 7 209 17 215 q -5 204 -2 204 q 26 249 -7 218 q 30 230 18 242 q 39 247 36 236 l 39 217 m 23 206 l 23 206 l 23 206 m 83 116 l 58 92 l 52 100 l 75 123 l 83 116 m 23 139 l 23 139 l 23 139 m 105 57 l 105 57 l 105 57 m 71 57 l 71 57 l 71 57 m 948 930 q 911 888 919 902 q 888 927 894 904 q 867 953 884 946 q 887 958 881 953 q 882 970 883 962 q 877 982 880 979 q 821 949 857 961 q 814 979 821 979 q 808 976 811 978 q 816 981 808 981 q 829 976 824 981 q 832 996 832 982 q 836 1016 832 1010 q 867 990 873 989 q 877 996 875 990 q 887 1003 879 1003 q 915 995 894 1003 q 948 988 936 988 l 948 930 m 967 236 q 867 63 967 142 q 663 -14 770 -14 q 545 33 586 -14 q 490 189 503 81 q 348 40 419 115 q 200 -14 283 -14 q 87 19 126 -14 q -6 160 48 52 q 6 157 -5 160 q 35 155 19 155 q 35 170 39 158 q 39 179 33 179 q 70 168 46 179 q 75 195 73 174 q 81 222 78 215 l 108 247 q 92 259 96 259 q 111 250 96 266 q 118 254 115 252 q 122 267 122 256 q 110 291 122 291 q 59 284 91 291 q 56 283 57 283 q 49 305 59 283 q 34 312 42 305 q 20 320 27 320 q 34 332 24 324 q 48 343 44 339 q 41 358 48 345 q 35 379 35 371 q 62 365 49 365 q 65 380 62 364 q 60 403 68 389 q 72 418 68 414 q 99 432 80 424 q 93 437 101 436 q 65 439 86 439 q 57 441 62 436 q 41 454 51 449 q 38 457 39 447 q 40 477 35 467 q 22 482 35 482 l 22 514 q 43 487 30 508 q 74 518 54 508 q 54 539 66 522 q 40 575 40 560 q 224 874 40 718 q 538 1024 401 1024 q 601 1017 584 1024 l 620 1030 q 641 1009 626 1024 q 707 1024 706 1024 q 812 1015 769 1024 q 782 971 797 993 q 760 914 760 940 q 783 938 767 919 q 801 956 795 956 q 804 955 803 956 q 859 948 832 931 q 847 924 859 936 q 863 906 849 919 q 875 884 875 895 q 872 873 875 879 q 871 871 871 872 q 894 857 871 869 q 879 846 886 851 q 864 819 869 836 q 861 821 863 821 q 852 813 859 821 q 840 802 846 805 q 859 799 851 791 q 770 590 827 749 q 697 257 697 385 q 789 115 697 115 q 888 161 824 115 q 967 236 947 204 m 224 625 l 200 601 l 194 609 l 217 632 l 224 625 m 116 582 l 92 567 l 86 576 l 110 592 l 116 582 m 90 564 l 72 547 l 66 554 l 82 571 l 90 564 m 917 902 l 917 934 l 905 934 l 905 902 l 917 902 m 789 1001 l 789 1013 l 753 1005 l 753 993 l 789 1001 m 891 878 l 891 878 l 891 878 m 781 984 l 773 991 l 757 974 l 763 966 l 781 984 m 799 942 l 799 942 l 799 942 m 842 909 l 834 916 l 818 900 l 824 892 l 842 909 m 823 921 l 820 930 l 800 922 l 800 912 l 823 921 m 860 868 l 860 868 l 860 868 m 792 929 l 792 929 l 792 929 m 798 907 l 765 890 q 780 884 771 890 q 789 873 789 878 q 798 907 795 886 m 860 836 q 848 855 857 841 q 840 869 840 865 q 848 876 848 874 q 845 878 848 878 q 822 872 840 878 q 801 865 803 866 q 779 822 801 844 q 826 784 796 805 q 810 801 819 788 q 800 826 800 816 q 815 841 809 841 q 825 838 819 841 q 837 806 837 830 q 860 836 838 821 m 780 866 l 776 875 l 760 867 l 760 858 l 780 866 m 813 823 l 813 823 l 813 823 m 747 886 l 737 886 l 715 843 l 725 839 l 747 886 m 782 783 l 782 783 l 782 783 m 774 803 l 767 812 l 750 799 l 756 790 l 774 803 m 544 977 l 536 1009 l 525 1009 l 532 977 l 544 977 m 751 817 q 711 833 715 826 q 611 661 674 779 q 703 801 640 708 q 715 809 710 809 q 724 801 719 809 q 729 793 728 793 q 751 817 731 797 m 711 555 l 711 555 l 711 555 m 611 654 l 602 658 l 593 640 l 603 636 l 611 654 m 312 907 l 308 916 l 279 902 l 279 892 l 312 907 m 285 801 l 279 807 l 255 784 l 262 777 l 285 801 m 299 780 l 292 787 l 268 764 l 275 757 l 299 780 m 744 972 q 689 982 709 982 q 663 969 682 969 q 643 974 648 969 q 639 1002 643 998 q 630 976 639 976 q 459 912 567 981 q 340 832 399 872 q 346 821 340 828 q 353 811 353 814 q 284 741 329 786 q 305 735 298 741 q 255 637 284 705 q 216 553 227 569 q 198 425 210 482 q 190 342 190 383 q 204 226 190 277 q 301 135 232 135 q 451 231 396 135 q 520 429 486 291 q 575 602 554 567 q 578 618 576 612 q 580 618 580 624 q 586 626 584 618 q 578 635 589 635 q 711 869 644 802 q 746 933 746 904 q 744 940 746 938 q 718 956 729 956 q 697 965 707 956 q 715 976 703 966 q 730 974 719 976 q 744 972 741 972 m 220 717 l 216 728 l 190 712 l 190 702 l 220 717 m 224 683 l 219 694 l 170 672 l 170 662 l 224 683 m 224 659 l 217 666 l 201 649 l 207 642 l 224 659 m 170 590 l 164 599 l 137 575 l 143 567 l 170 590 m 142 596 l 116 605 l 116 595 l 138 587 l 142 596 m 128 629 q 77 596 92 611 q 55 616 58 616 q 51 600 55 613 q 47 579 47 587 q 57 570 47 569 q 70 569 68 571 q 128 629 113 601 m 30 552 l 30 552 l 30 552 "},"J":{"x_min":14,"x_max":731,"ha":724,"o":"m 729 222 q 731 200 731 211 q 683 115 731 154 q 583 58 654 91 q 493 9 512 24 q 455 -52 481 0 q 413 -129 422 -115 q 406 -114 413 -128 q 399 -92 399 -99 q 424 -86 419 -92 q 411 -85 424 -85 q 400 -84 403 -85 q 390 -83 396 -83 l 390 -110 q 392 -80 389 -98 q 411 -69 399 -77 q 399 -51 404 -65 q 392 -36 395 -38 q 421 -65 391 -36 q 443 -55 425 -63 q 408 -2 438 -46 q 403 -21 403 -6 l 385 -3 q 405 15 385 -3 q 392 34 405 27 q 407 35 394 34 q 432 37 421 37 q 438 70 438 42 q 429 43 429 70 q 413 50 418 50 l 413 74 q 422 75 415 71 q 439 82 432 82 q 447 77 449 82 q 447 68 444 71 q 451 88 458 81 q 465 88 465 88 q 481 97 470 89 q 436 122 455 113 q 462 162 443 139 q 434 184 451 176 l 413 165 q 409 184 413 180 q 401 175 402 181 q 395 205 401 180 q 389 243 389 230 q 393 258 389 254 q 402 271 401 261 q 407 254 402 261 q 427 293 426 285 q 432 280 427 286 q 434 290 432 283 q 434 299 435 295 q 424 310 432 304 q 448 274 430 307 q 453 279 452 274 q 449 289 454 285 q 483 299 459 299 q 488 312 488 297 q 479 329 488 322 q 465 338 472 333 q 454 319 454 326 q 443 324 451 322 q 438 329 437 325 q 434 345 438 333 l 421 333 l 399 333 q 405 347 399 337 q 391 356 394 359 q 405 374 392 362 q 394 388 402 379 q 386 402 386 395 l 409 402 q 415 363 415 397 q 405 360 405 374 q 412 347 405 351 q 421 338 419 343 q 475 379 438 349 q 458 405 472 382 q 439 422 449 422 q 428 415 431 422 q 417 408 425 408 q 411 411 411 408 q 412 415 411 412 q 414 419 414 417 q 408 422 413 422 q 399 419 399 422 q 402 412 402 408 q 400 428 402 427 q 390 418 389 428 q 455 628 390 512 q 611 856 488 685 l 611 864 q 507 832 566 832 q 440 848 499 832 q 372 864 380 864 q 318 850 349 864 q 272 815 283 834 q 231 763 261 795 q 251 689 235 737 q 284 655 256 681 q 309 624 309 631 q 276 578 309 607 q 231 550 243 550 q 180 600 202 550 q 218 614 198 600 q 202 627 210 627 q 169 607 189 627 q 161 672 161 632 q 245 859 161 753 q 426 973 337 973 q 505 954 434 973 q 584 935 576 935 q 620 946 594 935 q 656 967 647 957 l 710 967 q 719 947 719 958 q 693 896 719 940 q 656 827 663 844 q 615 693 635 781 q 599 572 599 617 l 507 80 q 517 75 502 75 q 632 135 551 75 q 729 222 704 189 m 432 365 l 421 365 l 421 388 l 432 388 l 432 365 m 395 160 l 383 160 l 383 184 l 395 184 l 395 160 m 420 83 l 409 83 l 409 100 l 420 100 l 420 83 m 407 -161 l 396 -161 l 396 -144 l 407 -144 l 407 -161 m 371 -192 q 265 -297 371 -239 q 116 -348 168 -348 q 37 -326 60 -348 q 14 -251 14 -304 q 44 -151 14 -193 q 156 -62 75 -109 q 232 -40 161 -58 q 300 2 285 -25 q 347 178 331 67 q 371 369 359 274 l 371 -192 m 213 773 l 208 783 l 194 775 l 194 765 l 213 773 m 488 498 l 485 507 l 469 499 l 469 490 l 488 498 m 449 503 l 425 503 q 429 490 425 500 q 434 475 434 479 q 441 492 434 483 q 449 503 449 501 m 451 263 l 445 269 l 429 254 l 434 247 l 451 263 m 445 204 l 445 222 l 434 222 l 434 204 l 445 204 m 427 179 l 427 202 l 415 202 l 415 179 l 427 179 m 471 38 l 471 55 l 460 55 l 460 38 l 471 38 m 283 -88 l 274 -66 q 64 -250 64 -150 q 65 -269 64 -260 q 110 -296 93 -296 q 218 -220 165 -296 q 283 -88 259 -162 "},"»":{"x_min":0,"x_max":0,"ha":1389},"∆":{"x_min":0,"x_max":0,"ha":1389},"˘":{"x_min":0,"x_max":0,"ha":1389},"≥":{"x_min":0,"x_max":0,"ha":1389},"ò":{"x_min":8,"x_max":629.265625,"ha":608,"o":"m 619 211 q 629 181 629 196 q 581 116 629 145 q 506 91 540 91 q 409 121 472 91 q 214 -14 289 -14 l 171 -14 q 97 10 126 -14 q 70 44 91 23 q 89 44 72 44 q 119 44 106 44 q 127 85 127 51 q 115 54 115 85 q 95 62 102 62 l 95 91 q 100 89 97 89 q 111 93 102 89 q 128 98 119 98 q 138 95 138 98 q 136 92 138 95 q 134 87 134 89 q 136 83 134 85 q 143 107 151 98 q 146 109 132 107 q 159 106 154 111 q 169 112 163 110 q 179 117 175 113 q 124 146 147 135 q 155 193 132 166 q 121 219 143 209 l 95 196 q 90 219 95 214 q 82 207 81 214 q 74 243 82 214 q 66 288 66 273 q 71 305 66 300 q 82 320 82 309 q 89 301 82 309 q 112 347 112 337 q 119 331 111 338 q 122 343 119 334 q 122 354 123 349 q 110 367 119 360 q 138 323 117 364 q 145 330 144 323 q 140 342 146 337 q 181 354 151 354 q 187 369 187 351 q 176 389 187 381 q 159 399 168 394 q 146 377 146 385 q 134 382 142 380 q 126 389 125 384 q 120 407 127 394 l 106 393 l 79 393 q 99 422 79 403 q 106 399 99 406 q 171 449 127 413 q 152 477 167 460 q 220 524 157 491 q 308 557 283 557 l 350 557 q 334 538 350 553 q 333 538 333 538 q 335 536 332 536 q 346 535 338 535 q 385 550 355 535 q 424 565 415 565 q 485 534 462 565 q 506 467 506 506 q 471 274 506 413 q 451 224 468 261 q 435 181 435 190 q 506 144 435 144 q 559 157 537 144 q 619 211 577 169 m 73 190 l 59 190 l 59 218 l 73 218 l 73 190 m 44 61 q 21 124 34 75 q 8 196 8 174 q 18 272 8 238 q 44 347 31 309 l 44 61 m 105 100 l 91 100 l 91 120 l 105 120 l 105 100 m 368 281 l 359 309 l 347 306 l 357 281 l 368 281 m 396 519 l 339 519 q 255 461 303 519 q 187 380 194 386 q 204 372 194 380 q 179 223 179 236 q 197 129 179 172 q 264 76 220 76 q 320 99 287 76 q 374 162 357 126 q 319 264 319 233 q 324 280 319 274 q 339 268 339 280 q 335 283 339 271 q 331 298 331 294 q 333 289 331 302 q 323 286 335 286 q 306 316 306 286 q 314 354 306 342 q 344 309 330 325 q 334 411 332 397 q 331 425 331 418 q 360 476 331 444 q 396 519 394 515 m 142 311 l 134 318 l 115 300 l 122 292 l 142 311 m 135 242 l 135 263 l 122 263 l 122 242 l 135 242 m 112 212 l 112 241 l 98 241 l 98 212 l 112 212 m 166 46 l 166 68 l 153 68 l 153 46 l 166 46 "},"^":{"x_min":0,"x_max":0,"ha":1389},"«":{"x_min":0,"x_max":0,"ha":1389},"D":{"x_min":9,"x_max":1030,"ha":1055,"o":"m 850 407 l 850 407 l 850 407 m 527 364 l 507 348 l 501 357 l 521 372 l 527 364 m 459 331 l 430 313 l 426 322 l 454 340 l 459 331 m 484 304 q 480 292 484 301 q 476 280 476 283 q 464 299 472 286 q 452 317 456 311 q 484 304 459 313 m 483 245 l 459 245 l 459 257 l 483 257 l 483 245 m 432 285 l 432 285 l 432 285 m 541 312 q 489 229 535 282 q 435 171 461 200 q 414 204 436 182 l 414 238 q 430 255 430 255 l 436 240 q 451 259 442 243 q 467 273 459 273 q 486 267 479 273 q 501 293 486 287 q 541 312 530 301 m 455 89 l 455 89 l 455 89 m 500 44 l 500 44 l 500 44 m 486 20 l 478 2 l 468 6 l 477 23 l 486 20 m 423 63 l 423 63 l 423 63 m 320 169 l 312 139 l 301 139 l 308 169 l 320 169 m 255 37 q 94 -16 115 -16 q 35 5 61 -16 q 9 57 9 26 q 28 104 9 74 q 90 150 54 143 q 181 171 136 171 q 215 167 190 171 q 255 163 241 163 q 255 37 255 119 m 113 112 l 105 86 l 96 90 l 104 112 l 113 112 m 705 945 l 705 945 l 705 945 m 255 829 l 255 829 l 255 829 m 1030 554 q 872 173 1030 342 q 451 -11 701 -11 q 438 -3 450 -6 q 427 4 427 0 q 430 26 429 6 q 442 2 430 16 q 444 15 446 6 q 440 35 440 32 l 465 27 q 439 66 457 31 q 477 68 477 66 q 470 75 476 71 q 476 68 474 72 q 481 61 477 64 q 500 74 494 74 q 538 64 507 74 q 577 55 569 55 q 787 271 708 55 q 844 533 844 424 q 772 766 844 628 q 603 923 691 923 q 588 919 596 923 q 571 916 579 916 q 550 929 550 916 l 494 929 q 459 919 487 929 q 423 910 431 910 q 409 919 414 910 q 398 929 404 929 q 406 905 392 924 q 386 892 406 905 q 365 884 373 884 q 254 789 314 884 q 202 672 202 706 q 231 605 202 636 q 285 561 242 592 l 285 538 q 229 504 266 523 q 182 486 192 486 l 157 486 q 80 617 107 486 q 147 786 80 697 q 327 935 218 880 q 333 920 330 927 q 345 910 337 910 q 355 913 349 910 l 336 932 q 365 948 351 948 q 384 951 370 948 q 406 955 397 955 q 422 959 411 955 q 442 965 432 963 q 462 955 452 965 q 472 973 472 955 q 609 981 524 981 q 913 855 792 981 q 1030 554 1030 732 m 246 575 l 246 575 l 246 575 m 208 505 l 205 496 l 183 504 l 183 513 l 208 505 m 155 502 l 125 509 l 125 521 l 155 513 l 155 502 m 406 -6 q 282 31 310 -6 q 260 135 260 57 l 260 163 q 282 150 268 160 q 366 307 338 167 q 404 550 385 429 q 400 492 404 500 q 408 319 408 426 q 408 145 408 162 q 374 128 393 146 q 406 111 377 125 l 406 -6 m 516 941 l 513 950 l 498 942 l 498 933 l 516 941 m 384 941 l 384 941 l 384 941 m 548 701 l 548 701 l 548 701 m 683 751 q 641 787 665 787 q 496 706 582 787 q 405 540 405 620 q 417 490 405 513 q 417 455 417 478 q 417 424 417 427 q 422 441 416 435 q 434 412 425 428 q 435 389 443 397 q 417 408 416 399 q 424 388 417 399 q 436 370 435 373 q 474 421 438 387 q 491 407 477 416 q 501 393 501 400 q 490 373 501 386 q 488 344 499 356 q 481 370 478 363 q 473 345 481 359 q 465 326 465 331 q 500 331 491 320 q 519 305 519 313 q 547 319 526 322 q 582 488 562 383 q 603 624 593 556 q 683 751 623 701 m 523 486 l 506 494 l 502 486 l 520 477 l 523 486 m 484 511 l 484 511 l 484 511 m 208 797 l 185 808 l 181 800 l 204 788 l 208 797 m 477 492 l 477 492 l 477 492 m 467 481 l 467 481 l 467 481 m 181 749 l 181 749 l 181 749 "},"ł":{"x_min":0,"x_max":0,"ha":1389},"ÿ":{"x_min":14,"x_max":739,"ha":723,"o":"m 167 -350 l 153 -350 l 153 -329 l 167 -329 l 167 -350 m 313 565 q 248 407 295 520 q 220 408 235 419 q 232 438 226 423 q 258 467 242 461 q 247 487 257 473 q 240 471 240 478 q 231 487 234 487 q 219 494 223 487 q 207 502 214 502 q 190 504 190 505 q 193 498 190 504 q 196 486 196 492 q 191 471 196 479 q 171 500 189 476 q 156 530 156 521 q 206 555 156 543 q 271 565 250 565 l 313 565 m 214 448 l 200 448 l 200 470 l 214 470 l 214 448 m 214 393 l 200 393 l 200 422 l 214 422 l 214 393 m 214 361 l 200 361 l 200 383 l 214 383 l 214 361 m 738 217 q 739 204 739 211 q 632 67 739 132 q 466 -26 549 20 q 367 -226 444 -125 q 173 -346 275 -346 q 177 -333 173 -347 q 181 -311 181 -319 q 156 -306 156 -311 q 176 -296 157 -296 q 186 -301 185 -296 q 187 -311 187 -306 q 190 -312 188 -312 q 191 -311 190 -312 q 192 -292 192 -310 q 201 -298 192 -296 q 215 -304 211 -300 q 215 -292 220 -298 q 203 -286 210 -286 q 252 -194 209 -277 q 306 -118 282 -134 q 287 -109 289 -112 q 290 -87 287 -107 q 265 -86 285 -86 q 187 -86 222 -86 q 312 -5 234 -63 q 329 40 321 4 q 346 96 338 81 l 346 117 q 318 90 331 117 l 302 107 q 298 90 296 101 q 306 80 300 80 q 286 68 304 68 q 260 77 275 68 q 243 86 246 86 q 401 311 352 178 q 466 491 433 401 q 627 565 508 565 l 661 565 l 495 78 l 495 50 q 738 217 599 75 m 225 359 q 221 344 225 355 q 218 330 218 333 l 190 330 l 190 359 q 207 354 195 354 q 225 359 218 354 m 168 356 l 168 356 l 168 356 m 437 119 q 439 93 437 122 q 436 68 441 78 q 427 84 436 84 q 423 82 425 84 q 437 119 437 93 m 138 -3 l 79 -3 q 14 162 14 38 q 54 349 14 245 q 138 541 96 445 l 138 -3 m 266 57 q 227 24 263 54 q 191 4 202 4 q 173 1 181 4 q 160 -2 166 -2 q 175 43 167 7 q 185 28 179 36 q 196 47 196 28 q 232 52 204 48 q 266 57 255 57 m 146 -350 q 69 -252 69 -323 q 89 -180 69 -219 q 146 -114 112 -138 q 131 -196 146 -150 q 116 -256 116 -242 q 146 -298 116 -286 l 146 -350 m 238 520 l 238 541 l 224 541 l 224 520 l 238 520 m 451 190 l 440 195 l 429 174 l 441 169 l 451 190 m 210 311 q 190 319 202 311 q 193 296 190 317 q 192 281 196 285 l 173 296 q 175 218 175 201 q 186 263 173 235 q 210 311 198 287 "},"Ł":{"x_min":0,"x_max":0,"ha":1389},"í":{"x_min":186.5,"x_max":480.828125,"ha":334,"o":"m 480 901 q 381 750 460 818 q 227 648 331 706 l 186 663 q 324 885 287 780 l 480 901 "},"ˆ":{"x_min":43.8125,"x_max":471.734375,"ha":463,"o":"m 43 774 l 52 807 q 262 1031 175 890 l 408 1055 q 415 919 408 966 q 471 799 428 849 l 464 771 q 294 929 363 807 q 43 774 177 806 "},"w":{"x_min":25,"x_max":951.015625,"ha":940,"o":"m 611 45 l 601 24 l 589 29 l 599 49 l 611 45 m 516 63 l 488 46 l 481 57 l 510 75 l 516 63 m 501 10 l 490 10 l 481 29 l 492 33 l 501 10 m 203 25 l 203 25 l 203 25 m 226 8 l 197 0 l 197 10 l 222 20 l 226 8 m 105 44 l 105 44 l 105 44 m 96 45 l 86 24 l 75 29 l 85 49 l 96 45 m 951 144 q 902 112 902 112 q 846 103 885 103 l 823 95 q 752 133 791 95 q 703 99 699 99 q 702 100 702 99 q 718 122 706 107 q 690 126 714 126 q 680 115 681 126 q 671 104 679 104 q 685 84 670 100 q 633 36 685 67 q 563 -4 598 16 q 570 12 570 4 q 542 9 557 25 q 539 27 536 16 q 555 40 543 40 l 555 58 l 541 72 q 520 28 520 53 q 531 -2 520 12 q 475 -11 516 -11 q 491 -2 479 -10 l 470 18 q 442 -5 454 20 q 399 66 399 16 q 386 67 393 71 q 380 56 379 62 q 376 88 380 67 q 366 95 374 95 q 359 87 357 95 q 351 79 361 79 q 338 87 340 79 q 333 96 336 96 q 325 72 330 87 q 316 48 320 57 q 288 52 301 63 q 300 44 292 48 q 312 36 308 40 q 258 5 309 35 q 214 -14 226 -14 q 127 -4 161 -14 q 124 41 127 25 q 114 22 118 37 q 106 1 110 5 q 41 78 57 13 q 25 160 32 120 q 25 219 25 190 q 54 263 31 256 q 40 268 48 268 l 40 305 q 63 308 59 305 q 48 315 55 315 q 53 331 48 318 q 59 348 59 344 q 65 329 59 336 q 76 347 69 339 q 82 356 82 353 q 71 375 82 361 l 89 359 q 84 395 89 370 q 79 437 79 420 q 93 441 83 437 q 108 445 104 445 q 100 398 111 430 q 114 394 103 398 q 134 391 125 391 q 132 407 134 399 q 131 414 131 414 q 148 418 131 416 q 125 451 128 422 q 109 496 121 486 q 119 538 119 512 q 288 554 224 554 q 250 444 275 524 q 226 384 231 384 q 195 372 207 384 q 210 363 199 368 q 226 355 222 359 q 187 340 217 355 q 210 309 210 329 q 186 259 210 291 q 195 308 182 284 l 183 321 q 164 308 170 308 q 168 329 176 320 q 146 282 146 307 q 109 285 144 285 l 125 302 q 124 303 125 303 q 121 321 126 308 q 86 280 102 312 q 136 219 105 266 q 127 266 143 233 q 187 240 155 248 q 180 242 182 246 q 172 232 176 237 q 186 227 178 227 q 176 178 186 231 q 184 128 192 168 q 157 112 181 125 q 132 84 136 100 q 164 67 143 81 q 192 56 181 56 l 196 45 q 206 55 202 46 q 218 68 210 63 q 187 74 213 74 q 199 95 199 87 q 237 72 210 72 q 275 82 252 72 q 314 110 303 94 l 361 110 q 356 136 361 129 q 353 147 352 142 l 353 228 q 376 219 361 219 q 380 231 383 225 q 370 231 376 237 q 380 239 374 235 q 390 247 386 243 q 360 261 376 261 q 392 378 370 285 q 434 499 412 462 q 526 555 468 555 q 533 553 532 555 q 529 547 533 551 q 525 541 525 543 q 530 540 525 540 q 551 551 538 540 q 574 563 564 563 l 615 563 q 563 425 608 539 q 537 306 550 366 q 467 213 514 221 q 488 184 477 199 q 508 130 508 152 q 505 120 508 125 l 475 114 q 589 48 513 96 q 585 69 597 57 q 612 48 591 69 q 617 66 623 59 q 643 48 617 75 q 644 74 647 57 q 642 98 642 94 q 672 127 654 104 q 707 170 700 164 q 702 204 704 187 q 710 233 700 221 q 680 245 710 245 q 696 415 680 340 q 823 571 730 571 q 846 565 833 571 q 861 559 859 559 q 842 543 858 559 q 856 542 846 539 q 871 547 870 547 q 881 496 881 528 q 846 335 881 431 q 772 207 811 236 l 772 178 q 821 154 788 168 q 854 133 848 143 q 951 203 885 158 l 951 144 m 828 508 l 821 519 l 778 485 l 785 474 l 828 508 m 773 469 l 768 480 l 725 455 l 729 443 l 773 469 m 727 440 l 719 448 l 700 428 l 707 420 l 727 440 m 541 502 l 541 531 l 528 531 l 528 502 l 541 502 m 546 470 l 546 470 l 546 470 m 717 288 l 717 301 l 696 301 l 696 288 l 717 288 m 719 266 l 714 277 l 696 267 l 696 256 l 719 266 m 464 396 l 464 396 l 464 396 m 510 260 l 500 290 l 488 286 l 498 260 l 510 260 m 672 69 l 653 88 l 645 80 l 664 62 l 672 69 m 471 245 l 471 266 l 458 266 l 458 245 l 471 245 m 435 267 q 431 282 435 270 q 427 297 427 293 q 398 270 412 290 q 399 245 399 269 q 412 254 403 245 q 425 263 421 263 q 415 269 419 263 q 417 282 412 277 l 435 267 m 429 236 l 429 236 l 429 236 m 460 186 q 434 190 451 186 q 414 194 417 194 q 427 168 423 185 q 433 149 431 152 q 460 186 439 164 m 413 199 q 394 219 413 201 q 391 207 390 215 q 394 192 394 191 q 413 199 394 199 m 164 452 q 153 474 152 452 q 148 455 153 470 q 143 430 143 439 l 164 452 m 210 394 q 192 418 191 413 q 177 394 192 412 q 163 368 162 377 q 210 394 179 394 m 453 95 l 453 95 l 453 95 m 393 135 l 393 156 l 380 156 l 380 135 l 393 135 m 478 67 l 467 72 l 458 52 l 468 48 l 478 67 m 437 116 q 427 141 427 126 q 394 130 410 130 q 421 115 406 130 q 409 79 409 102 q 425 100 413 87 q 437 116 437 112 m 406 110 l 402 121 l 376 112 l 376 100 l 406 110 m 94 399 l 94 399 l 94 399 m 120 380 l 108 384 l 98 364 l 109 359 l 120 380 m 103 346 l 95 354 l 68 327 l 76 319 l 103 346 m 117 222 q 105 243 117 243 q 86 222 106 243 l 117 222 m 140 207 q 102 210 137 210 q 111 190 109 201 q 126 198 115 190 q 140 207 136 207 m 66 241 l 52 241 l 43 206 l 56 206 l 66 241 m 147 120 q 147 145 147 128 q 147 165 147 162 q 96 172 129 156 q 86 152 96 165 q 93 155 89 152 q 109 158 98 158 q 122 154 121 158 q 125 146 123 147 q 105 138 117 138 q 129 129 114 138 q 147 120 144 120 m 124 80 l 113 126 q 104 95 113 103 q 82 95 91 104 q 79 111 77 99 q 83 126 83 127 q 80 80 67 92 l 124 80 m 57 146 l 46 150 l 36 130 l 47 126 l 57 146 "},"$":{"x_min":42.875,"x_max":705,"ha":724,"o":"m 374 57 l 351 47 l 351 59 l 370 69 l 374 57 m 356 41 l 342 2 l 331 6 l 345 41 l 356 41 m 217 14 l 217 14 l 217 14 m 701 875 q 705 857 705 867 q 680 783 705 831 q 644 716 662 750 l 608 716 q 605 733 605 720 q 605 753 605 752 q 614 764 610 757 q 622 775 618 771 q 610 815 614 783 q 598 868 610 850 q 537 915 582 899 q 512 886 518 908 q 479 748 496 817 q 429 600 455 644 q 572 395 572 466 q 570 384 572 389 q 577 371 559 371 q 589 375 590 371 q 585 387 585 393 q 598 307 598 352 q 596 250 598 258 q 550 205 587 214 q 554 194 546 202 q 571 206 558 198 q 588 218 584 214 q 528 128 540 141 q 430 76 491 87 q 442 93 431 78 q 461 118 452 109 q 449 126 457 122 q 437 134 442 130 q 488 211 448 154 q 520 283 516 251 q 558 272 540 263 l 552 348 q 500 299 538 331 l 486 287 q 510 280 492 280 q 456 211 492 263 q 427 309 457 221 q 430 328 425 316 q 435 346 435 341 q 433 355 435 350 q 427 343 432 354 q 413 339 425 339 q 393 351 403 339 q 380 364 383 364 l 353 283 q 346 307 353 300 q 328 289 343 299 q 310 271 313 279 l 321 259 q 329 283 329 265 q 338 267 329 278 q 344 268 344 270 q 325 254 344 263 q 334 222 334 242 q 321 157 334 199 q 309 107 309 115 q 280 98 289 107 q 271 112 280 101 q 262 134 262 123 q 296 224 262 162 q 323 336 301 248 q 342 415 342 403 q 328 438 342 423 q 315 469 315 452 q 319 488 315 477 q 319 619 319 569 q 323 672 319 654 q 326 686 326 688 q 315 734 322 703 q 289 763 306 741 q 277 736 277 750 q 285 712 277 725 q 293 697 294 699 q 297 586 297 660 q 300 476 297 512 q 226 576 266 489 q 190 699 190 657 q 204 779 190 746 q 251 859 211 797 l 274 739 q 292 867 301 802 q 282 836 278 859 q 262 872 281 833 q 301 898 287 898 q 293 878 301 878 l 306 867 q 312 907 312 873 q 330 899 322 907 q 326 921 339 908 q 373 938 343 921 q 377 915 364 928 q 436 951 389 938 q 516 986 493 966 q 514 964 506 975 q 544 986 536 986 q 541 953 541 977 q 616 928 578 941 q 701 875 668 908 m 485 312 l 463 312 l 463 326 l 485 326 l 485 312 m 524 146 q 516 131 524 142 q 509 116 509 119 l 477 116 q 524 146 489 128 m 426 122 q 422 98 427 119 q 418 65 418 76 q 420 51 418 55 l 403 66 q 398 49 405 59 q 391 36 391 38 q 405 32 391 32 q 366 13 385 13 q 426 122 388 47 m 294 52 q 282 38 292 49 q 284 57 286 43 q 280 89 280 81 q 295 70 290 84 q 294 52 300 58 m 104 100 l 91 100 l 81 138 l 95 138 l 104 100 m 673 792 l 661 796 l 651 775 l 662 771 l 673 792 m 495 938 l 490 950 l 471 941 l 471 929 l 495 938 m 469 913 q 434 924 452 924 q 401 905 421 924 q 377 875 383 888 q 360 883 369 883 q 347 828 360 865 q 334 783 334 792 q 360 716 334 767 q 403 652 387 661 q 469 913 428 738 m 449 693 l 449 723 l 434 723 l 434 693 l 449 693 m 264 760 l 253 764 l 242 743 l 254 739 l 264 760 m 256 728 l 245 732 l 227 695 l 238 690 l 256 728 m 479 507 q 455 444 471 483 q 468 460 463 451 q 486 478 486 462 q 482 495 486 485 q 479 507 479 506 m 505 429 l 505 450 l 492 450 l 492 429 l 505 429 m 408 541 l 399 549 l 372 521 l 379 513 l 408 541 m 480 414 l 471 442 l 459 442 l 469 410 l 480 414 m 512 379 l 512 379 l 512 379 m 240 671 l 229 676 l 211 640 l 222 634 l 240 671 m 456 389 l 456 426 l 443 426 l 443 389 l 456 389 m 546 214 q 543 232 546 219 q 540 250 540 246 l 518 229 q 546 214 545 229 m 541 172 l 541 209 q 518 211 531 213 q 494 207 505 209 q 534 198 526 207 q 505 183 518 183 q 523 177 510 183 q 541 172 537 172 m 366 330 l 362 341 l 335 332 l 335 321 l 366 330 m 502 170 l 498 181 l 479 172 l 479 160 l 502 170 m 457 143 l 457 143 l 457 143 m 111 170 l 82 189 l 75 179 l 103 160 l 111 170 m 317 -2 q 304 19 304 2 q 312 43 304 32 q 296 10 307 30 q 287 11 293 10 q 269 11 281 11 q 258 43 258 11 q 267 114 258 76 q 240 50 257 93 l 219 50 q 146 117 162 75 q 137 215 137 143 q 121 283 137 260 q 54 182 54 191 q 59 179 54 179 q 64 171 64 179 q 49 114 64 157 q 43 135 42 122 q 71 81 43 104 q 119 41 113 50 q 117 50 113 47 q 127 51 119 51 q 171 11 131 28 q 219 -10 216 -6 q 225 -17 219 -12 q 230 -33 230 -21 q 213 -78 230 -43 q 190 -133 194 -117 l 236 -133 q 262 -51 241 -124 q 304 0 275 0 q 317 -2 310 0 "},"∫":{"x_min":0,"x_max":0,"ha":1389},"\\":{"x_min":0,"x_max":0,"ha":1389},"Ì":{"x_min":42,"x_max":837.203125,"ha":839,"o":"m 130 195 l 113 195 l 113 206 l 130 206 l 130 195 m 837 931 q 758 831 797 899 q 707 696 718 760 q 663 428 685 562 q 585 209 619 209 q 576 206 577 209 q 574 204 576 204 q 576 196 571 201 q 583 181 583 189 q 543 126 583 166 q 502 88 512 95 q 507 98 502 90 q 513 114 513 105 q 491 173 513 131 q 500 194 500 181 q 491 184 500 184 q 483 265 483 184 q 483 394 483 372 q 481 384 482 393 q 481 58 481 273 q 412 18 457 40 q 357 -4 368 -4 q 282 -4 349 -4 q 207 -4 215 -4 q 100 39 159 -4 q 42 122 42 83 q 81 191 42 146 q 150 235 121 235 q 174 197 174 235 q 170 157 174 189 q 207 76 198 90 q 274 38 232 38 q 404 139 353 38 q 462 332 441 212 q 477 452 469 392 q 483 439 477 449 q 482 462 491 462 q 475 459 479 462 q 555 660 511 586 q 716 848 608 749 q 566 834 623 834 q 522 852 559 834 q 478 871 485 871 q 452 858 464 871 q 443 872 448 864 l 432 885 q 388 834 416 878 q 383 846 389 840 q 350 806 367 826 q 328 744 328 777 q 363 671 328 703 q 398 627 398 639 q 362 574 398 599 q 318 554 333 554 q 265 605 285 554 q 252 671 252 642 q 278 772 252 720 q 341 837 306 827 q 322 842 336 842 q 381 903 341 863 q 454 940 385 906 q 429 895 447 922 l 440 884 q 466 919 455 891 q 488 927 473 920 l 488 943 q 461 952 480 951 q 489 959 470 952 q 516 967 507 967 q 534 961 525 967 q 542 970 541 965 q 547 955 542 961 q 576 968 560 968 q 600 955 584 968 q 624 942 616 942 q 667 939 632 942 q 709 936 702 936 q 750 952 717 936 q 792 968 784 968 q 837 953 808 968 l 837 931 m 621 910 l 617 919 l 603 911 l 603 902 l 621 910 m 729 801 l 726 810 l 711 802 l 711 793 l 729 801 m 627 886 q 598 891 610 903 l 585 891 q 610 889 607 891 q 627 886 615 886 m 541 905 l 541 935 l 530 935 l 530 905 l 541 905 m 515 903 l 506 903 l 497 881 l 507 877 l 515 903 m 400 866 l 393 873 l 377 858 l 383 850 l 400 866 m 354 826 l 351 836 l 330 828 l 330 819 l 354 826 m 309 770 l 309 770 l 309 770 m 310 783 l 305 791 l 282 777 l 288 767 l 310 783 m 311 682 l 303 700 l 294 696 l 302 682 l 311 682 m 321 628 l 321 639 l 298 639 l 298 628 l 321 628 m 490 402 l 490 426 l 479 426 l 479 402 l 490 402 m 547 209 q 532 201 547 204 q 537 188 532 198 q 542 174 542 177 q 546 192 542 179 q 547 209 550 202 "},"µ":{"x_min":0,"x_max":0,"ha":1389},"Ç":{"x_min":39,"x_max":797.453125,"ha":782,"o":"m 797 149 q 497 -10 666 11 l 466 -46 q 557 -146 557 -63 q 469 -266 557 -219 q 262 -303 400 -303 l 271 -249 q 414 -166 414 -249 q 340 -106 414 -106 q 421 -17 398 -48 q 147 79 251 -17 q 39 346 39 179 q 112 647 39 502 q 311 880 185 791 q 550 967 433 967 q 709 910 647 967 q 773 754 773 850 q 705 551 773 641 q 522 452 632 452 q 440 475 473 452 q 402 549 402 502 q 430 617 402 585 q 490 577 452 577 q 599 656 554 577 q 638 793 638 724 q 616 877 638 844 q 542 916 590 916 q 384 810 464 916 q 288 635 325 731 q 240 400 240 511 q 314 173 240 265 q 525 76 393 76 q 797 227 666 76 l 797 149 "},"-":{"x_min":50.03125,"x_max":403.921875,"ha":455,"o":"m 403 350 q 303 214 363 214 q 284 214 285 214 q 263 238 273 226 q 258 216 250 224 q 201 216 242 216 q 107 216 146 216 q 98 317 107 280 q 139 339 108 326 q 170 351 165 351 q 188 342 180 351 q 207 334 196 334 q 224 342 218 334 q 233 350 230 350 q 255 262 233 350 q 260 305 260 278 q 260 350 260 340 q 313 354 276 350 q 359 359 351 359 q 376 350 372 359 q 384 334 384 334 q 403 350 399 350 m 88 208 q 50 192 74 192 q 88 295 64 231 l 88 208 m 311 272 l 311 302 l 297 302 l 297 272 l 311 272 m 173 288 l 164 325 l 150 325 l 160 288 l 173 288 m 141 299 l 129 303 l 119 282 l 130 278 l 141 299 "},"Q":{"x_min":27,"x_max":894,"ha":882,"o":"m 661 56 l 649 56 l 649 85 l 661 85 l 661 56 m 354 67 l 335 58 l 335 68 l 350 75 l 354 67 m 219 135 q 207 120 217 130 q 199 93 199 113 q 190 131 195 102 q 175 147 188 145 q 205 153 205 147 q 194 141 205 151 l 205 130 q 219 135 213 135 m 254 64 l 254 64 l 254 64 m 173 138 q 172 112 185 125 l 157 128 q 173 138 167 138 m 100 111 q 97 121 96 115 q 97 93 97 93 q 67 112 80 108 q 100 111 65 111 m 891 226 q 894 206 894 217 q 802 64 894 141 q 655 -9 715 -9 q 573 17 608 -9 q 528 66 555 31 q 496 93 509 93 q 462 71 489 93 q 415 37 428 44 q 312 -8 348 0 q 222 -15 283 -8 q 209 -8 213 -8 q 205 31 209 4 q 201 82 201 63 l 190 93 l 181 84 q 192 79 187 79 q 199 -8 192 35 q 171 -2 192 -2 l 151 17 q 97 70 97 56 q 109 61 97 61 q 144 77 128 61 l 128 93 q 112 82 116 82 q 110 131 120 97 q 133 118 110 127 q 177 149 139 123 q 196 182 199 164 q 168 165 188 179 q 141 151 148 151 q 132 149 131 151 q 136 143 136 145 q 138 153 131 147 q 116 163 128 163 q 123 145 111 157 q 89 183 107 155 q 63 208 73 208 q 50 205 55 208 q 42 203 44 203 q 57 214 46 206 q 72 226 68 223 q 84 213 72 213 l 97 201 q 94 223 99 208 q 88 251 88 244 q 104 235 104 251 l 87 228 q 100 248 100 235 q 87 284 100 262 q 74 306 74 305 q 86 325 76 313 q 58 354 82 342 q 60 322 49 344 q 43 330 48 330 q 62 468 58 468 q 66 460 63 465 l 78 449 q 118 483 88 452 q 86 487 114 487 q 76 487 78 487 q 76 484 75 486 q 83 480 79 482 q 82 537 83 536 q 102 525 94 525 q 121 512 109 525 q 118 535 132 522 q 142 518 124 535 q 157 523 152 518 l 157 541 q 153 552 157 550 q 140 561 146 556 q 87 565 127 565 q 119 637 103 601 q 169 688 143 688 q 150 693 165 693 q 171 704 161 704 q 172 709 174 706 q 169 722 169 714 q 213 790 169 733 q 286 871 257 848 q 334 885 301 885 q 308 897 323 897 q 348 927 310 897 q 407 958 386 958 q 417 954 416 958 q 420 945 418 946 q 431 963 422 951 l 512 963 q 291 657 369 833 q 220 334 220 495 q 344 112 220 112 l 420 112 q 443 124 429 112 q 467 147 462 143 q 406 215 449 171 q 411 231 404 223 q 407 232 422 232 q 397 226 399 232 q 387 221 395 220 l 335 221 q 380 278 339 247 q 458 308 422 308 q 512 293 492 308 q 572 245 567 248 q 727 495 665 348 q 792 773 792 647 q 777 861 792 822 q 715 913 756 913 q 597 798 649 913 q 557 663 557 709 q 620 603 557 603 l 620 567 q 540 500 620 543 q 460 541 488 500 q 436 629 436 576 q 443 640 436 639 q 455 642 453 640 q 437 647 451 647 q 498 819 437 729 q 644 957 559 909 q 632 942 639 942 q 659 963 654 944 q 679 964 668 958 q 692 961 681 964 q 709 958 702 958 q 720 961 717 958 q 731 964 724 964 q 822 877 796 964 q 837 767 837 829 q 822 616 837 684 q 758 438 802 534 q 669 295 737 396 q 608 198 608 205 q 656 136 608 170 q 719 105 700 105 q 891 226 792 105 m 563 203 q 520 189 547 198 l 520 213 q 547 220 540 213 q 563 203 563 205 m 177 554 l 169 537 l 160 541 l 168 557 l 177 554 m 185 484 l 185 484 l 185 484 m 151 412 l 147 402 l 126 410 l 126 419 l 151 412 m 705 940 l 705 957 l 694 957 l 694 940 l 705 940 m 661 889 l 652 907 l 643 903 l 651 889 l 661 889 m 273 775 l 273 811 l 262 811 l 262 775 l 273 775 m 286 745 l 286 745 l 286 745 m 271 754 l 271 754 l 271 754 m 283 721 q 268 732 267 721 q 251 700 268 713 q 267 662 268 692 q 283 721 267 675 m 222 596 l 222 613 l 211 613 l 211 596 l 222 596 m 153 628 l 153 645 l 142 645 l 142 628 l 153 628 m 462 285 l 456 291 l 441 276 l 447 269 l 462 285 m 497 179 l 497 179 l 497 179 m 111 504 l 111 515 l 94 515 l 94 504 l 111 504 m 143 436 l 143 436 l 143 436 m 69 499 l 60 499 l 52 477 l 61 474 l 69 499 m 109 414 q 92 418 108 414 q 62 423 76 423 q 71 373 62 391 q 70 404 67 384 q 99 394 76 391 q 79 412 79 414 q 93 413 83 412 q 109 414 104 414 m 203 259 l 196 301 l 185 301 l 192 259 l 203 259 m 197 228 l 197 251 l 185 251 l 185 228 l 197 228 m 197 183 l 197 213 l 186 213 l 186 183 l 197 183 m 38 266 l 38 359 l 27 359 l 27 266 l 38 266 m 38 209 l 38 257 l 27 257 l 27 209 l 38 209 "},"M":{"x_min":13.1875,"x_max":1386.9375,"ha":1390,"o":"m 1279 96 l 1267 96 l 1267 113 l 1279 113 l 1279 96 m 1223 47 l 1223 47 l 1223 47 m 1170 83 l 1159 83 l 1152 120 l 1164 120 l 1170 83 m 1151 100 l 1148 70 l 1137 70 l 1140 100 l 1151 100 m 1146 26 l 1124 26 q 1128 47 1124 36 q 1133 60 1133 58 q 1146 26 1133 28 m 1056 109 l 1044 109 l 1044 132 l 1056 132 l 1056 109 m 564 58 l 553 58 l 553 88 l 564 88 l 564 58 m 575 44 l 575 44 l 575 44 m 109 68 l 91 60 l 91 70 l 106 78 l 109 68 m 1199 854 q 1165 797 1185 832 q 1170 823 1165 802 q 1175 854 1175 844 l 1199 854 m 1100 850 l 1089 850 l 1089 880 l 1100 880 l 1100 850 m 1144 811 l 1122 789 l 1115 796 l 1137 818 l 1144 811 m 1157 709 l 1148 709 l 1140 724 l 1149 727 l 1157 709 m 1167 789 q 1127 702 1157 764 q 1117 729 1109 720 q 1094 718 1096 727 q 1073 710 1093 710 q 1094 752 1085 724 q 1100 740 1094 749 q 1128 765 1111 765 q 1130 763 1130 765 q 1138 746 1131 758 q 1167 789 1150 781 m 1157 672 l 1149 655 l 1140 660 l 1148 676 l 1157 672 m 1123 637 q 1092 658 1114 643 q 1099 672 1092 663 q 1110 681 1105 681 q 1123 637 1110 646 m 1179 618 q 1176 602 1179 616 q 1173 582 1173 588 q 1166 588 1169 582 q 1158 599 1160 598 q 1142 596 1148 596 q 1179 618 1169 608 m 1100 619 l 1089 619 l 1089 643 l 1100 643 l 1100 619 m 1136 587 l 1136 587 l 1136 587 m 1073 643 l 1054 636 l 1054 645 l 1069 653 l 1073 643 m 1055 666 l 1047 649 l 1038 654 l 1046 670 l 1055 666 m 1382 229 q 1386 202 1386 216 q 1188 7 1386 108 q 1185 31 1199 17 q 1180 1 1180 0 q 1158 11 1170 1 q 1154 -6 1154 7 q 1133 6 1145 -6 q 1128 -7 1128 0 q 1116 -3 1124 -2 q 1094 -7 1100 -7 q 1015 32 1070 -7 q 1033 150 1018 68 q 1047 232 1047 225 q 1040 232 1047 235 q 1037 229 1032 229 q 1044 237 1047 229 q 1038 250 1041 243 q 1031 275 1035 262 q 1034 302 1027 290 l 1018 318 q 1012 302 1011 312 q 1004 338 1012 327 q 996 350 996 348 q 1023 424 996 358 q 1063 529 1055 504 q 1060 514 1063 526 q 1063 503 1059 507 q 1080 527 1068 512 l 1080 581 q 1047 570 1069 579 q 1066 559 1059 559 q 1016 542 1042 558 q 1053 603 1025 566 q 1034 609 1046 609 q 1022 614 1028 614 q 1055 682 1028 637 q 1077 758 1060 718 q 1123 826 1099 810 q 1118 837 1120 830 q 1113 849 1116 845 q 1097 830 1097 849 q 1091 839 1095 830 q 1079 848 1087 848 q 1053 839 1062 848 q 1074 816 1058 831 q 1075 810 1077 816 q 1063 804 1074 804 q 1047 793 1056 804 q 1066 789 1051 789 q 1011 708 1037 759 q 996 765 1014 733 q 1017 759 1003 759 l 1028 769 q 1009 773 1017 779 q 1041 783 1019 775 q 1044 792 1041 781 q 1037 797 1047 797 q 1026 794 1028 797 q 1023 792 1025 792 l 1023 822 q 1026 829 1025 822 q 1037 836 1028 836 q 1046 832 1046 836 q 1047 829 1046 829 q 1077 883 1050 860 q 1107 912 1105 908 q 1120 893 1110 906 q 1134 894 1120 894 q 1144 886 1128 886 q 1155 902 1146 891 q 1111 920 1133 915 q 1119 932 1115 926 q 1133 938 1123 938 q 1176 957 1132 938 q 1229 976 1221 976 l 1308 976 l 1308 952 q 1301 933 1308 944 q 1290 915 1291 918 q 1250 813 1274 865 q 1238 756 1238 788 q 1232 755 1238 752 q 1223 759 1224 759 q 1205 752 1214 759 q 1188 741 1191 743 q 1190 759 1197 751 q 1161 737 1169 749 q 1190 721 1178 721 q 1209 731 1199 721 q 1227 746 1220 744 q 1226 731 1230 741 q 1217 721 1222 721 l 1207 711 q 1213 699 1207 708 q 1187 640 1213 650 q 1206 637 1191 637 q 1186 579 1196 608 q 1179 529 1178 556 q 1171 548 1179 543 q 1161 535 1168 542 q 1154 527 1154 529 q 1171 516 1154 522 q 1155 494 1171 508 q 1163 463 1163 489 q 1150 361 1163 429 q 1137 298 1137 294 q 1149 195 1137 246 q 1196 108 1165 126 q 1201 120 1201 113 q 1217 108 1205 120 q 1228 114 1219 108 q 1244 120 1236 120 q 1318 159 1272 120 q 1382 229 1359 193 m 978 699 l 971 693 l 956 709 l 962 715 l 978 699 m 1117 603 q 1098 590 1111 599 q 1111 585 1104 585 q 1095 558 1094 569 q 1088 593 1095 578 q 1041 583 1067 583 q 1068 618 1049 587 q 1082 612 1068 612 q 1089 609 1088 612 q 1087 606 1089 608 q 1086 602 1086 603 q 1092 599 1086 599 q 1108 603 1099 599 q 1117 603 1113 606 m 699 958 l 688 958 l 688 975 l 699 975 l 699 958 m 762 896 l 754 880 l 745 884 l 753 900 l 762 896 m 718 921 q 698 938 712 926 q 689 930 694 938 q 678 919 684 922 q 691 938 680 926 q 706 956 703 950 q 718 921 706 933 m 673 945 l 663 945 l 656 966 l 664 970 l 673 945 m 757 852 q 748 853 752 856 q 744 845 744 850 q 746 856 744 848 q 749 867 749 865 q 757 852 750 863 m 954 645 l 943 645 l 943 668 l 954 668 l 954 645 m 673 919 l 662 919 l 662 937 l 673 937 l 673 919 m 668 947 q 662 963 668 957 q 656 925 656 951 q 638 928 645 935 q 648 912 655 912 q 635 924 648 912 q 630 902 629 918 q 636 929 630 909 q 643 959 642 949 q 648 938 643 943 q 661 969 651 947 q 668 947 667 962 m 712 869 l 700 869 l 700 886 l 712 886 l 712 869 m 680 889 l 680 889 l 680 889 m 699 850 l 688 850 l 688 867 l 699 867 l 699 850 m 696 836 l 696 836 l 696 836 m 927 603 l 919 599 l 911 617 l 920 617 l 927 603 m 671 861 l 667 852 l 651 860 l 655 870 l 671 861 m 656 881 q 645 880 652 884 q 630 881 637 877 l 630 861 q 633 886 626 886 q 647 888 638 891 q 656 881 656 886 m 689 821 l 671 805 l 683 819 q 682 835 668 835 q 689 821 685 821 m 937 555 q 919 563 925 563 q 935 583 935 578 q 936 569 935 580 q 937 555 937 559 m 617 877 q 589 888 617 888 q 596 900 589 891 q 603 912 603 909 q 600 902 606 908 q 617 877 616 887 m 750 735 l 739 735 l 739 765 l 750 765 l 750 735 m 718 754 l 706 754 l 700 784 l 711 784 l 718 754 m 609 863 l 598 863 l 598 880 l 609 880 l 609 863 m 661 817 q 655 806 661 812 q 655 826 654 806 q 661 817 655 811 m 683 771 l 683 771 l 683 771 m 897 557 l 897 557 l 897 557 m 736 709 l 727 709 l 719 724 l 728 727 l 736 709 m 750 683 l 739 683 l 739 707 l 750 707 l 750 683 m 606 840 q 577 818 584 818 l 577 861 q 606 840 589 840 m 660 754 l 649 754 l 649 777 l 660 777 l 660 754 m 685 751 l 677 727 l 668 730 l 676 751 l 685 751 m 625 767 l 617 778 l 601 766 q 622 804 622 808 q 624 759 624 801 q 625 767 625 761 m 571 805 l 559 805 l 559 829 l 571 829 l 571 805 m 558 805 l 547 805 l 547 822 l 558 822 l 558 805 m 732 637 q 697 638 721 648 q 732 662 701 646 l 732 637 m 631 731 l 614 731 l 614 743 l 631 743 l 631 731 m 647 709 l 638 703 l 624 722 l 631 729 l 647 709 m 668 669 q 651 685 653 685 q 668 698 666 685 l 668 669 m 694 651 q 680 634 680 651 q 675 644 680 639 q 666 644 670 648 q 678 663 666 649 l 687 663 q 684 672 689 666 q 681 685 680 679 q 694 675 681 675 l 694 651 m 569 777 l 551 769 l 551 779 l 565 787 l 569 777 m 609 715 l 598 715 l 598 752 l 609 752 l 609 715 m 732 593 q 718 594 729 596 q 705 596 708 593 q 708 595 707 595 q 726 612 707 595 q 732 593 732 599 m 568 744 l 551 744 l 551 755 l 568 755 l 568 744 m 754 557 q 738 552 753 557 q 721 552 725 547 q 731 583 731 561 q 738 567 731 574 q 744 583 744 574 q 754 557 744 566 m 647 626 l 637 626 l 630 640 l 639 644 l 647 626 m 660 601 l 649 601 l 649 618 l 660 618 l 660 601 m 622 634 l 622 634 l 622 634 m 545 696 l 534 696 l 534 713 l 545 713 l 545 696 m 536 725 q 525 727 530 727 q 499 695 509 727 l 499 719 q 516 737 509 726 q 522 746 519 746 q 536 725 524 725 m 650 548 q 628 523 650 545 q 622 546 628 545 q 650 548 645 546 m 699 391 l 671 391 q 678 407 678 402 q 699 391 686 399 m 516 605 q 504 574 516 574 l 490 581 q 485 558 490 562 q 494 542 487 553 q 501 548 501 542 q 454 376 477 462 q 396 217 423 267 l 383 206 q 396 202 390 202 q 144 -7 284 -7 q 58 20 97 -7 q 13 98 13 51 q 48 171 13 127 q 112 216 84 216 q 118 209 120 216 q 125 203 116 203 q 135 209 133 203 q 140 216 137 216 q 150 150 144 172 q 189 75 163 107 q 360 238 294 93 q 436 482 385 294 q 475 631 475 623 q 491 623 486 623 q 495 587 485 617 l 516 605 m 1291 951 l 1291 969 l 1280 969 l 1280 951 l 1291 951 m 1205 929 l 1205 940 l 1182 940 l 1182 929 l 1205 929 m 1190 901 l 1190 924 l 1179 924 l 1179 901 l 1190 901 m 1181 924 l 1179 933 l 1156 926 l 1156 917 l 1181 924 m 1215 918 l 1205 918 l 1188 863 l 1197 863 l 1215 918 m 1196 682 l 1185 682 l 1179 652 l 1189 652 l 1196 682 m 1155 690 q 1140 702 1149 696 q 1126 689 1139 702 q 1120 702 1121 694 q 1118 682 1117 694 q 1121 663 1120 665 q 1128 679 1121 670 q 1140 695 1138 691 q 1155 690 1146 690 m 1082 679 q 1068 688 1076 679 q 1065 674 1068 685 q 1063 660 1063 663 q 1070 671 1063 664 q 1082 679 1077 679 m 1005 696 l 998 732 l 986 732 l 993 696 l 1005 696 m 1112 527 l 1105 554 l 1096 554 l 1102 527 l 1112 527 m 978 658 l 964 690 l 956 685 l 969 658 l 978 658 m 1092 541 l 1089 551 l 1074 542 l 1074 533 l 1092 541 m 1024 599 l 1013 599 l 1006 569 l 1016 569 l 1024 599 m 732 855 q 725 869 732 863 q 718 877 718 875 l 718 852 q 723 858 718 856 q 732 855 727 860 m 966 607 l 966 637 l 956 637 l 956 607 l 966 607 m 954 607 l 954 637 l 943 637 l 943 607 l 954 607 m 1146 443 q 1119 458 1134 443 q 1122 450 1119 461 q 1114 447 1123 447 q 1094 433 1107 447 q 1079 435 1086 442 q 1114 440 1097 433 q 1120 437 1119 440 q 1117 433 1120 436 q 1115 429 1115 430 q 1120 428 1115 428 q 1137 435 1130 428 q 1146 443 1144 443 m 1138 424 l 1129 428 l 1115 398 l 1123 395 l 1138 424 m 1081 447 l 1081 465 l 1070 465 l 1070 447 l 1081 447 m 724 825 l 715 830 l 688 792 l 695 786 l 724 825 m 1028 485 l 1003 493 l 1003 484 l 1025 476 l 1028 485 m 1074 415 l 1074 445 l 1063 445 l 1063 415 l 1074 415 m 1047 516 q 1031 542 1047 525 q 1015 533 1025 536 q 1034 501 1022 523 q 1025 497 1028 495 q 1003 532 1003 520 q 1005 547 1003 541 q 1007 555 1007 553 q 996 507 996 537 q 1009 453 996 469 l 1001 453 q 993 436 993 445 q 983 417 993 428 q 998 388 998 402 q 1027 461 1003 402 q 1047 516 1047 507 m 915 556 l 915 579 l 904 579 l 904 556 l 915 556 m 1107 386 l 1097 389 l 1089 373 l 1098 369 l 1107 386 m 642 852 q 635 836 642 842 q 630 852 630 842 q 631 834 630 850 q 628 822 633 825 q 642 852 643 834 m 922 548 q 897 535 922 535 q 892 534 892 535 q 895 529 892 532 q 899 525 899 526 q 893 523 898 523 q 877 526 887 523 q 868 526 872 528 q 886 518 875 526 q 899 511 897 511 q 908 523 899 523 q 909 485 913 514 q 915 516 912 494 q 922 548 919 539 m 1081 319 l 1081 336 l 1070 336 l 1070 319 l 1081 319 m 1055 347 l 1046 350 l 1038 333 l 1047 330 l 1055 347 m 750 620 l 750 655 l 739 655 l 739 620 l 750 620 m 877 499 l 877 516 l 866 516 l 866 499 l 877 499 m 1111 255 l 1111 255 l 1111 255 m 552 787 q 540 806 539 800 q 524 785 540 800 l 540 797 l 552 787 m 864 402 l 864 426 l 853 426 l 853 402 l 864 402 m 694 580 l 677 572 l 687 542 q 690 558 687 543 q 694 580 694 572 m 605 638 l 605 663 q 591 644 604 660 q 583 618 583 631 q 591 643 579 621 q 605 638 597 638 m 529 699 l 529 711 l 512 711 l 512 699 l 529 699 m 840 402 q 824 393 834 402 l 839 375 q 840 402 853 389 m 666 537 l 666 579 l 655 579 l 655 537 l 666 537 m 746 455 q 718 478 736 460 q 713 449 716 465 q 725 459 713 459 q 739 457 733 459 q 746 455 745 455 m 1011 235 q 1006 229 1011 229 q 994 275 1004 235 q 986 318 986 303 q 969 257 984 303 q 958 209 958 217 q 973 138 958 185 q 999 75 986 96 q 1008 137 1008 105 q 1010 196 1008 183 q 1011 235 1001 207 m 838 345 l 831 351 l 815 336 l 821 329 l 838 345 m 746 445 q 731 442 744 445 q 716 439 719 439 q 726 420 716 432 q 746 445 726 423 m 522 626 q 514 675 522 648 q 507 650 514 655 q 501 662 501 655 q 494 650 501 657 q 488 679 492 655 l 488 645 q 522 626 524 626 m 673 441 l 673 465 l 662 465 l 662 441 l 673 441 m 702 430 l 686 436 l 701 429 l 686 440 q 672 433 677 440 q 664 426 666 426 q 702 430 670 419 m 639 447 l 633 455 l 618 439 l 624 432 l 639 447 m 897 491 q 867 446 884 454 q 887 479 870 463 q 883 478 885 478 q 857 497 877 478 q 874 475 857 492 q 857 465 868 468 q 844 462 851 463 q 821 373 838 430 q 721 190 764 221 l 721 207 q 732 270 721 215 q 743 350 743 324 q 739 378 743 369 q 748 429 748 392 q 748 455 751 436 q 745 485 745 480 q 739 472 751 472 q 735 480 738 473 q 725 485 734 485 q 699 459 712 485 q 683 475 694 463 q 686 491 692 485 q 682 476 683 488 q 677 461 681 464 q 696 456 691 461 q 656 427 676 435 q 650 457 650 440 q 648 478 650 475 q 638 487 646 483 l 665 487 q 674 510 665 501 q 683 504 676 507 q 693 497 690 501 q 721 512 701 512 l 721 541 q 700 523 717 541 l 689 532 q 721 563 699 544 q 702 582 718 567 q 692 596 692 589 q 686 580 692 587 q 680 596 680 587 q 674 574 680 580 l 664 585 q 669 599 664 591 q 649 571 656 578 q 625 554 636 557 q 643 606 643 579 q 615 587 631 583 q 615 563 615 566 q 597 529 610 529 q 581 537 581 529 q 594 548 585 541 q 606 559 603 556 q 581 577 599 559 q 593 578 585 581 q 606 576 605 576 l 596 606 q 584 585 594 593 q 569 571 570 575 q 572 561 569 568 q 577 552 576 553 q 560 424 560 506 q 560 168 560 329 q 540 91 551 147 q 531 33 530 39 l 531 -6 l 600 -6 q 606 -4 606 -7 q 605 0 606 -2 q 604 3 604 2 q 610 6 604 6 q 616 4 615 6 q 613 0 616 2 q 611 -4 611 -3 q 616 -7 611 -7 q 740 115 654 -7 q 824 267 824 233 q 815 292 815 271 q 814 284 817 290 q 820 280 811 280 q 852 339 830 280 q 887 432 870 385 q 880 434 883 432 q 879 437 877 436 q 887 440 880 440 q 900 461 898 440 q 897 491 902 480 m 481 467 l 472 474 l 458 451 l 466 445 l 481 467 m 603 154 l 603 176 l 591 176 l 591 154 l 603 154 m 367 179 l 367 203 l 355 203 l 355 179 l 367 179 "},"C":{"x_min":4.796875,"x_max":794.5,"ha":782,"o":"m 664 563 l 633 534 l 627 540 l 656 570 l 664 563 m 591 585 l 582 567 l 573 571 l 581 589 l 591 585 m 616 529 l 612 520 l 581 538 l 585 548 l 616 529 m 582 528 l 582 528 l 582 528 m 558 535 l 558 535 l 558 535 m 562 579 q 548 523 548 536 q 508 563 508 535 q 510 573 504 563 q 521 588 515 583 q 527 541 521 562 q 549 557 549 546 q 536 573 549 565 q 546 580 536 578 q 562 579 557 584 m 498 554 l 490 529 l 480 532 l 488 554 l 498 554 m 435 496 q 390 538 416 511 q 404 552 391 540 q 414 569 414 560 q 411 581 414 574 q 427 538 427 566 q 435 496 427 507 m 761 147 l 761 147 l 761 147 m 738 126 l 738 126 l 738 126 m 730 141 l 715 109 l 706 113 l 721 143 l 730 141 m 153 572 l 153 572 l 153 572 m 209 513 l 185 513 l 185 525 l 209 525 l 209 513 m 177 502 l 177 502 l 177 502 m 193 465 l 193 465 l 193 465 m 137 537 q 106 529 117 537 q 87 509 96 519 q 83 525 87 512 q 79 540 79 537 q 119 554 93 544 q 127 548 120 552 q 137 537 133 544 m 558 73 l 558 73 l 558 73 m 133 501 l 125 475 l 115 479 l 123 501 l 133 501 m 197 402 l 197 402 l 197 402 m 563 25 l 559 15 l 537 23 l 537 33 l 563 25 m 147 419 l 147 419 l 147 419 m 107 445 l 107 445 l 107 445 m 139 408 l 131 382 l 122 386 l 130 408 l 139 408 m 110 431 l 91 408 l 82 414 l 101 437 l 110 431 m 48 459 l 48 459 l 48 459 m 456 50 l 456 50 l 456 50 m 46 476 l 25 460 l 19 469 l 40 485 l 46 476 m 147 318 l 135 318 l 135 349 l 147 349 l 147 318 m 90 375 l 90 375 l 90 375 m 320 140 l 320 140 l 320 140 m 31 405 l 31 405 l 31 405 m 66 391 l 42 368 l 36 375 l 59 397 l 66 391 m 425 -1 l 415 -1 l 408 21 l 417 25 l 425 -1 m 131 303 l 106 294 l 106 304 l 128 312 l 131 303 m 138 289 l 119 281 l 119 290 l 134 298 l 138 289 m 253 160 l 253 160 l 253 160 m 167 240 l 167 240 l 167 240 m 320 80 l 320 80 l 320 80 m 90 276 l 90 276 l 90 276 m 307 60 l 307 60 l 307 60 m 220 140 l 220 140 l 220 140 m 160 200 l 151 183 l 142 187 l 150 204 l 160 200 m 267 73 l 267 73 l 267 73 m 40 316 l 32 289 l 22 293 l 30 316 l 40 316 m 225 80 l 217 63 l 207 67 l 216 84 l 225 80 m 107 173 l 107 173 l 107 173 m 757 711 l 742 681 l 732 685 l 747 715 l 757 711 m 678 751 l 678 751 l 678 751 m 794 188 q 713 89 790 143 q 586 25 648 43 q 486 -3 526 -3 q 456 -6 479 -3 q 420 -9 433 -9 q 360 -11 396 -11 q 309 3 318 -5 q 274 5 297 0 q 243 11 248 11 q 227 18 235 11 q 211 25 219 25 q 56 183 123 25 q 4 366 4 305 q 19 417 4 391 q 62 482 23 424 l 56 455 q 59 457 57 457 q 62 455 60 457 q 65 454 64 454 q 78 491 70 454 q 64 502 80 502 q 53 506 51 502 q 53 523 55 517 q 32 505 34 511 q 26 492 29 495 q 107 695 70 695 q 142 681 129 695 q 183 692 156 684 q 150 704 173 698 q 111 717 124 710 q 148 780 125 751 q 202 841 149 780 q 282 907 250 897 q 307 933 295 919 q 339 954 328 954 q 352 950 349 954 q 357 947 355 947 q 359 954 359 950 q 379 966 359 958 q 389 966 384 966 q 427 993 422 966 q 445 1000 441 993 q 465 994 461 994 q 479 997 474 994 q 487 1000 485 1000 q 500 975 494 994 q 524 966 502 964 q 535 983 526 971 q 523 984 531 988 q 514 981 513 981 q 528 996 514 981 q 516 1004 522 1004 q 553 998 544 1003 q 562 994 562 994 q 571 1000 571 994 q 579 1007 571 1007 q 611 994 587 1007 q 645 981 636 981 q 698 944 658 981 q 688 932 693 939 q 687 922 683 925 q 672 924 680 922 q 663 944 660 928 l 663 951 q 660 952 663 954 q 645 948 654 948 q 629 956 633 948 q 618 981 623 968 q 616 963 616 978 q 625 941 616 954 q 637 917 635 925 q 633 919 633 919 q 628 891 643 906 q 667 861 649 870 q 695 844 687 849 q 683 843 692 844 q 666 842 674 842 l 662 825 q 695 792 682 816 q 711 754 695 779 q 735 778 714 762 q 722 799 732 785 q 731 791 725 799 q 744 780 737 784 q 754 807 746 789 q 719 822 750 808 q 688 831 700 831 l 723 827 q 729 828 725 824 q 742 838 735 834 q 655 889 714 857 q 679 888 656 888 q 708 904 691 888 q 668 911 698 904 q 690 907 687 911 q 711 934 704 934 q 715 932 713 934 q 732 902 715 924 q 749 869 749 879 q 742 857 749 862 q 760 853 745 853 q 762 822 757 845 q 768 784 768 793 q 751 704 768 766 q 735 635 735 643 q 735 631 735 633 q 638 523 661 523 q 599 505 628 523 q 559 489 570 487 q 541 482 553 489 q 522 476 529 476 q 504 479 515 476 q 493 479 496 482 q 483 502 502 489 q 472 485 482 496 q 459 489 468 483 q 450 499 450 494 l 463 532 q 450 534 459 535 q 437 531 436 531 q 463 555 461 556 q 458 564 463 562 q 447 564 455 565 q 438 563 439 563 q 443 585 438 579 q 414 595 435 586 q 385 555 403 582 l 389 582 q 403 591 390 579 q 384 596 398 596 q 388 608 384 599 q 392 621 392 618 q 422 599 397 613 q 431 596 427 598 q 441 605 441 598 q 437 613 441 609 q 495 607 467 598 q 471 560 495 598 q 502 585 491 565 q 519 608 514 606 q 616 729 542 619 q 624 752 616 740 q 635 768 633 764 q 633 756 636 764 q 631 747 631 749 q 644 742 631 740 q 658 737 646 742 q 681 733 670 733 q 653 772 669 747 q 635 790 643 790 q 629 788 633 790 q 633 815 631 802 q 649 839 635 829 q 632 848 649 848 q 612 890 634 848 q 555 967 587 938 q 476 954 502 954 q 418 920 459 941 q 376 868 405 903 l 359 894 q 362 849 346 878 q 311 784 338 842 q 281 701 292 742 q 260 714 274 704 q 270 686 254 709 q 223 685 243 695 q 264 666 237 679 q 241 609 256 647 q 217 603 222 609 q 212 589 215 596 q 206 594 214 589 q 183 597 197 599 q 203 576 203 578 q 186 583 198 576 q 163 590 174 590 q 180 555 169 579 q 194 564 183 562 q 223 571 215 567 q 225 538 225 557 q 219 447 225 507 q 212 363 212 382 q 182 363 211 363 q 178 368 182 368 q 172 357 172 368 q 175 343 172 351 q 215 349 201 343 q 237 267 236 262 l 237 241 q 339 137 270 205 q 425 94 372 108 q 505 73 465 84 q 559 90 527 90 l 579 84 q 670 128 603 84 q 746 183 708 156 q 785 230 780 206 q 774 199 785 206 q 784 193 777 196 q 794 188 791 191 m 143 631 l 133 627 l 122 661 l 132 661 l 143 631 m 721 894 l 721 894 l 721 894 m 611 957 l 602 961 l 593 944 l 602 940 l 611 957 m 630 938 l 621 941 l 613 924 l 622 919 l 630 938 m 738 764 l 738 764 l 738 764 m 690 772 l 660 802 l 653 795 l 682 766 l 690 772 m 698 758 l 698 758 l 698 758 m 724 745 l 714 748 l 706 731 l 715 727 l 724 745 m 724 714 l 724 714 l 724 714 m 465 962 l 465 986 l 454 986 l 454 962 l 465 962 m 702 721 l 698 730 l 682 722 l 682 712 l 702 721 m 695 700 l 691 710 l 676 702 l 676 693 l 695 700 m 730 665 l 723 674 l 679 641 l 685 632 l 730 665 m 425 957 l 416 962 l 401 930 l 410 926 l 425 957 m 396 927 l 396 927 l 396 927 m 665 658 l 665 658 l 665 658 m 366 944 l 366 944 l 366 944 m 611 676 l 611 700 l 599 700 l 599 676 l 611 676 m 372 915 l 363 934 l 353 931 l 361 915 l 372 915 m 649 625 q 637 687 631 650 q 609 645 609 670 q 616 627 609 637 q 623 616 623 618 q 649 625 631 616 m 675 589 l 675 589 l 675 589 m 592 665 l 592 665 l 592 665 m 602 647 q 577 640 595 647 l 577 622 q 602 647 602 643 m 336 898 l 310 904 q 320 898 319 904 q 315 889 322 892 q 336 898 319 881 m 616 600 l 612 610 l 590 602 l 590 592 l 616 600 m 626 588 q 602 585 620 588 q 617 569 617 585 q 626 588 631 583 m 309 847 l 309 847 l 309 847 m 309 824 l 309 824 l 309 824 m 290 850 q 260 874 278 856 l 260 844 q 290 850 260 850 m 310 786 l 307 796 l 292 788 l 292 778 l 310 786 m 233 835 l 233 860 l 221 860 l 221 835 l 233 835 m 459 598 l 459 598 l 459 598 m 418 623 l 410 642 l 401 638 l 409 623 l 418 623 m 280 786 l 268 786 l 260 756 l 272 756 l 280 786 m 260 731 l 260 731 l 260 731 m 219 786 l 210 792 l 189 759 l 197 753 l 219 786 m 174 798 l 174 798 l 174 798 m 220 751 l 220 751 l 220 751 m 197 741 l 197 741 l 197 741 m 174 751 l 174 751 l 174 751 m 200 689 l 200 727 l 189 727 l 189 689 l 200 689 m 244 658 l 244 658 l 244 658 m 223 652 l 223 652 l 223 652 m 167 671 l 167 671 l 167 671 m 219 632 l 210 635 l 201 618 l 211 614 l 219 632 m 183 628 l 183 628 l 183 628 m 172 606 l 156 623 l 149 616 l 165 600 l 172 606 "},"œ":{"x_min":0,"x_max":0,"ha":1389},"!":{"x_min":38,"x_max":439,"ha":449,"o":"m 161 37 l 142 17 l 133 26 l 153 45 l 161 37 m 439 868 q 417 796 439 816 q 425 725 419 789 q 347 549 388 612 q 333 544 346 548 q 305 485 333 529 q 260 425 278 441 q 232 311 232 349 q 240 288 232 292 q 220 259 232 275 q 181 332 187 310 q 176 394 176 350 q 195 515 176 459 q 251 649 223 582 q 258 634 251 640 q 267 672 266 655 q 269 705 269 684 q 269 745 269 731 q 276 713 267 721 q 286 720 280 717 q 293 727 292 723 l 293 810 q 276 773 276 795 q 255 894 276 797 q 394 961 366 961 q 439 868 439 961 m 346 582 l 335 561 l 325 566 l 334 586 l 346 582 m 167 63 q 147 52 154 52 q 144 73 142 56 q 147 99 147 98 q 167 63 149 85 m 371 829 l 371 829 l 371 829 m 395 787 l 395 816 l 381 816 l 381 787 l 395 787 m 351 855 q 328 835 328 855 l 328 810 q 345 835 341 822 q 351 855 348 845 m 393 771 l 385 779 l 365 760 l 373 751 l 393 771 m 350 692 l 350 794 l 329 794 q 311 724 324 770 q 323 717 316 721 q 335 710 331 713 l 320 692 l 350 692 m 362 643 l 362 688 l 348 688 l 348 643 l 362 643 m 328 680 q 314 688 321 680 q 307 702 307 696 q 299 618 307 647 q 328 680 305 640 m 299 587 l 299 616 l 285 616 l 285 587 l 299 587 m 258 593 l 245 593 l 236 540 l 250 540 l 258 593 m 280 128 q 249 121 272 135 q 234 42 249 90 q 184 48 216 42 q 197 82 191 60 q 212 115 204 103 l 224 102 q 220 60 220 94 q 240 104 222 84 q 198 119 228 113 q 158 132 168 125 q 99 178 136 151 q 58 73 82 104 l 58 5 q 77 1 62 5 q 96 -3 91 -3 q 92 39 96 17 q 89 68 89 61 q 115 147 89 96 q 112 68 129 99 q 123 -19 123 49 q 171 -12 136 -12 q 191 37 191 -12 l 208 37 q 208 10 205 26 q 206 -5 211 -1 q 280 128 232 32 m 52 13 l 52 42 l 38 42 l 38 13 l 52 13 "},"ç":{"x_min":9,"x_max":521.359375,"ha":507,"o":"m 521 149 q 309 1 399 30 l 268 -46 q 359 -146 359 -62 q 271 -266 359 -219 q 64 -303 202 -303 l 74 -249 q 216 -166 216 -249 q 142 -106 216 -106 q 226 -13 200 -47 q 211 -15 222 -15 q 66 41 123 -15 q 9 187 9 98 q 106 446 9 323 q 342 577 209 577 q 438 545 400 577 q 479 456 479 512 q 445 408 479 424 l 366 371 q 345 364 352 364 q 336 377 336 364 q 340 414 336 390 q 344 450 344 438 q 297 517 344 517 q 197 423 235 517 q 166 276 166 347 q 199 154 166 202 q 307 99 237 99 q 521 227 400 99 l 521 149 "},"È":{"x_min":40,"x_max":731.484375,"ha":724,"o":"m 340 665 l 317 643 l 310 650 l 333 671 l 340 665 m 731 226 q 624 64 731 135 q 447 4 534 4 q 433 0 441 4 q 426 -6 426 -2 l 395 -6 q 433 27 419 20 q 428 28 431 28 q 396 10 420 28 q 365 -6 372 -6 q 355 36 365 25 q 340 -7 351 20 q 345 23 345 4 q 335 60 345 31 q 320 105 323 96 q 363 85 338 96 q 359 63 363 84 q 361 38 357 48 q 370 80 370 48 q 446 75 398 75 q 731 226 606 75 m 403 37 l 394 37 l 386 52 l 395 56 l 403 37 m 324 -14 q 302 -2 309 -2 q 289 -4 294 -2 q 282 -6 284 -6 q 282 30 282 -6 l 247 30 q 245 18 243 26 q 248 5 248 5 l 218 5 q 221 36 224 29 q 208 13 202 18 q 187 51 195 25 l 187 118 q 178 86 186 112 q 170 46 170 61 q 172 30 170 37 q 137 59 161 39 q 40 239 40 93 q 267 511 40 442 q 271 479 267 501 q 275 448 275 456 q 253 382 275 429 q 231 280 231 335 q 273 124 231 241 q 285 140 284 124 q 269 49 285 82 q 270 87 270 40 q 255 70 260 84 q 242 40 246 46 q 282 35 256 40 l 305 118 q 305 58 305 88 q 324 15 309 25 l 324 -14 m 271 -1 l 260 -1 l 260 23 l 271 23 l 271 -1 m 221 44 l 209 44 l 205 80 l 217 80 l 221 44 m 378 894 l 368 894 l 361 915 l 370 918 l 378 894 m 712 858 q 697 817 712 834 q 647 760 672 788 q 640 759 643 759 q 607 799 620 759 q 576 881 587 863 q 541 906 571 889 q 511 937 514 922 q 425 863 468 900 q 363 734 363 801 q 363 717 363 726 l 353 676 q 401 608 360 640 q 504 570 448 570 q 512 575 508 575 q 521 547 521 575 q 510 502 521 525 q 474 474 496 474 q 441 480 467 474 q 407 487 415 487 q 341 469 379 487 q 296 435 302 451 q 287 480 287 452 q 301 518 287 513 q 313 523 304 521 q 325 528 322 525 q 271 551 323 531 l 271 810 q 287 859 271 839 q 282 874 287 869 q 272 868 281 874 q 255 863 264 863 q 412 956 312 915 q 435 923 417 943 q 432 953 435 936 q 432 965 430 965 q 443 956 434 965 q 486 969 468 969 q 556 956 518 969 l 584 961 q 588 918 573 937 q 599 962 599 936 q 687 879 657 932 l 705 892 q 708 878 705 890 q 712 858 712 865 m 290 760 l 290 760 l 290 760 m 316 731 l 316 731 l 316 731 m 221 659 l 209 659 l 209 688 l 221 688 l 221 659 m 670 870 l 661 874 l 653 858 l 661 854 l 670 870 m 534 950 l 534 950 l 534 950 m 579 904 l 552 932 l 545 926 l 573 897 l 579 904 m 458 937 l 458 937 l 458 937 m 407 943 q 392 939 403 943 q 377 936 380 936 q 385 927 377 932 q 398 918 396 919 q 407 943 407 926 m 379 871 l 379 871 l 379 871 m 376 842 l 376 842 l 376 842 m 353 807 l 344 810 l 335 794 l 345 790 l 353 807 m 322 754 l 322 784 l 310 784 l 310 754 l 322 754 m 302 730 l 292 734 l 285 717 l 293 713 l 302 730 m 327 701 l 318 701 l 310 679 l 319 676 l 327 701 m 264 563 q 242 802 264 647 q 237 820 228 816 l 248 847 q 202 785 222 841 q 186 712 186 739 q 206 631 186 673 q 264 563 229 586 "},"ﬁ":{"x_min":0,"x_max":0,"ha":1389},"{":{"x_min":0,"x_max":0,"ha":1389},"X":{"x_min":27,"x_max":1007.265625,"ha":999,"o":"m 1007 222 q 1004 185 1004 211 q 1005 147 1004 153 q 849 33 938 78 q 679 -12 756 -12 q 516 60 578 -12 q 455 258 455 132 q 318 70 384 165 q 158 -12 248 -12 q 80 13 125 -12 q 27 80 27 43 q 89 158 27 99 q 104 145 89 145 q 113 142 113 145 q 110 138 113 141 q 108 134 108 135 q 109 130 108 132 q 123 137 113 130 q 141 149 135 147 l 136 173 q 117 152 130 169 q 98 161 104 161 l 129 193 q 147 193 137 193 q 160 193 158 193 q 240 94 188 94 q 389 266 316 94 q 489 591 442 392 q 525 782 525 748 q 500 873 525 837 q 422 914 472 914 q 358 892 414 914 q 268 859 292 866 q 270 858 269 859 q 270 848 270 857 q 279 842 270 842 q 292 845 289 842 q 297 848 294 848 q 256 785 291 835 l 256 808 q 198 800 241 814 q 228 848 204 811 q 339 937 262 892 q 443 978 411 978 q 608 926 555 978 q 685 728 666 871 q 746 833 716 780 q 823 933 786 900 q 927 978 872 978 q 995 907 964 978 q 927 799 995 854 q 884 833 915 806 q 849 857 858 857 q 784 801 825 857 q 704 632 738 736 q 646 489 670 525 q 660 478 646 478 q 618 340 618 365 q 637 178 618 230 q 773 88 672 88 q 1007 222 886 88 m 232 773 l 176 773 q 216 792 189 779 q 232 773 232 776 m 354 581 q 309 525 354 559 q 250 494 267 494 q 189 517 221 494 q 158 567 158 540 q 164 588 158 578 q 143 595 161 595 q 143 660 143 628 q 173 742 148 710 l 181 713 q 238 756 215 748 q 211 668 247 726 q 238 678 219 661 q 279 628 246 651 q 354 606 313 606 l 354 581 m 646 806 l 643 816 l 626 807 l 626 797 l 646 806 m 185 637 l 177 644 l 160 627 l 167 619 l 185 637 m 214 589 l 205 606 l 195 606 l 204 585 l 214 589 m 192 580 l 185 588 l 167 571 l 174 563 l 192 580 m 254 67 q 237 88 254 70 q 198 61 208 72 q 254 67 240 61 m 99 110 l 92 117 l 61 86 l 67 79 l 99 110 "},"ô":{"x_min":8,"x_max":629.265625,"ha":608,"o":"m 619 211 q 629 181 629 196 q 581 116 629 145 q 506 91 540 91 q 409 121 473 91 q 214 -14 289 -14 l 171 -14 q 97 10 126 -14 q 70 44 91 23 q 89 44 72 44 q 119 44 106 44 q 127 85 127 51 q 115 54 115 85 q 95 62 102 62 l 95 91 q 100 89 97 89 q 111 93 102 89 q 128 98 119 98 q 138 95 138 98 q 136 92 138 95 q 134 87 134 89 q 136 83 134 85 q 143 107 151 98 q 146 109 132 107 q 159 106 154 111 q 169 112 164 110 q 179 117 175 113 q 124 146 147 135 q 155 193 132 166 q 121 219 143 209 l 95 196 q 90 219 95 214 q 82 207 81 214 q 74 243 82 214 q 66 288 66 273 q 71 305 66 300 q 82 320 82 309 q 89 301 82 309 q 112 347 112 337 q 119 331 111 338 q 122 343 119 334 q 122 354 123 349 q 110 367 119 360 q 138 323 118 364 q 145 330 144 323 q 140 342 146 337 q 181 354 151 354 q 187 369 187 351 q 176 388 187 380 q 159 398 168 393 q 146 377 146 385 q 134 382 142 380 q 126 388 125 384 q 120 407 127 393 l 106 392 l 79 392 q 99 421 79 402 q 106 398 99 405 q 171 449 127 412 q 152 477 167 459 q 220 523 157 490 q 308 557 283 557 l 350 557 q 334 538 350 553 q 333 538 333 538 q 335 536 332 536 q 346 535 338 535 q 385 550 355 535 q 424 565 414 565 q 485 534 462 565 q 506 466 506 506 q 472 274 506 412 q 451 224 469 261 q 435 181 435 190 q 506 144 435 144 q 560 157 537 144 q 619 211 577 169 m 73 190 l 59 190 l 59 218 l 73 218 l 73 190 m 44 61 q 21 124 34 75 q 8 196 8 174 q 18 272 8 238 q 44 347 31 309 l 44 61 m 105 100 l 91 100 l 91 120 l 105 120 l 105 100 m 368 281 l 359 309 l 347 306 l 357 281 l 368 281 m 396 519 l 339 519 q 255 460 303 519 q 187 380 194 386 q 204 372 194 380 q 179 223 179 236 q 197 129 179 172 q 264 76 220 76 q 320 99 287 76 q 374 162 357 126 q 319 264 319 233 q 324 280 319 274 q 339 268 339 280 q 335 283 339 271 q 331 298 331 294 q 333 289 331 302 q 323 286 335 286 q 306 316 306 286 q 315 354 306 342 q 344 309 330 325 q 334 411 332 396 q 331 424 331 417 q 360 475 331 443 q 396 519 394 515 m 142 311 l 134 318 l 115 300 l 122 292 l 142 311 m 135 242 l 135 263 l 122 263 l 122 242 l 135 242 m 112 212 l 112 241 l 98 241 l 98 212 l 112 212 m 166 46 l 166 68 l 153 68 l 153 46 l 166 46 m 525 771 l 525 771 l 524 771 l 524 771 l 524 771 l 524 771 l 524 771 l 524 771 l 525 771 m 552 771 l 552 771 q 554 773 553 771 l 556 773 q 556 772 556 772 q 556 771 556 772 l 556 771 q 555 772 555 771 q 552 771 553 771 m 482 1063 l 471 981 q 462 984 468 984 q 435 978 455 984 q 404 972 414 972 q 390 978 393 972 q 376 999 385 990 q 350 957 349 971 q 336 992 350 979 l 336 1036 q 367 1041 362 1036 q 358 1030 358 1032 q 372 1028 358 1028 q 387 1029 387 1028 q 385 1037 385 1022 q 387 999 378 1017 q 418 1033 393 1010 q 400 1062 414 1042 l 435 1062 q 434 1037 425 1045 q 451 1047 436 1037 q 482 1063 466 1058 m 502 872 q 479 860 495 871 q 456 900 468 880 q 427 929 444 920 q 455 940 455 957 q 478 906 460 931 q 502 872 497 882 m 418 910 l 396 889 q 380 894 391 889 q 366 899 369 899 l 366 928 l 391 940 q 374 961 374 957 q 418 910 399 949 m 520 837 q 502 817 502 815 q 510 798 502 821 q 495 801 505 798 q 481 805 485 805 q 473 793 477 801 q 466 789 471 789 q 496 860 496 842 l 520 837 m 323 1045 q 304 981 304 1006 q 271 982 290 995 q 301 1017 282 992 q 323 1045 320 1042 m 474 846 q 461 818 460 832 q 444 858 461 834 q 421 896 424 886 l 474 846 m 421 866 l 409 841 l 396 847 l 408 870 l 421 866 m 312 957 q 282 870 312 915 q 294 915 294 891 q 281 952 294 937 l 302 934 q 312 957 312 944 m 291 913 l 281 904 l 239 945 l 249 955 l 291 913 m 270 864 q 244 839 261 860 q 218 814 227 819 q 207 842 207 829 q 224 867 207 858 q 215 875 224 875 q 199 870 206 877 q 210 882 199 877 q 228 879 221 886 q 224 903 238 889 q 247 890 235 903 q 270 864 259 877 m 187 791 q 162 777 179 789 q 136 818 162 792 q 166 822 146 809 q 173 803 166 815 q 187 791 180 791 m 119 777 q 108 795 118 782 q 79 749 97 784 q 96 804 79 769 q 111 794 103 804 q 119 777 119 784 m 448 1021 l 438 1030 l 397 988 l 406 978 l 448 1021 "},"¼":{"x_min":0,"x_max":0,"ha":1389},"#":{"x_min":0,"x_max":0,"ha":1389},"Ê":{"x_min":40,"x_max":731.484375,"ha":724,"o":"m 340 665 l 317 643 l 310 650 l 333 671 l 340 665 m 731 226 q 624 64 731 135 q 447 4 534 4 q 433 0 441 4 q 426 -6 426 -2 l 395 -6 q 433 27 419 20 q 428 28 431 28 q 396 10 420 28 q 365 -6 372 -6 q 355 36 365 25 q 340 -7 351 20 q 345 23 345 4 q 335 60 345 31 q 320 105 323 96 q 363 85 338 96 q 359 63 363 84 q 361 38 357 48 q 370 80 370 48 q 446 75 398 75 q 731 226 606 75 m 403 37 l 394 37 l 386 52 l 395 56 l 403 37 m 324 -14 q 302 -2 309 -2 q 289 -4 294 -2 q 282 -6 285 -6 q 282 30 282 -6 l 247 30 q 245 18 243 26 q 248 5 248 5 l 218 5 q 221 36 224 29 q 208 13 202 18 q 187 51 195 25 l 187 118 q 178 86 186 112 q 170 46 170 61 q 172 30 170 37 q 137 59 161 39 q 40 239 40 93 q 267 511 40 442 q 271 479 267 501 q 275 448 275 456 q 253 382 275 429 q 231 280 231 335 q 273 124 231 241 q 285 140 284 124 q 269 49 285 82 q 270 87 270 40 q 255 70 260 84 q 242 40 246 46 q 282 35 256 40 l 305 118 q 305 58 305 88 q 324 15 309 25 l 324 -14 m 271 -1 l 260 -1 l 260 23 l 271 23 l 271 -1 m 221 44 l 209 44 l 205 80 l 217 80 l 221 44 m 378 894 l 368 894 l 361 915 l 370 918 l 378 894 m 712 858 q 697 817 712 834 q 647 760 672 788 q 640 759 643 759 q 608 799 621 759 q 576 881 587 863 q 541 906 571 889 q 511 937 514 922 q 425 863 468 900 q 363 734 363 801 q 363 717 363 726 l 353 676 q 401 608 360 640 q 504 570 448 570 q 512 575 508 575 q 521 547 521 575 q 510 502 521 525 q 474 474 496 474 q 441 480 467 474 q 407 487 415 487 q 341 469 379 487 q 296 435 302 451 q 287 480 287 452 q 301 518 287 513 q 313 523 304 521 q 325 528 322 525 q 271 551 323 531 l 271 810 q 287 859 271 839 q 282 874 287 869 q 272 868 281 874 q 255 863 264 863 q 412 956 312 915 q 435 923 417 943 q 432 953 435 936 q 432 965 430 965 q 443 956 434 965 q 486 969 468 969 q 556 956 518 969 l 584 961 q 588 918 573 937 q 599 962 599 936 q 687 879 658 932 l 705 892 q 708 878 705 890 q 712 858 712 865 m 290 760 l 290 760 l 290 760 m 316 731 l 316 731 l 316 731 m 221 659 l 209 659 l 209 688 l 221 688 l 221 659 m 670 870 l 661 874 l 653 858 l 662 854 l 670 870 m 534 950 l 534 950 l 534 950 m 579 904 l 552 932 l 545 926 l 573 897 l 579 904 m 458 937 l 458 937 l 458 937 m 407 943 q 392 939 403 943 q 377 936 380 936 q 385 927 377 932 q 398 918 396 919 q 407 943 407 926 m 379 871 l 379 871 l 379 871 m 376 842 l 376 842 l 376 842 m 353 807 l 344 810 l 335 794 l 345 790 l 353 807 m 322 754 l 322 784 l 310 784 l 310 754 l 322 754 m 302 730 l 292 734 l 285 717 l 293 713 l 302 730 m 327 701 l 318 701 l 310 679 l 319 676 l 327 701 m 264 563 q 242 802 264 647 q 237 820 228 816 l 248 847 q 202 785 222 841 q 186 712 186 739 q 206 631 186 673 q 264 563 229 586 m 257 1166 l 266 1199 q 475 1423 389 1282 l 622 1447 q 629 1311 622 1358 q 685 1191 642 1241 l 679 1163 q 507 1321 576 1199 q 257 1166 391 1199 "},")":{"x_min":33.546875,"x_max":589.453125,"ha":665,"o":"m 298 -121 l 285 -121 l 285 -100 l 298 -100 l 298 -121 m 290 -146 l 277 -146 l 277 -124 l 290 -124 l 290 -146 m 582 366 q 492 76 552 231 q 492 123 492 87 q 492 167 492 158 q 490 213 492 176 q 484 270 484 253 q 470 284 475 284 q 458 312 458 290 q 465 362 458 325 q 472 419 472 399 q 452 374 452 409 q 439 438 439 405 q 455 494 439 471 l 442 506 q 435 482 435 498 q 435 602 435 483 q 425 721 435 675 q 442 701 427 719 q 466 673 458 683 l 478 686 q 409 803 426 740 q 385 907 397 855 q 406 916 392 908 q 382 929 395 929 q 351 949 361 929 q 327 990 334 983 l 374 990 q 370 974 374 996 q 374 943 369 960 q 393 936 385 936 q 396 959 398 945 q 394 983 394 985 q 505 808 450 914 q 589 595 571 684 q 582 366 582 595 m 513 502 l 495 465 l 483 470 l 502 506 l 513 502 m 464 875 l 456 883 l 429 856 l 436 847 l 464 875 m 410 853 l 410 853 l 410 853 m 450 820 l 438 827 l 419 799 l 430 791 l 450 820 m 568 673 l 556 673 l 540 604 l 552 604 l 568 673 m 544 587 l 536 595 l 517 576 l 524 567 l 544 587 m 470 610 l 470 610 l 470 610 m 450 627 l 450 648 l 436 648 l 436 627 l 450 627 m 529 558 l 517 562 l 500 526 l 511 521 l 529 558 m 496 452 l 488 460 l 468 441 l 476 432 l 496 452 m 434 278 l 423 285 l 404 257 l 415 249 l 434 278 m 410 234 l 396 234 l 387 197 l 400 197 l 410 234 m 402 182 l 391 189 l 371 161 l 382 154 l 402 182 m 385 147 l 374 147 l 340 56 l 351 52 l 385 147 m 353 39 l 342 46 l 324 18 l 334 10 l 353 39 m 474 241 q 431 316 441 257 q 419 402 425 359 q 33 -313 338 -37 l 100 -313 q 306 -159 142 -313 q 464 47 475 -2 q 468 54 466 50 q 471 58 471 58 q 474 47 471 57 l 474 241 m 321 -46 l 310 -42 l 300 -62 l 311 -67 l 321 -46 "},"Å":{"x_min":-6.25,"x_max":967,"ha":940,"o":"m 684 433 l 684 433 l 684 433 m 599 220 l 599 220 l 599 220 m 37 538 l 37 538 l 37 538 m 44 470 l 44 470 l 44 470 m 90 416 l 81 398 l 72 403 l 80 420 l 90 416 m 105 338 l 82 329 l 82 339 l 102 347 l 105 338 m 96 311 l 71 295 l 66 305 l 90 320 l 96 311 m 26 350 l 8 350 l 8 362 l 26 362 l 26 350 m 84 274 l 84 274 l 84 274 m 122 216 l 84 193 l 80 204 l 118 225 l 122 216 m 56 254 l 47 248 l 31 273 l 40 279 l 56 254 m 61 220 l 61 220 l 61 220 m 64 200 l 64 200 l 64 200 m 39 217 q 7 209 17 215 q -5 204 -2 204 q 26 249 -7 218 q 30 230 18 242 q 39 247 36 236 l 39 217 m 23 206 l 23 206 l 23 206 m 83 116 l 58 92 l 52 100 l 75 123 l 83 116 m 23 139 l 23 139 l 23 139 m 105 57 l 105 57 l 105 57 m 71 57 l 71 57 l 71 57 m 948 930 q 911 888 919 902 q 888 927 894 904 q 867 953 884 946 q 887 958 881 953 q 882 970 883 962 q 877 982 880 979 q 821 949 857 961 q 814 979 821 979 q 808 976 811 978 q 816 981 808 981 q 829 976 824 981 q 832 996 832 982 q 836 1016 832 1010 q 867 990 873 989 q 877 996 875 990 q 887 1003 879 1003 q 915 995 894 1003 q 948 988 936 988 l 948 930 m 967 236 q 867 63 967 142 q 663 -14 770 -14 q 545 33 586 -14 q 490 189 503 81 q 348 40 419 115 q 200 -14 283 -14 q 87 19 126 -14 q -6 160 48 52 q 6 157 -5 160 q 35 155 19 155 q 35 170 39 158 q 39 179 33 179 q 70 168 46 179 q 75 195 73 174 q 81 222 78 215 l 108 247 q 92 259 96 259 q 111 250 96 266 q 118 254 115 252 q 122 267 122 256 q 110 291 122 291 q 59 284 91 291 q 56 283 57 283 q 49 305 59 283 q 34 312 42 305 q 20 320 27 320 q 34 332 24 324 q 48 343 44 339 q 41 358 48 345 q 35 379 35 371 q 62 365 49 365 q 65 380 62 364 q 60 403 68 389 q 72 418 68 414 q 99 432 80 424 q 93 437 101 436 q 65 439 86 439 q 57 441 62 436 q 41 454 51 449 q 38 457 39 447 q 40 477 35 467 q 22 482 35 482 l 22 514 q 43 487 30 508 q 74 518 54 508 q 54 539 66 522 q 40 575 40 560 q 224 874 40 718 q 538 1024 401 1024 q 601 1017 584 1024 l 620 1030 q 641 1009 626 1024 q 707 1024 706 1024 q 812 1015 769 1024 q 782 971 797 993 q 760 914 760 940 q 783 938 767 919 q 801 956 795 956 q 804 955 803 956 q 859 948 832 931 q 847 924 859 936 q 863 906 849 919 q 875 884 875 895 q 872 873 875 879 q 871 871 871 872 q 894 857 871 869 q 879 846 886 851 q 864 819 869 836 q 861 821 863 821 q 852 813 859 821 q 840 802 846 805 q 859 799 851 791 q 770 590 827 749 q 697 257 697 385 q 789 115 697 115 q 888 161 824 115 q 967 236 947 204 m 224 625 l 200 601 l 194 609 l 217 632 l 224 625 m 116 582 l 92 567 l 86 576 l 110 592 l 116 582 m 90 564 l 72 547 l 66 554 l 82 571 l 90 564 m 917 902 l 917 934 l 905 934 l 905 902 l 917 902 m 789 1001 l 789 1013 l 753 1005 l 753 993 l 789 1001 m 891 878 l 891 878 l 891 878 m 781 984 l 773 991 l 757 974 l 763 966 l 781 984 m 799 942 l 799 942 l 799 942 m 842 909 l 834 916 l 818 900 l 824 892 l 842 909 m 823 921 l 820 930 l 800 922 l 800 912 l 823 921 m 860 868 l 860 868 l 860 868 m 792 929 l 792 929 l 792 929 m 798 907 l 765 890 q 780 884 771 890 q 789 873 789 878 q 798 907 795 886 m 860 836 q 848 855 857 841 q 840 869 840 865 q 848 876 848 874 q 845 878 848 878 q 822 872 840 878 q 801 865 803 866 q 779 822 801 844 q 826 784 796 805 q 810 801 819 788 q 800 826 800 816 q 815 841 809 841 q 825 838 819 841 q 837 806 837 830 q 860 836 838 821 m 780 866 l 776 875 l 760 867 l 760 858 l 780 866 m 813 823 l 813 823 l 813 823 m 747 886 l 737 886 l 715 843 l 725 839 l 747 886 m 782 783 l 782 783 l 782 783 m 774 803 l 767 812 l 750 799 l 756 790 l 774 803 m 544 977 l 536 1009 l 525 1009 l 532 977 l 544 977 m 751 817 q 711 833 715 826 q 611 661 674 779 q 703 801 640 708 q 715 809 710 809 q 724 801 719 809 q 729 793 728 793 q 751 817 731 797 m 711 555 l 711 555 l 711 555 m 611 654 l 602 658 l 593 640 l 603 636 l 611 654 m 312 907 l 308 916 l 279 902 l 279 892 l 312 907 m 285 801 l 279 807 l 255 784 l 262 777 l 285 801 m 299 780 l 292 787 l 268 764 l 275 757 l 299 780 m 744 972 q 689 982 709 982 q 663 969 682 969 q 643 974 648 969 q 639 1002 643 998 q 630 976 639 976 q 459 912 567 981 q 340 832 399 872 q 346 821 340 828 q 353 811 353 814 q 284 741 329 786 q 305 735 298 741 q 255 637 284 705 q 216 553 227 569 q 198 425 210 482 q 190 342 190 383 q 204 226 190 277 q 301 135 232 135 q 451 231 396 135 q 520 429 486 291 q 575 602 554 567 q 578 618 576 612 q 580 618 580 624 q 586 626 584 618 q 578 635 589 635 q 711 869 644 802 q 746 933 746 904 q 744 940 746 938 q 718 956 729 956 q 697 965 707 956 q 715 976 703 966 q 730 974 719 976 q 744 972 741 972 m 220 717 l 216 728 l 190 712 l 190 702 l 220 717 m 224 683 l 219 694 l 170 672 l 170 662 l 224 683 m 224 659 l 217 666 l 201 649 l 207 642 l 224 659 m 170 590 l 164 599 l 137 575 l 143 567 l 170 590 m 142 596 l 116 605 l 116 595 l 138 587 l 142 596 m 128 629 q 77 596 92 611 q 55 616 58 616 q 51 600 55 613 q 47 579 47 587 q 57 570 47 569 q 70 569 68 571 q 128 629 113 601 m 30 552 l 30 552 l 30 552 "},"ø":{"x_min":4,"x_max":624.234375,"ha":609,"o":"m 624 149 q 505 94 560 94 q 407 131 456 94 q 180 -16 312 -16 q 99 5 138 -16 l 40 -72 l 15 -56 l 74 23 q 4 194 4 89 q 109 460 4 346 q 368 576 216 576 q 471 557 425 576 l 516 616 l 540 598 l 495 537 q 501 492 501 509 q 434 179 501 360 q 507 148 469 148 q 624 227 552 148 l 624 149 m 395 528 q 366 533 385 533 q 217 416 269 533 q 178 214 178 326 q 183 170 178 205 l 302 329 q 322 440 302 397 q 395 528 342 484 m 366 166 q 309 285 321 222 l 193 131 q 262 78 222 78 q 366 166 311 78 "},"â":{"x_min":1,"x_max":737.140625,"ha":724,"o":"m 531 20 l 510 11 l 510 22 l 527 30 l 531 20 m 172 3 l 168 -7 l 144 5 l 147 16 l 172 3 m 151 -7 l 151 -7 l 151 -7 m 737 137 q 614 28 675 82 q 492 -22 553 -22 q 400 44 426 -22 q 396 98 396 57 q 389 164 396 145 q 292 43 373 144 q 266 55 277 43 q 280 65 280 55 q 248 78 272 68 l 244 54 q 273 33 250 47 q 261 35 268 29 q 227 0 252 21 q 224 41 240 24 l 238 27 q 238 54 238 41 q 224 72 231 63 q 215 58 215 72 q 206 65 210 58 q 198 78 201 75 q 189 57 197 72 q 181 36 181 43 q 191 26 181 29 q 181 5 181 19 q 194 -19 181 -9 q 115 -22 137 -15 l 95 -7 q 73 19 73 5 q 80 37 73 27 q 44 29 70 37 q 57 53 47 37 q 16 72 41 72 q 8 120 16 88 q 1 160 1 153 q 30 226 1 208 q 22 236 30 236 q 18 246 17 236 q 30 263 20 258 q 16 265 30 278 q 32 316 24 290 q 79 354 46 343 q 65 376 65 370 q 89 414 69 389 q 120 450 117 446 q 127 429 120 434 q 278 557 120 481 q 286 534 278 551 q 295 508 295 517 q 251 448 295 490 q 208 378 208 407 q 225 393 225 378 q 186 266 186 304 q 168 250 184 266 q 158 278 158 261 q 172 311 158 291 q 201 340 186 331 q 192 348 197 343 q 183 357 186 353 q 170 352 179 353 q 158 347 161 350 l 172 333 q 159 312 165 323 q 149 274 149 293 q 149 265 149 270 q 122 279 135 279 q 102 273 115 279 q 94 275 94 270 q 89 286 95 280 q 69 260 74 288 q 36 254 59 260 q 53 236 45 249 q 69 207 69 208 q 65 226 76 215 q 92 220 92 226 l 101 232 q 92 246 98 234 q 83 254 87 254 q 120 272 110 254 q 126 242 120 249 q 133 257 133 249 q 113 178 113 219 q 82 193 102 182 l 71 182 q 84 164 80 178 q 98 135 92 144 q 102 163 114 151 q 142 150 116 163 q 156 167 149 153 q 170 185 163 181 q 174 142 172 164 q 197 100 177 117 q 194 120 206 108 q 244 100 218 100 q 322 150 281 100 q 381 222 381 222 q 377 234 387 226 q 403 305 385 257 q 424 347 407 315 q 438 382 438 372 q 359 530 438 530 q 338 521 349 530 q 319 508 321 509 q 295 556 318 509 q 370 580 365 580 q 442 548 412 580 q 484 501 463 524 q 563 546 505 511 q 614 572 605 572 l 658 572 q 590 357 626 481 q 552 171 552 216 q 577 100 552 100 q 636 120 604 100 q 644 93 636 98 q 678 147 661 120 q 737 199 709 190 l 737 137 m 179 241 q 155 193 172 221 l 141 207 q 134 196 133 203 q 140 225 134 205 q 146 257 146 246 q 179 241 161 241 m 80 243 l 75 233 l 57 241 l 61 253 l 80 243 m 402 557 l 398 567 l 381 559 l 381 548 l 402 557 m 500 409 q 483 447 492 425 l 483 416 q 500 409 488 416 m 476 216 l 476 234 l 463 234 l 463 216 l 476 216 m 487 178 l 487 178 l 487 178 m 382 165 l 382 192 l 370 192 l 370 165 l 382 165 m 161 381 l 161 407 l 149 407 l 149 381 l 161 381 m 161 352 l 161 371 l 149 371 l 149 352 l 161 352 m 144 363 q 129 366 139 363 q 116 370 120 370 q 137 353 122 365 l 122 337 q 144 363 144 347 m 84 329 l 67 315 q 65 308 63 315 q 69 296 69 299 q 76 312 69 300 q 84 329 84 325 m 39 280 l 39 299 l 27 299 l 27 280 l 39 280 m 179 110 q 163 132 171 118 q 154 150 155 147 q 165 104 154 123 q 153 78 153 91 q 179 110 162 90 m 194 85 l 190 95 l 173 86 l 173 75 l 194 85 m 153 103 l 145 120 l 135 120 l 144 99 l 153 103 m 53 194 l 53 214 l 41 214 l 41 194 l 53 194 m 87 150 l 45 166 l 45 156 l 82 140 l 87 150 m 153 29 l 153 63 l 142 63 l 142 29 l 153 29 m 129 70 q 104 64 110 70 l 94 74 q 114 86 109 90 q 104 121 114 112 q 80 97 95 113 l 80 43 q 107 42 107 43 q 116 56 107 49 q 129 70 126 63 m 81 114 l 74 124 l 49 107 l 55 97 l 81 114 m 22 143 l 22 143 l 22 143 m 46 118 l 36 122 l 27 104 l 36 99 l 46 118 m 67 65 l 58 86 l 48 81 l 57 65 l 67 65 m 601 771 l 601 771 l 602 771 l 602 771 l 602 771 l 602 771 l 602 771 l 602 771 l 601 771 m 610 760 l 610 760 q 612 761 611 760 l 614 761 q 614 760 614 760 q 614 760 614 760 l 614 760 q 613 760 613 760 q 610 760 611 760 m 540 1052 l 529 970 q 520 973 526 973 q 493 967 513 973 q 462 961 472 961 q 448 967 451 961 q 435 988 443 979 q 408 946 407 960 q 394 981 408 968 l 394 1024 q 425 1029 420 1024 q 416 1019 416 1020 q 430 1016 416 1016 q 445 1017 445 1016 q 443 1025 443 1010 q 445 988 436 1006 q 477 1021 451 999 q 458 1051 472 1031 l 493 1051 q 492 1025 483 1033 q 509 1035 494 1025 q 540 1052 524 1046 m 560 861 q 536 849 553 860 q 514 889 526 869 q 485 918 502 910 q 513 929 513 946 q 537 895 519 920 q 560 861 555 871 m 476 899 l 454 877 q 438 882 449 877 q 424 888 427 888 l 424 917 l 449 929 q 432 950 432 946 q 476 899 457 938 m 578 826 q 560 805 560 803 q 568 786 560 810 q 553 790 564 786 q 538 794 543 794 q 531 782 535 790 q 524 777 528 777 q 554 849 554 831 l 578 826 m 381 1033 q 362 970 362 994 q 329 971 348 984 q 359 1006 340 981 q 381 1033 378 1030 m 532 835 q 519 807 518 821 q 501 847 519 823 q 479 885 482 875 l 532 835 m 479 855 l 467 830 l 454 836 l 465 859 l 479 855 m 370 946 q 340 859 370 904 q 352 904 352 879 q 339 941 352 926 l 360 923 q 370 946 370 933 m 349 902 l 339 893 l 298 934 l 307 944 l 349 902 m 328 853 q 302 828 319 849 q 276 803 285 808 q 265 831 265 818 q 282 856 265 847 q 273 864 282 864 q 257 859 264 865 q 268 870 257 866 q 286 867 279 874 q 282 893 297 877 q 305 879 294 893 q 328 853 317 866 m 244 781 q 220 765 236 777 q 194 807 220 781 q 224 811 203 798 q 231 792 224 804 q 244 781 238 781 m 177 765 q 166 784 176 770 q 137 738 154 772 q 153 793 137 758 q 168 783 160 793 q 177 765 177 773 m 506 1009 l 496 1018 l 455 977 l 464 967 l 506 1009 "},"}":{"x_min":0,"x_max":0,"ha":1389},"‰":{"x_min":0,"x_max":0,"ha":1389},"Ä":{"x_min":-6.25,"x_max":967,"ha":940,"o":"m 684 433 l 684 433 l 684 433 m 599 220 l 599 220 l 599 220 m 37 538 l 37 538 l 37 538 m 44 470 l 44 470 l 44 470 m 90 416 l 81 398 l 72 403 l 80 420 l 90 416 m 105 338 l 82 329 l 82 339 l 102 347 l 105 338 m 96 311 l 71 295 l 66 305 l 90 320 l 96 311 m 26 350 l 8 350 l 8 362 l 26 362 l 26 350 m 84 274 l 84 274 l 84 274 m 122 216 l 84 193 l 80 204 l 118 225 l 122 216 m 56 254 l 47 248 l 31 273 l 40 279 l 56 254 m 61 220 l 61 220 l 61 220 m 64 200 l 64 200 l 64 200 m 39 217 q 7 209 17 215 q -5 204 -2 204 q 26 249 -7 218 q 30 230 18 242 q 39 247 36 236 l 39 217 m 23 206 l 23 206 l 23 206 m 83 116 l 58 92 l 52 100 l 75 123 l 83 116 m 23 139 l 23 139 l 23 139 m 105 57 l 105 57 l 105 57 m 71 57 l 71 57 l 71 57 m 948 930 q 911 888 919 902 q 888 927 894 904 q 867 953 884 946 q 887 958 881 953 q 882 970 883 962 q 877 982 880 979 q 821 949 857 961 q 814 979 821 979 q 808 976 811 978 q 816 981 808 981 q 829 976 824 981 q 832 996 832 982 q 836 1016 832 1010 q 867 990 873 989 q 877 996 875 990 q 887 1003 879 1003 q 915 995 894 1003 q 948 988 936 988 l 948 930 m 967 236 q 867 63 967 142 q 663 -14 770 -14 q 545 33 586 -14 q 490 189 503 81 q 348 40 419 115 q 200 -14 283 -14 q 87 19 126 -14 q -6 160 48 52 q 6 157 -5 160 q 35 155 19 155 q 35 170 39 158 q 39 179 33 179 q 70 168 46 179 q 75 195 73 174 q 81 222 78 215 l 108 247 q 92 259 96 259 q 111 250 96 266 q 118 254 115 252 q 122 267 122 256 q 110 291 122 291 q 59 284 91 291 q 56 283 57 283 q 49 305 59 283 q 34 312 42 305 q 20 320 27 320 q 34 332 24 324 q 48 343 44 339 q 41 358 48 345 q 35 379 35 371 q 62 365 49 365 q 65 380 62 364 q 60 403 68 389 q 72 418 68 414 q 99 432 80 424 q 93 437 101 436 q 65 439 86 439 q 57 441 62 436 q 41 454 51 449 q 38 457 39 447 q 40 477 35 467 q 22 482 35 482 l 22 514 q 43 487 30 508 q 74 518 54 508 q 54 539 66 522 q 40 575 40 560 q 224 874 40 718 q 538 1024 401 1024 q 601 1017 584 1024 l 620 1030 q 641 1009 626 1024 q 707 1024 706 1024 q 812 1015 769 1024 q 782 971 797 993 q 760 914 760 940 q 783 938 767 919 q 801 956 795 956 q 804 955 803 956 q 859 948 832 931 q 847 924 859 936 q 863 906 849 919 q 875 884 875 895 q 872 873 875 879 q 871 871 871 872 q 894 857 871 869 q 879 846 886 851 q 864 819 869 836 q 861 821 863 821 q 852 813 859 821 q 840 802 846 805 q 859 799 851 791 q 770 590 827 749 q 697 257 697 385 q 789 115 697 115 q 888 161 824 115 q 967 236 947 204 m 224 625 l 200 601 l 194 609 l 217 632 l 224 625 m 116 582 l 92 567 l 86 576 l 110 592 l 116 582 m 90 564 l 72 547 l 66 554 l 82 571 l 90 564 m 917 902 l 917 934 l 905 934 l 905 902 l 917 902 m 789 1001 l 789 1013 l 753 1005 l 753 993 l 789 1001 m 891 878 l 891 878 l 891 878 m 781 984 l 773 991 l 757 974 l 763 966 l 781 984 m 799 942 l 799 942 l 799 942 m 842 909 l 834 916 l 818 900 l 824 892 l 842 909 m 823 921 l 820 930 l 800 922 l 800 912 l 823 921 m 860 868 l 860 868 l 860 868 m 792 929 l 792 929 l 792 929 m 798 907 l 765 890 q 780 884 771 890 q 789 873 789 878 q 798 907 795 886 m 860 836 q 848 855 857 841 q 840 869 840 865 q 848 876 848 874 q 845 878 848 878 q 822 872 840 878 q 801 865 803 866 q 779 822 801 844 q 826 784 796 805 q 810 801 819 788 q 800 826 800 816 q 815 841 809 841 q 825 838 819 841 q 837 806 837 830 q 860 836 838 821 m 780 866 l 776 875 l 760 867 l 760 858 l 780 866 m 813 823 l 813 823 l 813 823 m 747 886 l 737 886 l 715 843 l 725 839 l 747 886 m 782 783 l 782 783 l 782 783 m 774 803 l 767 812 l 750 799 l 756 790 l 774 803 m 544 977 l 536 1009 l 525 1009 l 532 977 l 544 977 m 751 817 q 711 833 715 826 q 611 661 674 779 q 703 801 640 708 q 715 809 710 809 q 724 801 719 809 q 729 793 728 793 q 751 817 731 797 m 711 555 l 711 555 l 711 555 m 611 654 l 602 658 l 593 640 l 603 636 l 611 654 m 312 907 l 308 916 l 279 902 l 279 892 l 312 907 m 285 801 l 279 807 l 255 784 l 262 777 l 285 801 m 299 780 l 292 787 l 268 764 l 275 757 l 299 780 m 744 972 q 689 982 709 982 q 663 969 682 969 q 643 974 648 969 q 639 1002 643 998 q 630 976 639 976 q 459 912 567 981 q 340 832 399 872 q 346 821 340 828 q 353 811 353 814 q 284 741 329 786 q 305 735 298 741 q 255 637 284 705 q 216 553 227 569 q 198 425 210 482 q 190 342 190 383 q 204 226 190 277 q 301 135 232 135 q 451 231 396 135 q 520 429 486 291 q 575 602 554 567 q 578 618 576 612 q 580 618 580 624 q 586 626 584 618 q 578 635 589 635 q 711 869 644 802 q 746 933 746 904 q 744 940 746 938 q 718 956 729 956 q 697 965 707 956 q 715 976 703 966 q 730 974 719 976 q 744 972 741 972 m 220 717 l 216 728 l 190 712 l 190 702 l 220 717 m 224 683 l 219 694 l 170 672 l 170 662 l 224 683 m 224 659 l 217 666 l 201 649 l 207 642 l 224 659 m 170 590 l 164 599 l 137 575 l 143 567 l 170 590 m 142 596 l 116 605 l 116 595 l 138 587 l 142 596 m 128 629 q 77 596 92 611 q 55 616 58 616 q 51 600 55 613 q 47 579 47 587 q 57 570 47 569 q 70 569 68 571 q 128 629 113 601 m 30 552 l 30 552 l 30 552 "},"¸":{"x_min":0,"x_max":0,"ha":1389},"a":{"x_min":1,"x_max":737.140625,"ha":724,"o":"m 531 20 l 510 11 l 510 22 l 526 30 l 531 20 m 172 3 l 168 -7 l 144 5 l 147 16 l 172 3 m 151 -7 l 151 -7 l 151 -7 m 737 137 q 614 28 675 82 q 492 -22 553 -22 q 400 44 426 -22 q 396 98 396 57 q 389 164 396 145 q 292 42 373 144 q 265 55 277 42 q 280 65 280 55 q 248 78 271 68 l 244 54 q 273 33 250 46 q 261 35 267 29 q 227 0 252 21 q 223 41 240 24 l 238 27 q 238 54 238 41 q 224 72 231 63 q 215 58 215 72 q 206 65 210 58 q 198 78 201 75 q 189 57 197 72 q 181 36 181 42 q 191 26 181 29 q 181 5 181 19 q 194 -19 181 -9 q 115 -22 138 -15 l 95 -7 q 73 19 73 5 q 80 37 73 27 q 44 29 70 37 q 57 53 47 37 q 16 72 41 72 q 8 120 16 88 q 1 160 1 153 q 30 226 1 208 q 22 236 30 236 q 18 246 17 236 q 30 263 20 258 q 16 265 30 278 q 32 316 24 290 q 79 354 46 343 q 65 376 65 370 q 89 414 69 389 q 120 450 117 446 q 127 429 120 434 q 278 557 120 481 q 286 534 278 551 q 295 508 295 517 q 251 448 295 490 q 208 378 208 407 q 225 393 225 378 q 186 266 186 304 q 168 250 184 266 q 158 278 158 261 q 172 311 158 291 q 201 340 186 331 q 192 348 197 343 q 183 357 186 353 q 170 352 179 353 q 158 347 161 350 l 172 333 q 159 312 165 323 q 149 274 149 293 q 149 265 149 270 q 122 279 136 279 q 102 273 115 279 q 94 275 94 270 q 89 286 95 280 q 69 260 74 288 q 36 254 59 260 q 53 236 45 249 q 69 207 69 208 q 65 226 76 215 q 92 220 92 226 l 101 232 q 92 246 98 235 q 83 254 87 254 q 120 272 110 254 q 126 242 120 249 q 133 257 133 249 q 113 178 113 219 q 82 193 102 182 l 71 182 q 84 164 80 178 q 98 135 92 144 q 102 163 114 151 q 142 150 116 163 q 156 167 149 153 q 170 185 163 181 q 174 142 172 164 q 197 100 177 117 q 194 120 206 108 q 244 100 218 100 q 322 150 281 100 q 381 222 381 222 q 377 234 387 226 q 403 305 385 258 q 424 347 407 315 q 438 382 438 372 q 359 530 438 530 q 338 521 349 530 q 319 508 321 509 q 295 556 318 509 q 370 580 366 580 q 442 548 412 580 q 484 501 463 524 q 562 546 505 511 q 613 572 605 572 l 658 572 q 590 357 625 481 q 552 171 552 216 q 577 100 552 100 q 636 120 604 100 q 644 93 636 98 q 678 147 661 120 q 737 199 709 190 l 737 137 m 178 241 q 155 193 172 221 l 141 207 q 134 196 133 203 q 140 225 134 205 q 146 257 146 246 q 178 241 161 241 m 80 243 l 75 233 l 57 241 l 61 253 l 80 243 m 402 557 l 398 567 l 381 559 l 381 548 l 402 557 m 500 409 q 483 447 492 425 l 483 416 q 500 409 488 416 m 476 216 l 476 235 l 463 235 l 463 216 l 476 216 m 487 178 l 487 178 l 487 178 m 382 165 l 382 192 l 370 192 l 370 165 l 382 165 m 161 381 l 161 407 l 149 407 l 149 381 l 161 381 m 161 352 l 161 371 l 149 371 l 149 352 l 161 352 m 144 363 q 130 366 140 363 q 116 370 120 370 q 138 353 122 365 l 122 337 q 144 363 144 347 m 84 329 l 67 315 q 65 308 63 315 q 69 296 69 299 q 76 312 69 300 q 84 329 84 325 m 39 280 l 39 299 l 27 299 l 27 280 l 39 280 m 179 110 q 163 132 171 118 q 154 150 155 147 q 165 104 154 123 q 153 78 153 91 q 179 110 162 90 m 194 85 l 190 95 l 173 86 l 173 75 l 194 85 m 153 103 l 145 120 l 135 120 l 144 99 l 153 103 m 53 194 l 53 214 l 41 214 l 41 194 l 53 194 m 87 150 l 45 166 l 45 156 l 82 140 l 87 150 m 153 29 l 153 63 l 142 63 l 142 29 l 153 29 m 129 70 q 104 64 110 70 l 94 74 q 114 86 109 90 q 104 121 114 112 q 80 97 95 113 l 80 42 q 107 42 107 42 q 116 56 107 49 q 129 70 126 63 m 81 114 l 74 124 l 49 107 l 55 97 l 81 114 m 22 143 l 22 143 l 22 143 m 46 118 l 36 122 l 27 104 l 36 99 l 46 118 m 67 65 l 58 86 l 48 81 l 57 65 l 67 65 "},"—":{"x_min":0,"x_max":0,"ha":1389},"=":{"x_min":0,"x_max":0,"ha":1389},"N":{"x_min":41,"x_max":1223.9375,"ha":1229,"o":"m 1223 906 q 1185 848 1223 860 q 1077 785 1120 827 q 1029 665 1057 765 q 975 435 1010 594 q 837 19 927 209 q 804 -6 827 -1 q 767 -14 785 -10 l 745 -14 q 736 42 745 26 q 735 40 736 41 q 736 -13 728 30 q 687 -13 719 -16 q 618 461 675 133 q 577 727 605 549 q 498 458 551 678 q 390 138 444 238 q 181 -15 308 -15 q 116 -5 136 -15 q 41 63 85 8 l 41 117 l 56 132 q 67 125 61 125 q 59 141 72 129 q 152 209 91 170 q 185 127 162 203 q 248 62 204 62 q 407 309 329 62 q 489 628 448 469 q 538 798 514 713 q 605 957 568 891 l 634 957 q 664 491 664 724 q 729 48 691 229 q 738 52 733 50 q 671 574 671 342 q 671 963 671 768 q 680 967 657 963 q 712 971 704 971 q 721 964 719 971 q 731 958 723 958 q 743 960 740 958 q 749 963 747 963 q 744 912 749 952 q 749 886 741 888 l 856 190 q 950 545 905 307 q 1182 971 1031 971 q 1213 946 1201 971 q 1223 906 1223 927 m 708 920 l 708 950 l 697 950 l 697 920 l 708 920 m 708 894 l 708 912 l 697 912 l 697 894 l 708 894 m 687 924 l 683 934 l 668 926 l 668 917 l 687 924 m 746 831 l 746 848 l 735 848 l 735 831 l 746 831 m 688 896 l 679 900 l 671 884 l 680 880 l 688 896 m 714 867 l 705 867 l 697 845 l 706 842 l 714 867 m 726 831 l 719 837 l 697 815 l 704 809 l 726 831 m 577 782 l 577 794 l 553 794 l 553 782 l 577 782 m 151 187 l 142 190 l 134 173 l 143 170 l 151 187 m 113 133 l 105 163 l 94 163 l 102 133 l 113 133 m 93 133 l 85 152 l 76 148 l 84 133 l 93 133 m 119 95 l 112 125 l 101 125 l 108 95 l 119 95 m 150 66 l 128 88 l 122 81 l 143 60 l 150 66 m 96 75 q 84 112 84 99 q 80 106 82 112 q 69 100 78 100 q 55 81 55 100 q 81 87 64 87 l 96 75 m 112 46 l 103 49 l 95 32 l 104 28 l 112 46 m 81 37 l 81 67 l 70 67 l 70 37 l 81 37 "},"˚":{"x_min":0,"x_max":0,"ha":1389},"ú":{"x_min":15.921875,"x_max":745.5625,"ha":724,"o":"m 34 49 l 20 49 l 20 71 l 34 71 l 34 49 m 473 272 l 449 262 l 449 273 l 468 283 l 473 272 m 741 224 q 745 203 745 214 q 641 60 745 140 q 488 -16 543 -16 q 405 23 431 -16 q 383 96 389 47 q 371 136 377 136 q 318 90 365 136 q 237 18 264 35 q 151 -13 224 9 q 148 8 161 -4 q 132 -12 145 -10 q 105 -15 119 -13 q 119 2 105 -11 q 90 -1 106 4 q 73 -7 81 -3 q 76 6 73 -5 q 76 19 80 14 q 103 19 89 5 q 67 39 87 39 q 55 38 55 39 q 60 31 60 32 q 76 80 60 35 q 91 55 76 71 q 127 83 105 62 q 89 98 115 86 l 89 152 q 123 136 102 148 q 164 176 139 148 q 151 148 164 161 q 188 88 172 136 q 199 91 192 92 q 219 88 212 88 q 282 124 238 88 q 341 183 321 156 q 378 258 362 209 q 402 340 390 299 q 412 320 403 334 q 480 365 436 338 q 417 378 464 378 q 467 541 419 399 q 647 575 525 555 q 536 180 536 219 q 584 112 536 112 q 660 149 620 112 q 741 224 701 186 m 425 159 l 401 149 l 401 161 l 420 171 l 425 159 m 278 577 q 172 203 212 376 q 157 187 170 197 q 131 176 142 176 q 120 175 119 176 q 124 167 124 169 q 127 180 120 172 l 113 193 q 103 184 107 193 q 105 169 98 175 q 59 211 92 181 q 15 254 27 241 q 45 272 26 254 q 60 256 45 256 l 79 243 l 79 323 l 67 336 q 60 328 59 335 q 51 368 60 356 q 44 352 44 361 q 98 535 66 414 q 236 577 199 577 l 278 577 m 151 116 l 147 105 l 118 119 l 122 131 l 151 116 m 551 462 l 551 476 l 514 476 l 514 462 l 551 462 m 451 437 l 451 437 l 451 437 m 538 346 l 530 354 l 510 335 l 518 326 l 538 346 m 487 424 q 424 395 463 414 l 471 395 q 479 409 471 398 q 487 424 487 420 m 456 184 l 452 195 l 434 185 l 434 173 l 456 184 m 34 201 l 34 231 l 20 231 l 20 201 l 34 201 m 80 126 q 39 127 36 126 q 76 104 55 123 q 78 122 80 108 q 76 139 76 143 q 80 126 76 132 m 675 902 q 576 750 654 818 q 422 648 526 706 l 380 663 q 519 885 482 780 l 675 902 "},"⁄":{"x_min":0,"x_max":0,"ha":1389},"2":{"x_min":14,"x_max":698,"ha":725,"o":"m 272 338 l 248 328 l 248 340 l 267 350 l 272 338 m 453 92 l 453 92 l 453 92 m 225 267 l 195 247 l 188 258 l 217 277 l 225 267 m 379 68 l 360 39 l 349 47 l 368 75 l 379 68 m 633 897 q 613 900 629 897 q 594 904 598 904 q 613 930 594 912 l 601 915 q 617 906 605 911 q 633 897 629 901 m 588 896 l 574 896 l 574 918 l 588 918 l 588 896 m 668 800 l 649 771 l 638 779 l 657 807 l 668 800 m 424 976 l 420 964 l 394 974 l 394 985 l 424 976 m 470 974 q 466 930 470 959 q 462 883 462 901 q 454 897 458 890 q 439 910 446 910 q 427 902 433 910 q 438 910 427 907 q 457 916 452 912 q 431 944 457 936 q 436 930 429 938 q 428 946 433 934 q 420 955 424 955 q 470 974 449 955 m 416 914 q 372 938 399 911 l 388 927 q 390 942 393 932 q 387 959 387 959 q 416 914 403 926 m 363 952 l 349 952 l 349 974 l 363 974 l 363 952 m 325 942 q 267 873 320 926 q 221 786 221 826 q 229 749 221 768 q 218 765 226 755 l 206 751 l 213 708 q 226 717 219 708 q 234 733 234 726 q 295 684 266 700 l 295 645 q 174 598 264 627 q 176 629 191 614 q 146 604 170 629 q 107 641 115 622 q 102 684 102 653 q 173 847 102 764 q 270 926 233 918 q 270 900 270 908 q 280 894 272 894 q 309 959 287 916 q 295 938 309 952 l 307 926 l 325 942 m 698 753 q 665 727 698 743 q 673 717 665 724 q 686 701 681 710 q 695 721 694 708 q 653 606 695 692 q 588 516 612 516 q 580 518 580 516 q 582 523 580 520 q 584 528 584 526 q 581 532 584 530 q 453 408 552 476 q 283 290 368 349 q 270 296 277 299 q 126 173 243 245 q 132 159 130 169 q 138 145 134 149 q 158 153 146 153 q 172 144 168 153 q 185 129 179 133 q 189 146 191 135 q 182 158 188 158 q 287 157 221 157 q 393 157 331 157 q 452 157 450 157 q 521 161 504 157 q 578 234 556 176 l 606 234 q 625 225 617 225 q 541 51 586 101 q 403 -7 490 -7 l 328 -7 q 320 -3 320 -7 q 321 0 320 -2 q 323 4 323 4 q 315 5 323 5 q 198 5 305 5 q 82 5 91 5 q 75 3 75 5 q 78 8 75 5 q 81 14 81 12 q 74 17 80 17 q 46 7 65 17 q 14 -6 23 -3 l 14 44 q 52 103 14 65 q 105 199 52 146 q 204 306 191 290 q 216 290 204 290 q 254 346 229 312 q 283 379 279 379 q 293 376 292 379 q 291 372 293 375 q 289 367 289 369 q 291 363 289 364 q 334 427 306 391 q 405 506 361 444 q 475 601 467 592 q 521 744 480 629 l 508 757 q 499 729 503 752 l 499 781 l 507 781 q 472 875 498 816 q 485 897 480 878 q 492 919 490 916 q 500 902 494 918 q 516 878 507 887 q 528 915 523 885 q 546 948 533 942 q 537 937 546 946 q 546 928 537 934 q 561 914 556 923 q 552 900 547 900 q 537 870 537 883 q 546 853 537 861 q 539 858 542 857 q 531 863 535 859 q 512 844 512 863 q 568 836 528 836 q 552 799 568 807 q 557 781 552 787 q 583 804 570 784 q 593 828 593 821 q 592 830 593 830 q 585 819 590 828 q 600 813 592 813 q 585 793 600 808 q 595 787 589 789 q 605 781 601 785 q 620 806 616 791 q 617 828 625 822 q 624 834 623 826 q 622 849 626 841 q 612 856 618 856 q 614 886 609 877 q 623 866 614 876 q 642 846 632 856 q 647 886 647 853 q 643 879 646 884 q 642 872 641 874 q 653 870 644 870 q 662 865 665 870 q 662 854 659 857 q 677 859 670 859 q 674 848 675 859 q 661 838 673 838 l 647 846 q 651 830 647 842 q 655 814 655 818 q 639 823 647 823 q 626 786 626 809 q 649 717 626 765 q 659 781 659 732 q 698 753 675 775 m 507 856 l 497 878 l 486 874 l 495 856 l 507 856 m 673 688 q 661 709 665 695 q 642 696 661 702 q 657 692 646 696 q 673 688 669 688 m 675 666 l 655 687 l 647 679 l 667 659 l 675 666 m 581 729 l 581 729 l 581 729 m 622 677 l 622 707 l 597 707 l 618 702 l 622 677 m 497 628 l 497 628 l 497 628 m 513 596 l 513 596 l 513 596 m 499 595 l 486 595 l 477 550 l 491 550 l 499 595 m 371 365 l 360 396 l 349 391 l 358 365 l 371 365 m 339 365 l 339 394 l 324 394 l 324 365 l 339 365 "},"ü":{"x_min":15.921875,"x_max":745.5625,"ha":724,"o":"m 34 49 l 20 49 l 20 71 l 34 71 l 34 49 m 473 272 l 449 262 l 449 273 l 468 283 l 473 272 m 741 224 q 745 203 745 214 q 641 60 745 140 q 488 -16 543 -16 q 405 23 431 -16 q 383 96 389 47 q 371 136 377 136 q 318 90 365 136 q 237 18 264 35 q 151 -13 224 9 q 148 8 161 -4 q 132 -12 145 -10 q 105 -15 119 -13 q 119 2 105 -11 q 90 -1 106 4 q 73 -7 81 -3 q 76 6 73 -5 q 76 19 80 14 q 103 19 89 5 q 67 39 87 39 q 55 38 55 39 q 60 31 60 32 q 76 80 60 35 q 91 55 76 71 q 127 83 105 62 q 89 98 115 86 l 89 152 q 123 136 102 148 q 164 176 139 148 q 151 148 164 161 q 188 88 172 136 q 199 91 192 92 q 219 88 212 88 q 282 124 238 88 q 341 183 321 156 q 378 258 362 209 q 402 340 390 299 q 412 320 403 334 q 480 365 436 338 q 417 378 464 378 q 467 541 419 399 q 647 575 525 555 q 536 180 536 219 q 584 112 536 112 q 660 149 620 112 q 741 224 701 186 m 425 159 l 401 149 l 401 161 l 420 171 l 425 159 m 278 577 q 172 203 212 376 q 157 187 170 197 q 131 176 142 176 q 120 175 119 176 q 124 167 124 169 q 127 180 120 172 l 113 193 q 103 184 107 193 q 105 169 98 175 q 59 211 92 181 q 15 254 27 241 q 45 272 26 254 q 60 256 45 256 l 79 243 l 79 323 l 67 336 q 60 328 59 335 q 51 368 60 356 q 44 352 44 361 q 98 535 66 414 q 236 577 199 577 l 278 577 m 151 116 l 147 105 l 118 119 l 122 131 l 151 116 m 551 462 l 551 476 l 514 476 l 514 462 l 551 462 m 451 437 l 451 437 l 451 437 m 538 346 l 530 354 l 510 335 l 518 326 l 538 346 m 487 424 q 424 395 463 414 l 471 395 q 479 409 471 398 q 487 424 487 420 m 456 184 l 452 195 l 434 185 l 434 173 l 456 184 m 34 201 l 34 231 l 20 231 l 20 201 l 34 201 m 80 126 q 39 127 36 126 q 76 104 55 123 q 78 122 80 108 q 76 139 76 143 q 80 126 76 132 "},"¯":{"x_min":312,"x_max":1031,"ha":695,"o":"m 1031 1079 l 312 1079 l 312 1148 l 1031 1148 l 1031 1079 "},"Z":{"x_min":42,"x_max":794,"ha":782,"o":"m 512 -31 l 499 -31 l 499 -12 l 512 -12 l 512 -31 m 773 899 q 641 698 773 857 q 505 541 573 620 q 446 491 497 530 q 408 442 408 460 q 409 434 408 438 q 450 624 425 511 q 448 627 449 626 q 391 425 408 483 l 377 440 q 355 389 366 405 q 289 334 334 357 q 291 355 297 348 q 288 342 289 353 q 276 334 287 334 q 267 338 267 334 q 264 342 267 342 q 264 300 264 323 q 244 303 258 300 q 223 307 231 307 q 233 327 217 327 q 243 323 244 327 q 246 319 243 319 q 277 369 246 338 q 288 362 281 366 q 298 355 295 359 q 299 366 303 360 q 289 371 295 371 q 308 399 289 380 q 340 418 327 418 q 342 430 344 423 q 333 437 339 436 q 344 441 340 437 q 344 452 349 446 q 370 440 357 452 q 376 452 376 444 q 359 463 376 463 q 645 780 460 569 q 491 764 546 764 q 392 781 482 764 q 294 799 303 799 q 166 715 166 799 q 198 646 166 683 q 231 598 231 609 q 211 562 231 583 q 163 539 188 539 l 147 524 q 135 550 143 528 q 119 567 128 567 q 103 560 110 567 q 103 577 103 564 q 103 592 103 590 l 115 605 q 87 626 105 613 q 137 683 100 646 q 123 688 131 688 q 158 753 137 710 q 156 764 161 757 q 89 665 122 721 q 213 866 122 790 q 405 940 301 940 q 527 922 414 940 q 649 904 639 904 q 694 914 664 904 q 740 939 727 925 l 773 939 l 773 899 m 794 124 q 779 109 792 124 q 756 95 766 95 q 745 102 747 95 q 734 109 743 109 q 709 98 720 109 q 722 66 722 86 q 709 65 716 72 q 708 54 703 59 q 688 62 695 62 q 710 89 710 81 q 693 95 698 101 q 645 70 683 95 q 672 58 657 58 l 665 25 q 650 21 657 25 q 640 18 643 18 l 624 37 q 638 34 622 37 q 652 37 648 32 q 628 66 655 55 q 608 42 622 54 l 608 42 q 610 44 609 42 q 639 77 617 60 q 631 93 637 82 q 657 102 637 93 l 670 87 q 675 104 672 89 q 762 173 751 173 q 773 168 772 173 q 782 164 775 164 q 773 183 782 175 q 794 192 787 192 l 794 124 m 612 82 l 600 82 l 600 101 l 612 101 l 612 82 m 309 376 l 309 376 l 309 376 m 593 24 q 579 44 585 30 q 559 62 574 55 q 581 84 563 70 q 565 110 577 94 q 593 108 567 108 l 593 24 m 511 96 l 501 96 l 492 112 l 502 117 l 511 96 m 550 95 q 549 27 549 90 q 543 38 549 33 q 532 39 537 44 q 550 95 538 60 m 569 18 l 557 18 l 557 44 l 569 44 l 569 18 m 440 110 l 428 110 l 428 150 l 440 150 l 440 110 m 487 68 q 463 52 459 62 q 448 55 463 69 l 459 69 q 445 76 451 76 q 466 105 448 83 l 455 119 q 487 68 477 98 m 397 131 l 385 131 l 385 164 l 397 164 l 397 131 m 254 272 l 244 272 l 235 288 l 245 292 l 254 272 m 383 138 l 371 138 l 371 157 l 383 157 l 383 138 m 368 149 l 359 142 l 342 159 l 349 167 l 368 149 m 481 23 l 460 15 l 460 25 l 477 34 l 481 23 m 425 82 l 408 64 l 400 72 l 418 89 l 425 82 m 498 -31 l 485 -31 l 485 9 l 498 9 l 498 -31 m 368 127 l 359 108 l 349 112 l 358 130 l 368 127 m 231 261 q 228 251 235 263 q 215 259 225 251 q 201 267 205 267 q 215 259 203 265 q 227 253 223 253 q 231 261 231 253 m 340 131 l 327 131 l 327 150 l 340 150 l 340 131 m 383 82 l 371 82 l 371 115 l 383 115 l 383 82 m 397 54 l 385 54 l 385 94 l 397 94 l 397 54 m 468 -17 l 456 -17 l 456 2 l 468 2 l 468 -17 m 426 19 l 414 19 l 414 52 l 426 52 l 426 19 m 283 145 l 271 145 l 271 164 l 283 164 l 283 145 m 397 12 l 385 12 l 385 38 l 397 38 l 397 12 m 383 19 l 371 19 l 371 38 l 383 38 l 383 19 m 340 54 l 327 54 l 327 80 l 340 80 l 340 54 m 412 -24 l 400 -24 l 400 -5 l 412 -5 l 412 -24 m 254 110 l 242 110 l 242 157 l 254 157 l 254 110 m 383 -10 l 371 -10 l 371 9 l 383 9 l 383 -10 m 364 -18 q 355 3 363 -10 q 348 -7 348 0 l 348 35 q 364 17 348 17 l 364 -18 m 183 173 l 170 173 l 170 192 l 183 192 l 183 173 m 154 194 l 142 194 l 142 213 l 154 213 l 154 194 m 340 12 l 327 12 l 327 30 l 340 30 l 340 12 m 312 25 l 299 25 l 299 73 l 312 73 l 312 25 m 260 82 l 250 82 l 242 98 l 252 102 l 260 82 m 297 40 l 285 40 l 285 59 l 297 59 l 297 40 m 220 102 q 213 116 220 105 q 205 105 205 112 l 205 147 q 212 127 205 141 q 220 102 220 113 m 240 89 l 228 89 l 228 115 l 240 115 l 240 89 m 163 185 q 159 164 163 186 q 161 137 157 149 q 155 151 161 144 q 149 133 148 143 q 135 179 149 152 q 142 166 135 171 q 155 158 149 162 q 163 185 163 165 m 283 19 l 271 19 l 271 38 l 283 38 l 283 19 m 240 54 l 228 54 l 228 80 l 240 80 l 240 54 m 197 107 l 180 59 l 170 63 l 186 107 l 197 107 m 125 131 l 113 131 l 113 150 l 125 150 l 125 131 m 109 130 l 105 120 l 87 129 l 91 139 l 109 130 m 169 47 l 156 47 l 156 65 l 169 65 l 169 47 m 111 25 l 99 25 l 99 94 l 111 94 l 111 25 m 125 33 l 113 33 l 113 52 l 125 52 l 125 33 m 83 68 l 71 68 l 71 94 l 83 94 l 83 68 m 54 40 l 42 40 l 42 59 l 54 59 l 54 40 m 83 -2 l 71 -2 l 71 38 l 83 38 l 83 -2 m 68 -9 l 56 -9 l 56 30 l 68 30 l 68 -9 m 212 828 l 212 847 l 199 847 l 199 828 l 212 828 m 465 538 q 438 515 440 515 q 458 503 444 508 q 461 520 458 506 q 465 538 465 534 m 176 791 l 163 791 l 159 765 l 171 765 l 176 791 m 152 615 l 149 625 l 132 617 l 132 607 l 152 615 "},"u":{"x_min":15.921875,"x_max":745.5625,"ha":724,"o":"m 34 49 l 20 49 l 20 71 l 34 71 l 34 49 m 473 272 l 449 262 l 449 273 l 468 283 l 473 272 m 741 224 q 745 203 745 214 q 641 60 745 140 q 488 -16 543 -16 q 405 23 431 -16 q 383 96 389 47 q 371 136 377 136 q 318 90 365 136 q 237 18 264 35 q 151 -13 224 9 q 148 8 161 -4 q 132 -12 145 -10 q 105 -15 119 -13 q 119 2 105 -11 q 90 -1 106 4 q 73 -7 81 -3 q 76 6 73 -5 q 76 19 80 14 q 103 19 89 5 q 67 39 87 39 q 55 38 55 39 q 60 31 60 32 q 76 80 60 35 q 91 55 76 71 q 127 83 105 62 q 89 98 115 86 l 89 152 q 123 136 102 148 q 164 176 139 148 q 151 148 164 161 q 188 88 172 136 q 199 91 192 92 q 219 88 212 88 q 282 124 238 88 q 341 183 321 156 q 378 258 362 209 q 402 340 390 299 q 412 320 403 334 q 480 365 436 338 q 417 378 464 378 q 467 541 419 399 q 647 575 525 555 q 536 180 536 219 q 584 112 536 112 q 660 149 620 112 q 741 224 701 186 m 425 159 l 401 149 l 401 161 l 420 171 l 425 159 m 278 577 q 172 203 212 376 q 157 187 170 197 q 131 176 142 176 q 120 175 119 176 q 124 167 124 169 q 127 180 120 172 l 113 193 q 103 184 107 193 q 105 169 98 175 q 59 211 92 181 q 15 254 27 241 q 45 272 26 254 q 60 256 45 256 l 79 243 l 79 323 l 67 336 q 60 328 59 335 q 51 368 60 356 q 44 352 44 361 q 98 535 66 414 q 236 577 199 577 l 278 577 m 151 116 l 147 105 l 118 119 l 122 131 l 151 116 m 551 462 l 551 476 l 514 476 l 514 462 l 551 462 m 451 437 l 451 437 l 451 437 m 538 346 l 530 354 l 510 335 l 518 326 l 538 346 m 487 424 q 424 395 463 414 l 471 395 q 479 409 471 398 q 487 424 487 420 m 456 184 l 452 195 l 434 185 l 434 173 l 456 184 m 34 201 l 34 231 l 20 231 l 20 201 l 34 201 m 80 126 q 39 127 36 126 q 76 104 55 123 q 78 122 80 108 q 76 139 76 143 q 80 126 76 132 "},"˜":{"x_min":0,"x_max":0,"ha":1389},"Ó":{"x_min":50.34375,"x_max":872.171875,"ha":882,"o":"m 179 322 l 163 338 q 179 348 168 340 q 185 335 185 343 q 179 322 185 327 m 157 316 l 157 316 l 157 316 m 121 304 l 98 289 l 92 297 l 115 312 l 121 304 m 201 124 l 184 124 l 184 135 l 201 135 l 201 124 m 87 232 l 70 232 l 70 243 l 87 243 l 87 232 m 88 215 l 88 215 l 88 215 m 227 63 l 227 63 l 227 63 m 185 98 l 177 92 l 161 108 l 168 115 l 185 98 m 96 159 l 87 159 l 79 174 l 88 177 l 96 159 m 96 127 l 87 127 l 79 149 l 88 151 l 96 127 m 862 738 q 840 634 862 740 q 816 641 827 647 q 842 626 816 632 q 660 256 803 447 q 324 -6 498 39 l 312 5 q 287 -13 295 -13 q 274 -7 279 -13 q 262 -1 269 -1 q 251 -3 254 -1 q 240 -6 248 -6 q 98 92 156 -6 q 50 245 50 174 l 50 285 q 65 278 55 285 q 81 307 67 291 q 66 316 76 309 q 52 291 62 307 l 52 328 q 71 316 60 328 q 76 335 76 326 q 71 354 76 345 q 59 335 68 348 l 59 379 q 65 360 59 373 q 68 376 68 366 q 81 396 67 384 q 63 400 77 400 q 122 601 85 511 q 134 609 124 604 q 280 843 180 732 q 490 970 393 970 q 511 966 498 970 q 531 962 525 962 q 313 661 372 800 q 255 478 290 605 q 233 472 248 478 q 251 468 237 468 q 227 425 255 440 l 227 397 q 243 392 233 392 q 243 298 243 361 q 243 231 243 234 q 280 165 243 210 q 338 120 318 120 q 361 113 344 120 q 386 107 377 107 q 577 218 476 107 q 726 451 659 311 q 794 653 786 578 q 800 640 794 649 q 811 773 811 705 q 741 913 811 913 q 647 850 692 913 q 596 750 611 802 q 582 631 582 695 q 645 594 604 619 q 611 541 645 582 q 566 500 578 500 q 477 548 505 500 q 456 636 456 584 q 528 837 456 736 l 542 824 q 542 836 545 827 q 540 854 539 848 q 744 970 637 970 q 838 881 807 970 q 862 738 862 816 m 255 508 l 255 525 l 244 525 l 244 508 l 255 508 m 170 557 l 170 557 l 170 557 m 147 565 l 147 595 l 136 595 l 136 565 l 147 565 m 233 456 l 233 456 l 233 456 m 204 483 l 204 500 l 193 500 l 193 483 l 204 483 m 138 543 l 138 554 l 121 554 l 121 543 l 138 543 m 138 526 l 138 526 l 138 526 m 191 464 l 183 482 l 174 478 l 182 464 l 191 464 m 153 479 l 138 501 l 130 496 l 144 474 l 153 479 m 113 513 l 113 513 l 113 513 m 113 468 l 113 468 l 113 468 m 181 430 q 151 414 169 425 l 168 399 q 174 414 168 402 q 181 430 181 427 m 126 449 l 126 449 l 126 449 m 100 468 l 97 477 l 83 470 l 83 460 l 100 468 m 187 367 q 187 396 187 367 q 170 389 187 390 q 178 380 174 389 q 187 367 184 369 m 141 394 l 138 430 l 128 430 l 128 394 l 141 394 m 109 406 l 109 436 l 98 436 l 98 406 l 109 406 m 128 383 l 128 383 l 128 383 m 109 385 l 99 385 l 92 363 l 100 360 l 109 385 m 115 351 l 106 355 l 98 338 l 106 334 l 115 351 m 872 1293 q 773 1142 851 1210 q 619 1040 722 1098 l 577 1054 q 716 1277 678 1172 l 872 1293 "},"k":{"x_min":17,"x_max":682.421875,"ha":665,"o":"m 501 39 l 492 31 l 474 51 l 481 59 l 501 39 m 469 2 l 447 -7 l 447 4 l 465 13 l 469 2 m 425 21 l 415 17 l 404 40 l 416 40 l 425 21 m 440 14 l 430 -5 l 420 0 l 429 18 l 440 14 m 161 6 l 126 15 l 126 29 l 161 19 l 161 6 m 682 145 l 628 90 q 563 38 621 86 q 502 -5 507 -5 q 494 -2 494 -5 q 496 1 494 -1 q 498 6 498 4 q 495 10 497 8 q 490 -12 490 4 q 480 -10 486 -10 q 456 -15 473 -10 q 430 -20 438 -20 q 394 -10 418 -20 q 369 4 369 -1 q 385 9 369 9 l 385 28 l 372 41 q 351 17 351 19 q 316 80 344 37 q 354 71 331 67 q 316 90 345 90 q 333 135 316 135 q 331 156 343 144 q 359 150 359 156 l 369 162 q 359 174 365 166 q 350 185 353 182 q 377 193 360 176 q 359 202 368 198 q 355 221 359 202 q 329 190 339 215 q 338 247 329 206 l 324 261 q 294 263 309 262 q 263 277 277 265 l 263 304 q 338 322 290 322 q 419 358 382 322 q 454 428 454 392 q 433 473 454 453 q 388 494 413 494 l 372 486 q 367 489 367 486 q 369 494 367 490 q 372 499 372 498 q 365 502 371 502 q 354 498 353 502 q 353 487 355 491 q 268 432 320 487 q 199 338 218 381 q 187 341 192 348 q 195 288 195 320 q 147 183 195 208 q 150 166 147 170 q 159 182 158 174 q 167 163 159 176 q 175 145 175 151 q 155 122 175 133 q 177 107 162 119 l 166 102 q 163 96 166 101 q 160 89 160 91 q 177 79 160 81 q 168 65 177 75 q 155 45 158 53 q 160 31 158 42 q 166 17 162 21 q 176 37 172 24 l 176 12 q 74 -5 111 -5 q 37 3 50 -5 q 29 -8 28 -1 q 55 36 29 11 q 38 50 41 44 q 58 41 45 49 q 80 74 74 55 q 93 107 92 104 q 88 117 89 111 q 82 127 86 123 q 67 101 75 114 q 58 71 58 83 q 58 65 58 68 q 43 89 58 73 q 18 74 30 74 l 18 119 q 51 89 36 119 q 79 135 61 103 q 106 103 90 135 q 116 108 109 101 q 78 151 95 151 q 49 142 67 151 q 18 128 24 130 q 49 144 18 144 q 57 174 57 150 q 29 154 29 160 q 23 170 29 156 q 17 193 17 183 q 34 257 17 210 q 53 306 47 296 q 40 244 40 279 q 59 228 40 246 q 79 192 79 211 q 77 181 79 187 l 109 188 q 100 201 109 194 q 85 208 92 208 l 105 228 q 134 181 112 212 q 120 244 134 201 q 78 233 110 242 q 116 255 96 233 q 86 251 112 255 q 62 253 71 249 q 79 258 66 249 l 79 294 q 42 324 70 311 q 122 631 42 440 q 206 811 144 684 q 225 851 216 831 q 256 888 240 880 q 395 941 309 912 q 491 968 477 968 q 531 919 518 968 q 538 868 538 891 q 484 709 538 786 q 376 561 430 635 q 479 579 443 579 q 574 543 533 579 q 615 462 615 508 q 579 381 615 419 q 501 331 546 345 q 510 351 501 334 q 524 385 520 373 q 497 351 511 375 q 482 314 483 327 q 426 315 497 315 q 399 274 412 315 q 453 281 413 277 q 415 218 437 261 l 425 205 q 440 236 429 217 q 455 267 451 255 q 481 207 481 259 q 486 124 481 129 q 499 103 488 112 q 511 89 511 93 q 501 76 511 84 q 535 33 515 62 q 545 37 538 30 l 530 69 q 601 137 542 86 q 663 205 653 183 q 682 197 675 197 l 682 145 m 63 213 l 58 202 l 34 212 l 34 223 l 63 213 m 484 845 q 475 874 484 859 q 449 892 465 892 q 323 722 388 892 q 249 487 302 669 q 484 845 484 762 m 600 439 l 595 450 l 552 424 l 557 413 l 600 439 m 555 410 l 547 418 l 528 399 l 535 390 l 555 410 m 379 536 l 368 541 l 355 513 l 365 508 l 379 536 m 426 334 l 426 334 l 426 334 m 239 424 l 239 424 l 239 424 m 139 461 l 110 461 q 115 448 110 457 q 121 435 121 439 q 139 461 121 456 m 472 84 l 472 84 l 472 84 m 465 178 q 454 183 463 178 q 441 182 446 186 q 424 202 433 192 q 402 211 415 212 l 377 211 q 396 182 399 199 q 401 198 396 192 q 381 96 393 124 q 366 111 377 105 q 350 120 351 119 q 339 97 343 112 q 349 100 345 100 q 355 85 354 100 q 365 57 355 65 q 370 72 370 60 q 374 89 370 85 q 377 88 377 89 q 388 81 381 81 q 409 77 399 81 q 422 74 420 74 q 441 112 422 91 q 460 105 448 105 l 443 127 q 437 119 441 127 q 423 112 433 112 q 412 120 412 112 q 409 135 412 132 q 403 120 409 128 q 399 123 399 123 q 400 135 400 127 q 406 161 400 146 q 420 190 418 183 q 465 178 431 178 m 345 163 l 345 177 l 324 177 l 324 163 l 345 163 m 479 21 l 461 52 l 450 52 l 468 17 l 479 21 m 447 19 l 431 74 l 420 69 l 436 19 l 447 19 m 188 309 l 177 316 l 159 288 l 169 281 l 188 309 m 150 316 l 150 337 l 135 337 l 135 316 l 150 316 m 162 268 l 162 268 l 162 268 m 124 325 q 49 360 108 340 q 40 340 49 353 q 49 342 43 340 q 66 345 55 345 q 88 331 79 345 q 98 302 97 316 q 108 316 98 308 q 124 325 118 325 m 135 269 l 135 290 l 122 290 l 122 269 l 135 269 m 103 285 l 93 292 l 75 265 l 85 258 l 103 285 m 158 199 l 158 228 l 145 228 l 145 199 l 158 199 m 117 173 l 113 185 l 95 175 l 95 164 l 117 173 m 141 129 l 132 151 l 122 147 l 131 129 l 141 129 m 109 65 l 109 65 l 109 65 "},"ˇ":{"x_min":173.25,"x_max":601.171875,"ha":463,"o":"m 601 927 l 592 893 q 382 669 469 811 l 237 646 q 229 781 237 734 q 173 901 216 852 l 180 929 q 350 771 281 893 q 601 927 467 894 "},"Ù":{"x_min":36,"x_max":1064.296875,"ha":1055,"o":"m 578 158 l 578 158 l 578 158 m 475 55 q 466 29 475 39 q 457 46 465 35 q 475 55 469 55 m 739 566 l 720 558 l 720 567 l 735 576 l 739 566 m 521 720 q 517 637 521 657 q 486 553 511 597 q 474 553 474 566 q 476 563 471 557 l 466 574 q 459 566 460 574 q 463 555 458 559 q 402 618 405 598 q 381 613 397 613 q 396 625 384 617 q 411 636 408 633 q 423 624 411 624 l 437 614 l 437 677 l 429 688 q 423 682 422 687 q 413 716 423 709 q 425 741 425 729 q 409 746 420 746 q 399 734 387 746 q 382 740 387 740 l 382 905 q 397 921 397 905 q 404 915 397 916 q 423 911 416 913 l 423 915 q 406 933 424 926 q 421 942 421 936 q 506 835 485 896 q 521 720 521 794 m 1062 214 q 1060 146 1066 186 q 780 -21 925 -21 q 713 14 755 -21 q 664 70 673 47 q 651 128 657 85 q 638 196 644 178 q 587 120 613 158 q 510 42 554 73 q 504 42 506 47 q 508 33 503 37 q 489 36 502 27 q 485 27 483 32 q 488 18 488 18 q 445 3 475 9 q 408 -7 415 -2 q 421 23 411 1 q 464 14 437 14 q 429 49 456 25 q 410 23 422 42 q 402 36 410 26 q 393 14 396 31 q 396 -13 389 -2 q 381 14 381 -4 q 411 66 381 30 q 410 77 412 70 q 408 86 408 84 q 480 81 425 81 q 523 115 490 81 q 570 174 556 149 q 664 416 600 227 q 681 423 669 416 q 668 428 675 428 q 686 499 673 436 q 714 546 694 539 q 701 555 714 555 q 755 712 713 602 q 778 823 767 767 q 829 946 796 898 q 993 955 863 955 l 910 632 q 859 613 894 629 q 863 598 859 602 q 902 610 879 602 q 855 411 888 562 q 815 182 815 229 q 832 117 815 148 q 885 81 852 81 q 988 143 919 81 q 1062 214 1025 178 m 408 584 l 401 578 l 385 594 l 392 600 l 408 584 m 438 521 q 436 531 435 526 q 435 503 436 503 q 406 522 419 518 q 438 521 404 521 m 498 546 q 470 518 490 535 q 482 493 482 505 q 441 413 482 460 q 438 424 438 416 q 435 436 438 432 q 457 436 446 425 q 428 452 445 452 q 419 450 418 452 q 423 445 423 446 q 436 484 423 448 q 447 464 436 477 q 476 487 458 469 q 446 498 467 489 l 446 544 q 473 529 446 541 q 498 546 490 546 m 402 453 l 391 453 l 391 477 l 402 477 l 402 453 m 421 312 l 410 312 l 410 336 l 421 336 l 421 312 m 415 274 l 404 274 l 404 291 l 415 291 l 415 274 m 374 -14 l 328 -14 q 238 70 269 -14 q 215 189 215 130 q 292 522 215 299 q 369 800 369 744 q 349 867 369 836 q 282 905 324 905 q 170 830 216 905 q 132 713 132 768 q 138 657 132 675 q 180 601 148 631 q 189 576 189 585 q 161 524 189 552 q 109 497 133 497 q 36 627 36 497 q 112 839 36 725 q 283 962 193 962 l 374 962 l 374 -14 m 898 776 l 895 786 l 880 778 l 880 768 l 898 776 m 814 787 l 814 799 l 784 799 l 784 787 l 814 787 m 803 696 l 797 702 l 781 686 l 788 680 l 803 696 m 837 589 l 837 589 l 837 589 m 751 636 l 748 645 l 733 638 l 733 628 l 751 636 m 450 893 q 440 893 446 890 q 422 899 430 899 q 415 908 406 899 q 404 894 412 905 q 394 882 396 884 q 416 860 407 882 q 423 873 416 866 q 429 860 428 867 q 450 893 432 876 m 430 803 q 423 815 430 806 q 416 828 416 825 q 401 797 401 809 q 405 804 404 797 q 410 815 406 812 q 430 803 416 812 m 396 185 l 388 214 l 377 214 l 385 185 l 396 185 "},"Ÿ":{"x_min":0,"x_max":0,"ha":1389},"¢":{"x_min":0,"x_max":0,"ha":1389},"Ω":{"x_min":0,"x_max":0,"ha":1389},"ß":{"x_min":0,"x_max":0,"ha":1389},"é":{"x_min":17.0625,"x_max":566.109375,"ha":507,"o":"m 529 209 l 520 137 q 508 153 520 153 q 382 30 517 107 q 385 45 382 32 q 388 67 388 59 q 369 80 382 67 q 368 61 365 76 q 373 16 373 37 q 229 -14 293 -14 q 81 37 135 -14 q 26 178 26 89 q 26 200 26 189 q 39 214 33 208 q 55 222 46 224 q 68 181 55 199 l 72 181 q 64 254 64 196 q 48 314 64 303 q 60 330 53 319 q 65 395 58 353 q 192 536 111 483 q 344 585 268 585 q 481 466 481 585 q 412 343 481 392 q 252 261 380 319 l 252 301 q 318 365 282 317 q 358 452 358 416 q 346 499 358 473 q 304 535 330 535 q 224 478 265 535 q 182 390 186 427 q 185 402 178 402 l 174 411 q 152 318 164 366 q 156 356 147 338 l 145 367 q 133 338 138 357 q 120 307 127 318 q 166 303 135 309 q 176 328 171 308 l 176 286 q 182 278 179 282 q 196 274 184 274 q 203 278 203 274 q 201 281 203 279 q 200 285 200 284 q 206 289 200 289 q 232 274 217 289 q 237 289 237 278 q 242 303 237 299 q 211 238 242 246 q 188 260 199 238 q 178 227 178 250 q 215 148 178 193 q 269 103 247 108 q 307 96 288 99 q 341 80 337 89 q 361 96 357 96 q 368 94 365 96 l 384 108 q 390 94 384 100 q 529 209 403 116 m 42 317 l 27 243 l 17 243 l 31 317 l 42 317 m 374 370 l 367 377 l 349 359 l 356 352 l 374 370 m 194 437 l 184 441 l 175 422 l 185 418 l 194 437 m 303 305 l 293 326 l 283 322 l 292 305 l 303 305 m 166 399 l 166 425 l 154 425 l 154 399 l 166 399 m 94 312 l 91 352 l 78 352 l 82 312 l 94 312 m 354 31 l 354 57 l 341 57 l 341 31 l 354 31 m 100 298 l 93 305 l 75 287 l 82 280 l 100 298 m 274 53 l 265 74 l 255 70 l 264 53 l 274 53 m 167 296 q 137 216 147 263 q 131 238 131 223 q 149 295 131 274 l 122 295 l 122 211 q 136 198 133 211 q 113 36 125 140 q 146 121 119 63 q 141 154 141 135 q 154 225 141 178 q 167 296 167 275 m 123 187 l 111 187 l 103 146 l 115 146 l 123 187 m 566 901 q 467 750 545 818 q 313 648 417 706 l 272 663 q 410 885 373 780 l 566 901 "},"s":{"x_min":4.3125,"x_max":461,"ha":579,"o":"m 380 132 l 380 132 l 380 132 m 55 37 l 41 37 l 41 59 l 55 59 l 55 37 m 388 595 q 379 574 385 587 q 369 584 374 574 q 361 595 365 594 l 388 595 m 461 293 q 362 86 461 185 q 152 -12 264 -12 q 60 14 115 -12 q 123 112 80 47 l 111 124 q 43 27 91 88 q 30 63 30 43 q 47 109 30 87 q 50 67 50 106 q 77 100 77 77 q 60 130 77 116 q 81 145 69 130 q 102 172 99 169 l 129 172 q 161 107 137 167 q 220 61 181 61 q 304 105 265 61 q 340 185 340 146 q 312 275 340 218 q 260 344 284 331 q 312 438 275 364 q 320 421 316 434 q 328 404 325 408 q 365 433 356 417 q 324 457 360 439 q 357 509 357 489 q 352 526 357 522 q 256 365 316 471 q 231 422 247 385 q 134 301 227 417 q 140 331 134 331 l 128 341 q 4 165 113 242 l 4 227 q 150 404 81 298 q 240 574 209 496 q 248 558 240 570 q 286 578 268 574 q 313 589 304 582 q 331 526 313 570 q 341 563 341 548 q 332 584 341 578 q 361 546 354 571 q 369 526 366 526 q 380 526 381 526 q 377 534 377 533 q 379 498 376 520 q 381 465 381 475 q 409 425 381 461 q 441 354 438 390 q 454 337 447 350 q 455 297 450 303 q 461 293 461 290 m 316 564 q 310 561 313 564 q 296 558 308 558 q 283 565 285 558 q 278 573 280 573 l 278 535 q 316 564 288 535 m 393 418 q 378 430 385 418 q 370 408 369 430 q 393 418 370 417 m 400 393 l 400 393 l 400 393 m 223 442 l 211 446 l 201 426 l 212 421 l 223 442 m 151 358 l 151 388 l 137 388 l 137 358 l 151 358 m 134 145 l 122 149 l 112 128 l 123 123 l 134 145 "},"B":{"x_min":22,"x_max":1057.390625,"ha":1055,"o":"m 892 565 l 881 565 l 881 595 l 892 595 l 892 565 m 918 432 l 918 432 l 918 432 m 186 667 l 186 667 l 186 667 m 202 628 l 199 619 l 177 627 l 177 637 l 202 628 m 924 856 l 917 810 l 906 810 l 913 856 l 924 856 m 802 941 l 793 923 l 784 927 l 792 944 l 802 941 m 1057 696 q 1043 673 1043 696 q 1014 712 1025 680 q 1008 616 1008 675 q 1005 628 1005 618 q 1002 641 1005 638 q 831 516 953 569 q 959 434 919 480 q 1005 294 1005 379 q 921 90 1005 186 q 732 -8 834 -8 q 632 7 679 -8 q 569 69 569 28 q 643 166 569 131 q 667 83 658 141 q 700 44 673 44 q 797 191 762 44 q 819 346 819 286 q 730 495 819 482 q 733 529 730 514 q 736 544 736 544 q 756 542 746 542 q 848 616 812 542 q 876 731 876 675 q 801 887 876 825 q 642 944 732 944 q 567 928 635 944 q 491 912 499 912 q 479 918 482 912 q 475 924 477 924 q 364 841 441 896 q 360 856 364 841 q 357 891 357 872 q 386 912 376 891 q 361 905 379 916 q 527 972 411 959 l 552 983 q 563 986 558 983 q 578 989 569 989 q 602 988 577 989 q 683 988 629 988 q 704 962 683 967 q 697 987 704 968 q 898 945 807 975 q 1009 870 1009 909 q 1015 718 1009 772 q 1028 746 1030 730 q 1031 768 1026 762 q 1045 775 1034 771 q 1054 783 1054 779 q 1048 736 1051 759 q 1057 696 1048 700 m 924 745 l 924 782 l 913 782 l 913 745 l 924 745 m 679 946 l 665 972 l 656 972 l 670 943 l 679 946 m 924 687 l 915 712 l 906 709 l 914 687 l 924 687 m 469 953 l 469 953 l 469 953 m 279 847 l 279 847 l 279 847 m 350 824 l 341 905 q 151 626 151 781 q 155 614 151 618 q 157 607 160 609 q 174 535 157 568 q 234 494 196 494 q 284 508 247 494 q 350 539 325 523 l 350 576 q 296 619 326 584 q 266 670 266 653 q 350 824 266 740 m 754 812 q 716 841 740 841 q 537 721 608 841 q 457 491 486 634 q 435 343 446 417 q 417 265 429 313 q 408 220 408 227 q 417 166 408 203 q 427 115 427 130 q 421 95 427 102 q 398 204 416 111 q 342 99 379 140 q 243 50 299 50 q 170 130 170 50 q 175 170 170 139 q 181 216 181 200 q 167 256 181 244 q 67 221 117 238 q 22 140 22 197 q 100 13 22 47 q 243 -8 148 -8 q 355 23 286 -8 q 435 70 412 50 q 614 295 568 155 q 659 553 626 331 q 754 812 683 715 "},"…":{"x_min":0,"x_max":0,"ha":1389},"?":{"x_min":40.921875,"x_max":591,"ha":608,"o":"m 204 259 q 172 353 172 313 q 209 438 172 398 q 283 500 225 455 q 416 735 416 603 q 386 839 416 798 q 291 885 352 885 q 202 850 238 885 q 166 763 166 815 q 217 689 166 689 q 243 674 243 689 q 195 626 243 656 q 128 596 147 596 q 81 639 100 596 q 66 706 66 674 q 169 892 66 813 q 376 965 265 965 q 531 903 471 965 q 591 747 591 842 q 505 544 591 638 q 326 405 447 480 q 260 360 275 373 q 228 292 228 329 q 230 268 228 288 l 204 259 m 292 145 q 252 35 273 68 q 156 -16 219 -16 q 40 30 103 -16 q 114 188 72 67 q 228 133 166 133 q 292 145 245 133 "},"H":{"x_min":18.65625,"x_max":1224,"ha":1228,"o":"m 977 470 l 977 470 l 977 470 m 1224 190 l 1213 190 l 1213 226 l 1224 226 l 1224 190 m 946 475 l 935 475 l 935 498 l 946 498 l 946 475 m 968 479 q 956 460 956 458 q 961 444 956 454 q 938 436 946 444 q 968 479 954 473 m 933 456 l 922 456 l 922 498 l 933 498 l 933 456 m 1218 179 l 1218 179 l 1218 179 m 895 456 l 884 456 l 884 479 l 895 479 l 895 456 m 952 399 l 942 393 l 922 425 l 930 431 l 952 399 m 1209 134 q 1198 125 1209 125 q 1182 119 1185 125 q 1190 153 1197 146 q 1195 165 1195 161 q 1183 177 1195 167 q 1195 176 1186 173 q 1209 181 1207 181 l 1209 134 m 869 486 l 862 453 l 851 453 l 858 486 l 869 486 m 927 382 l 927 382 l 927 382 m 1160 101 l 1151 101 l 1137 135 l 1146 138 l 1160 101 m 841 435 q 841 419 843 432 q 840 395 837 404 q 805 393 839 393 q 823 415 805 397 q 807 439 823 427 q 841 435 813 448 m 907 357 l 893 327 l 884 331 l 898 361 l 907 357 m 781 451 l 781 451 l 781 451 m 1143 84 q 1136 93 1143 85 q 1118 68 1129 88 q 1127 94 1127 75 q 1101 122 1127 112 q 1117 125 1102 125 q 1129 125 1129 125 q 1127 115 1132 121 q 1143 84 1131 106 m 797 417 l 797 417 l 797 417 m 855 379 l 826 358 l 821 367 l 849 387 l 855 379 m 768 439 l 768 439 l 768 439 m 774 420 l 774 420 l 774 420 m 788 368 l 776 368 l 776 397 l 788 397 l 788 368 m 1091 59 l 1091 59 l 1091 59 m 699 444 l 688 444 l 688 470 l 699 470 l 699 444 m 1087 103 q 1088 101 1088 102 q 1057 65 1088 95 q 1080 37 1067 58 q 1047 75 1067 46 q 1040 61 1036 64 q 1028 92 1028 82 q 1051 96 1038 83 q 1042 113 1042 109 q 1042 115 1042 115 q 1062 80 1050 115 q 1071 88 1065 80 q 1087 103 1080 98 m 781 350 l 781 350 l 781 350 m 899 233 l 896 224 l 880 232 l 883 241 l 899 233 m 882 243 l 874 226 l 864 230 l 873 246 l 882 243 m 1069 25 q 1009 43 1049 28 q 998 17 1005 33 q 978 43 999 21 q 964 11 964 26 q 975 -4 964 0 q 915 -14 949 -14 q 818 46 872 -14 q 766 144 766 104 q 817 229 766 172 q 828 243 823 231 q 839 258 833 256 q 854 268 842 255 q 836 273 849 273 q 895 372 863 308 q 919 353 915 360 q 939 309 929 331 q 884 328 936 324 q 883 313 880 324 q 886 298 886 298 q 891 258 879 283 q 860 264 881 268 q 900 245 865 260 q 928 309 911 267 q 926 299 928 306 q 924 289 924 293 q 930 281 928 281 q 933 287 933 281 q 933 272 933 298 q 933 233 933 247 q 920 264 929 238 q 916 209 898 242 q 879 211 902 209 l 860 204 q 874 184 874 192 q 867 175 868 178 q 871 173 868 173 q 904 181 871 173 q 906 178 904 178 q 916 191 916 178 q 913 200 916 196 q 920 191 916 198 q 927 181 924 185 q 933 223 933 195 q 941 158 950 183 q 935 154 939 158 q 921 151 930 151 q 900 157 900 151 q 905 171 900 163 q 881 163 891 173 q 860 140 863 142 q 882 119 865 133 q 888 156 895 143 q 904 125 904 140 q 919 137 910 128 q 935 150 929 146 q 939 132 935 136 q 953 141 943 134 q 966 151 962 147 q 993 114 971 135 q 1013 80 1013 96 q 1006 54 1013 69 q 1046 43 1028 43 q 1049 44 1047 44 q 1069 25 1050 44 m 815 315 q 804 296 811 308 q 793 277 797 283 q 782 300 793 299 q 815 315 800 300 m 854 223 l 854 223 l 854 223 m 964 131 q 959 113 966 123 q 947 93 952 103 q 932 112 932 109 q 939 118 937 112 q 950 125 941 125 q 961 128 959 125 q 964 131 964 131 m 992 56 q 969 70 984 60 q 984 93 969 77 q 992 56 984 84 m 1034 19 l 1017 3 l 1011 10 l 1027 25 l 1034 19 m 749 287 l 749 287 l 749 287 m 949 78 l 949 78 l 949 78 m 974 41 l 944 41 l 944 52 l 974 52 l 974 41 m 848 157 l 848 157 l 848 157 m 521 468 l 512 468 l 504 483 l 513 488 l 521 468 m 916 80 l 910 72 l 891 87 l 896 95 l 916 80 m 885 104 l 868 104 l 868 115 l 885 115 l 885 104 m 850 76 l 839 76 l 833 112 l 843 112 l 850 76 m 911 37 q 887 31 898 37 q 872 24 875 24 q 861 38 866 24 q 902 62 881 41 q 911 37 911 53 m 482 454 l 459 439 l 454 448 l 476 463 l 482 454 m 526 290 l 522 281 l 501 289 l 501 298 l 526 290 m 375 380 l 358 365 l 352 371 l 368 387 l 375 380 m 1091 806 l 1091 806 l 1091 806 m 1202 961 q 1075 741 1144 867 q 1064 743 1077 741 q 1043 741 1055 745 q 1050 731 1043 735 q 1058 725 1058 727 q 1056 722 1058 723 q 1042 705 1042 717 q 1037 713 1042 712 q 1025 711 1033 715 q 1038 690 1025 702 q 1019 717 1019 701 q 1003 734 1013 734 q 984 729 984 735 q 993 717 984 725 q 899 747 957 729 q 916 788 904 771 q 938 819 938 819 q 1014 908 964 858 q 1103 941 1043 921 q 1175 961 1163 961 l 1202 961 m 1012 683 l 1012 683 l 1012 683 m 1028 642 q 1009 661 1019 651 q 982 678 993 678 q 977 677 979 678 q 968 672 968 686 q 965 660 971 671 q 960 648 960 648 l 950 682 q 990 709 967 688 q 1028 642 1015 685 m 939 705 q 927 709 941 709 q 916 702 916 709 q 918 711 912 706 q 910 724 912 717 q 916 732 908 732 q 939 705 916 717 m 1008 653 l 979 624 l 973 631 l 1001 659 l 1008 653 m 939 692 l 939 692 l 939 692 m 898 692 l 898 692 l 898 692 m 889 718 l 880 701 l 871 705 l 880 721 l 889 718 m 1041 534 l 1041 534 l 1041 534 m 971 582 l 960 582 l 960 612 l 971 612 l 971 582 m 920 627 l 909 627 l 909 644 l 920 644 l 920 627 m 1015 528 l 1015 528 l 1015 528 m 654 863 l 654 863 l 654 863 m 990 528 l 990 528 l 990 528 m 954 575 q 927 625 947 591 q 911 586 918 614 q 893 570 906 569 q 916 574 902 561 q 924 550 916 559 q 854 591 904 564 q 874 598 861 591 l 868 620 q 831 587 845 610 q 845 637 831 618 q 872 673 858 656 l 889 664 q 891 677 893 668 q 889 689 889 690 q 902 651 889 677 q 929 683 921 668 q 918 661 929 671 q 933 651 923 659 q 939 664 939 657 q 935 640 935 653 q 954 575 935 633 m 605 901 q 598 917 605 910 q 591 904 594 914 q 584 892 587 895 q 597 930 584 903 q 605 901 604 923 m 502 952 l 502 952 l 502 952 m 546 908 l 546 908 l 546 908 m 887 550 l 878 544 l 864 564 l 874 569 l 887 550 m 660 768 l 660 768 l 660 768 m 686 718 l 686 718 l 686 718 m 906 512 l 884 493 l 878 502 l 900 521 l 906 512 m 901 496 l 901 496 l 901 496 m 503 880 l 492 880 l 484 910 l 495 910 l 503 880 m 439 948 l 432 918 l 421 918 l 428 948 l 439 948 m 856 488 l 847 488 l 826 534 l 836 538 l 856 488 m 678 671 l 674 662 l 644 676 l 648 685 l 678 671 m 601 690 l 598 681 l 577 688 l 577 698 l 601 690 m 591 667 l 591 667 l 591 667 m 638 540 q 616 531 624 540 q 610 563 610 547 q 612 588 610 572 q 614 611 614 604 q 601 654 614 634 q 615 675 604 660 q 630 696 627 690 q 620 595 620 596 q 638 540 620 555 m 597 608 l 586 608 l 586 644 l 597 644 l 597 608 m 361 891 l 349 811 l 339 811 l 352 891 l 361 891 m 319 806 l 319 806 l 319 806 m 373 619 q 346 569 373 593 q 300 550 322 550 q 245 596 267 550 q 228 663 228 632 q 247 752 228 671 q 257 745 250 752 q 274 732 267 736 q 282 754 274 735 q 288 780 288 771 q 279 799 288 793 q 304 836 283 811 l 296 824 q 298 792 296 813 q 309 780 300 787 q 291 744 291 775 q 295 714 291 730 q 306 743 306 719 q 325 664 306 664 q 334 668 335 664 q 331 677 331 679 q 373 619 373 634 m 267 732 l 254 662 l 244 662 l 257 732 l 267 732 m 893 407 q 867 395 885 407 q 893 389 872 389 q 828 297 873 357 q 755 175 803 256 q 751 209 755 184 q 747 242 747 235 q 763 287 747 250 q 779 331 779 323 q 770 354 779 345 q 756 296 765 333 q 766 407 756 356 q 744 411 762 411 q 644 397 713 408 q 526 131 618 254 q 281 -14 415 -14 q 137 13 217 -14 q 18 122 18 51 q 64 193 18 151 q 129 233 108 233 q 154 181 148 233 q 174 87 164 110 q 253 37 196 37 q 398 184 346 37 q 442 363 420 273 q 440 370 441 364 q 430 373 439 373 q 361 341 422 373 q 296 309 300 309 q 282 299 282 309 q 277 315 282 304 q 272 335 272 326 q 352 417 272 383 q 449 454 402 436 q 538 675 485 540 q 590 730 554 687 q 621 758 597 738 q 690 842 644 788 q 584 836 622 829 q 608 840 584 840 q 600 850 609 844 q 582 864 587 859 q 608 864 608 864 q 591 875 608 879 q 567 892 584 873 q 556 863 560 882 q 547 835 553 844 q 557 868 547 836 q 541 879 553 870 q 526 838 524 853 q 520 924 520 877 q 497 847 505 917 q 489 867 497 854 q 476 892 479 884 q 471 879 471 886 q 464 917 472 892 q 450 902 460 911 l 442 928 q 476 955 451 941 q 510 968 498 968 l 534 968 q 567 955 541 968 q 601 943 593 943 q 622 936 609 943 q 638 933 633 931 q 651 929 643 934 q 667 924 658 924 q 724 946 680 924 q 769 968 768 968 q 793 956 777 968 q 816 940 814 941 q 726 830 773 873 q 713 787 726 819 q 701 743 701 754 q 702 735 701 738 q 674 746 685 735 q 667 727 667 737 q 675 705 667 720 q 682 680 682 690 q 661 640 682 662 l 661 491 q 662 482 661 488 q 667 474 664 477 q 691 478 680 487 q 693 474 690 474 q 701 476 695 474 q 710 479 707 479 q 714 473 715 479 q 739 493 721 473 q 728 471 739 481 q 750 442 732 462 q 768 467 755 442 q 750 458 762 466 q 766 470 755 460 q 760 480 763 473 q 755 487 757 487 q 752 486 754 487 q 762 490 758 490 q 772 486 763 490 q 788 487 779 484 q 805 495 789 483 q 799 508 799 500 q 821 568 799 508 q 821 506 821 537 q 810 458 821 474 q 848 435 813 456 q 893 407 883 414 m 1069 880 l 1069 880 l 1069 880 m 1063 795 l 1063 806 l 1027 806 l 1027 795 l 1063 795 m 1066 775 l 1066 775 l 1066 775 m 1008 741 l 1000 759 l 992 756 l 999 741 l 1008 741 m 958 798 l 951 805 l 935 789 l 941 782 l 958 798 m 927 756 l 927 756 l 927 756 m 1151 549 q 1131 548 1143 546 q 1120 550 1120 551 q 1101 520 1111 527 q 1117 531 1104 521 q 1135 538 1127 538 q 1127 519 1140 532 q 1151 549 1151 531 m 1098 559 l 1098 559 l 1098 559 m 1097 513 l 1083 550 l 1074 547 l 1087 513 l 1097 513 m 1096 497 l 1081 513 l 1075 506 l 1089 491 l 1096 497 m 1066 521 l 1066 521 l 1066 521 m 984 597 l 984 597 l 984 597 m 996 557 l 996 587 l 985 587 l 985 557 l 996 557 m 1066 488 l 1059 524 l 1048 524 l 1055 488 l 1066 488 m 965 553 l 965 553 l 965 553 m 911 603 q 881 618 900 608 q 904 583 893 583 q 911 603 904 603 m 954 532 l 954 562 q 928 528 947 551 q 954 532 938 539 m 1013 463 q 1004 502 1003 479 q 992 454 1004 479 q 1013 463 992 463 m 689 781 l 689 781 l 689 781 m 933 515 l 933 515 l 933 515 m 471 939 l 471 939 l 471 939 m 660 749 l 660 749 l 660 749 m 876 528 l 876 528 l 876 528 m 626 747 l 626 747 l 626 747 m 452 882 l 452 882 l 452 882 m 448 858 l 448 869 l 419 869 l 419 858 l 448 858 m 410 886 l 410 930 q 366 888 391 918 q 410 886 368 886 m 658 620 l 633 628 l 633 618 l 654 610 l 658 620 m 398 852 l 398 863 l 368 855 l 368 844 l 398 852 m 648 572 l 648 572 l 648 572 m 622 502 l 622 502 l 622 502 m 315 616 l 315 616 l 315 616 m 287 627 l 287 657 l 276 657 l 276 627 l 287 627 "},"î":{"x_min":-69,"x_max":408,"ha":333,"o":"m 404 772 l 404 772 q 406 773 405 773 l 407 773 q 407 773 407 773 q 408 772 408 773 l 408 772 q 406 773 407 772 q 404 772 404 772 m 333 1064 l 322 982 q 313 985 320 985 q 286 979 307 985 q 256 973 266 973 q 242 979 244 973 q 228 1000 236 991 q 201 958 200 972 q 188 993 201 980 l 188 1037 q 219 1041 213 1037 q 209 1031 209 1033 q 223 1029 209 1029 q 239 1030 238 1029 q 237 1037 237 1023 q 238 1000 229 1018 q 270 1034 245 1011 q 251 1063 265 1043 l 287 1063 q 286 1037 277 1045 q 301 1047 288 1037 q 333 1064 317 1058 m 353 873 q 330 861 346 872 q 308 901 319 881 q 279 930 296 922 q 307 941 307 958 q 330 907 311 932 q 353 873 349 883 m 270 911 l 248 890 q 232 895 243 890 q 218 900 220 900 l 218 929 l 242 941 q 226 962 226 958 q 270 911 250 950 m 371 838 q 353 818 353 816 q 361 799 353 822 q 346 802 357 799 q 332 806 336 806 q 324 794 328 802 q 317 790 322 790 q 347 861 347 843 l 371 838 m 175 1045 q 157 982 157 1007 q 123 983 142 996 q 152 1018 133 993 q 175 1045 172 1042 m 326 847 q 312 819 311 833 q 295 859 312 835 q 272 897 275 887 l 326 847 m 273 867 l 261 842 l 248 848 l 260 871 l 273 867 m 164 958 q 133 871 164 916 q 145 916 145 892 q 132 953 145 938 l 154 935 q 164 958 163 945 m 142 914 l 132 905 l 92 946 l 101 956 l 142 914 m 122 865 q 96 840 112 861 q 69 815 79 820 q 58 843 58 830 q 77 868 58 859 q 67 876 77 876 q 51 871 57 878 q 62 883 51 878 q 81 880 74 887 q 76 905 91 890 q 99 891 87 905 q 122 865 110 878 m 38 793 q 13 777 30 790 q -12 819 13 793 q 18 823 -3 810 q 25 804 18 816 q 38 793 32 793 m -30 777 q -40 796 -30 782 q -69 750 -51 785 q -51 805 -69 770 q -37 795 -44 805 q -30 777 -30 785 m 300 1022 l 290 1031 l 249 989 l 258 979 l 300 1022 "},"c":{"x_min":6.28125,"x_max":522,"ha":507,"o":"m 350 38 l 350 38 l 350 38 m 131 32 l 117 32 l 117 54 l 131 54 l 131 32 m 156 497 l 146 460 l 132 460 l 142 497 l 156 497 m 522 220 q 522 151 522 198 q 430 68 496 121 q 310 -1 345 -1 q 303 2 301 -1 q 294 6 305 6 q 280 3 281 6 q 283 -5 282 9 q 275 22 283 14 q 269 -15 269 17 l 184 -15 q 188 3 184 -15 q 192 47 192 23 q 186 53 188 47 q 180 62 184 59 q 174 21 179 60 q 160 -1 171 -1 q 150 -5 150 -1 q 140 -9 150 -9 q 113 1 128 -9 q 88 17 89 17 q 97 72 88 33 q 91 76 93 72 q 85 86 88 82 q 77 34 77 71 q 75 88 75 50 q 75 140 75 125 q 95 133 88 133 q 80 113 95 129 q 98 101 93 101 q 113 172 99 105 q 122 244 122 216 q 144 241 133 234 q 121 277 121 262 q 140 332 121 292 q 147 316 139 323 q 148 325 148 321 q 142 348 148 336 q 135 363 135 360 q 154 457 135 385 q 187 538 174 538 q 204 532 200 538 q 211 522 208 527 q 207 542 219 529 q 261 576 230 563 q 271 538 261 552 q 279 584 279 543 q 319 589 287 584 q 361 594 351 594 q 446 551 406 594 q 484 470 484 511 q 458 423 484 446 q 421 403 435 403 q 401 395 412 403 q 381 387 391 387 q 373 391 371 387 q 365 395 375 395 q 350 386 354 395 q 342 371 342 372 q 342 421 342 391 q 342 461 342 450 q 358 524 342 499 q 304 531 342 524 q 258 538 266 538 q 248 529 246 538 q 252 514 252 505 q 236 546 248 526 q 231 531 235 541 q 226 518 226 521 q 239 512 226 512 q 183 412 206 479 q 160 288 160 345 q 187 183 160 256 q 239 102 216 102 l 313 102 q 415 129 372 102 q 522 220 444 146 m 144 415 q 125 371 124 396 q 116 411 125 398 q 97 398 110 409 q 115 368 106 383 q 129 335 129 347 q 92 149 129 275 q 77 173 92 158 q 57 115 64 151 q 45 62 46 67 q 30 101 36 75 q 20 141 22 138 q 13 133 13 140 q 14 149 14 141 q 10 202 14 165 q 6 255 6 238 q 28 320 6 299 q 42 336 42 333 q 33 346 42 338 q 50 340 44 340 q 40 359 56 344 q 83 413 59 377 q 127 474 115 460 q 126 441 121 460 q 144 415 130 421 m 392 521 l 378 521 l 370 476 l 383 476 l 392 521 m 321 539 l 311 562 l 299 558 l 309 539 l 321 539 m 376 448 l 364 448 l 354 422 l 366 418 l 376 448 m 202 468 l 202 489 l 188 489 l 188 468 l 202 468 m 152 363 l 152 363 l 152 363 m 108 326 l 108 362 l 93 362 l 93 326 l 108 326 m 317 84 q 288 70 304 84 q 263 49 267 51 q 290 54 285 49 q 297 14 301 31 q 317 84 303 41 m 182 146 l 182 159 l 161 159 l 161 146 l 182 146 m 286 92 q 234 70 264 89 q 233 86 225 79 q 229 14 215 58 q 227 26 227 19 q 250 64 227 44 q 286 92 268 78 m 99 244 l 86 244 l 74 182 l 86 182 l 99 244 m 202 64 l 202 140 l 189 140 l 189 64 l 202 64 m 155 172 l 141 172 l 132 127 l 147 127 l 155 172 m 170 108 l 157 108 l 149 48 l 162 48 l 170 108 m 139 64 l 139 125 l 125 125 l 125 64 l 139 64 "},"¶":{"x_min":0,"x_max":0,"ha":1389},"−":{"x_min":0,"x_max":0,"ha":1389},"≠":{"x_min":0,"x_max":0,"ha":1389},"•":{"x_min":0,"x_max":0,"ha":1389},"¥":{"x_min":0,"x_max":0,"ha":1389},"(":{"x_min":63,"x_max":630.578125,"ha":665,"o":"m 141 -58 l 130 -65 l 111 -37 l 121 -30 l 141 -58 m 196 -134 l 182 -134 l 182 -105 l 196 -105 l 196 -134 m 200 -163 l 179 -163 l 179 -149 l 200 -149 l 200 -163 m 345 659 l 322 649 l 322 661 l 341 670 l 345 659 m 301 623 l 301 623 l 301 623 m 630 994 q 459 807 559 939 q 338 603 359 675 q 304 576 329 588 q 319 571 312 571 q 218 79 218 291 q 319 -309 218 -123 q 250 -309 297 -309 q 166 -175 223 -266 q 159 -133 166 -149 q 127 -96 146 -123 q 102 -40 102 -61 q 122 -18 102 -22 q 113 -5 122 -12 q 98 2 104 2 l 114 21 q 110 39 114 36 q 103 31 103 38 q 106 43 99 36 q 93 69 90 59 q 140 153 119 105 q 138 162 145 162 q 178 172 148 155 q 172 190 178 185 q 115 199 148 186 l 115 245 q 145 249 141 245 q 100 280 136 260 q 100 299 100 284 q 100 318 100 314 q 110 301 101 314 q 121 321 112 307 q 83 376 101 331 q 110 342 96 370 l 121 355 q 108 375 119 359 q 98 397 98 387 q 107 414 98 409 q 117 421 117 419 q 126 389 114 411 q 135 411 128 397 q 132 429 132 414 l 150 414 q 168 429 168 431 q 165 433 167 431 q 194 435 179 420 q 177 447 194 453 q 173 445 175 446 l 150 469 q 135 445 135 454 q 121 464 133 448 q 115 484 115 475 q 143 499 127 484 q 170 515 158 515 q 138 552 158 526 q 228 689 176 631 q 276 767 238 735 q 397 865 319 796 q 553 990 449 924 q 587 994 560 994 l 630 994 m 141 495 l 127 495 l 127 524 l 141 524 l 141 495 m 92 336 l 71 316 l 64 325 l 83 344 l 92 336 m 93 288 l 79 288 l 79 317 l 93 317 l 93 288 m 77 271 l 63 271 l 63 301 l 77 301 l 77 271 m 77 208 l 63 208 l 63 245 l 77 245 l 77 208 m 113 141 q 83 112 83 112 q 87 125 83 112 q 85 138 90 134 q 113 141 95 129 m 457 845 l 449 852 l 422 825 l 429 817 l 457 845 m 402 789 l 393 797 l 366 769 l 374 761 l 402 789 m 305 699 l 305 699 l 305 699 m 281 723 l 277 734 l 258 725 l 258 712 l 281 723 m 265 683 l 261 694 l 243 685 l 243 673 l 265 683 m 157 96 l 157 118 l 143 118 l 143 96 l 157 96 m 77 128 l 77 157 l 63 157 l 63 128 l 77 128 m 126 74 l 126 74 l 126 74 m 157 -47 l 157 -10 l 143 -10 l 143 -47 l 157 -47 m 93 9 l 93 38 l 79 38 l 79 9 l 93 9 "},"U":{"x_min":36,"x_max":1064.296875,"ha":1055,"o":"m 578 158 l 578 158 l 578 158 m 475 55 q 466 29 475 39 q 457 46 465 35 q 475 55 469 55 m 739 566 l 720 558 l 720 567 l 735 576 l 739 566 m 521 720 q 517 637 521 657 q 486 553 511 597 q 474 553 474 566 q 476 563 471 557 l 466 574 q 459 566 460 574 q 463 555 458 559 q 402 618 405 598 q 381 613 397 613 q 396 625 384 617 q 411 636 408 633 q 423 624 411 624 l 437 614 l 437 677 l 429 688 q 423 682 422 687 q 413 716 423 709 q 425 741 425 729 q 409 746 420 746 q 399 734 387 746 q 382 740 387 740 l 382 905 q 397 921 397 905 q 404 915 397 916 q 423 911 416 913 l 423 915 q 406 933 424 926 q 421 942 421 936 q 506 835 485 896 q 521 720 521 794 m 1062 214 q 1060 146 1066 186 q 780 -21 925 -21 q 713 14 755 -21 q 664 70 673 47 q 651 128 657 85 q 638 196 644 178 q 587 120 613 158 q 510 42 554 73 q 504 42 506 47 q 508 33 503 37 q 489 36 502 27 q 485 27 483 32 q 488 18 488 18 q 445 3 475 9 q 408 -7 415 -2 q 421 23 411 1 q 464 14 437 14 q 429 49 456 25 q 410 23 422 42 q 402 36 410 26 q 393 14 396 31 q 396 -13 389 -2 q 381 14 381 -4 q 411 66 381 30 q 410 77 412 70 q 408 86 408 84 q 480 81 425 81 q 523 115 490 81 q 570 174 556 149 q 664 416 600 227 q 681 423 669 416 q 668 428 675 428 q 686 499 673 436 q 714 546 694 539 q 701 555 714 555 q 755 712 713 602 q 778 823 767 767 q 829 946 796 898 q 993 955 863 955 l 910 632 q 859 613 894 629 q 863 598 859 602 q 902 610 879 602 q 855 411 888 562 q 815 182 815 229 q 832 117 815 148 q 885 81 852 81 q 988 143 919 81 q 1062 214 1025 178 m 408 584 l 401 578 l 385 594 l 392 600 l 408 584 m 438 521 q 436 531 435 526 q 435 503 436 503 q 406 522 419 518 q 438 521 404 521 m 498 546 q 470 518 490 535 q 482 493 482 505 q 441 413 482 460 q 438 424 438 416 q 435 436 438 432 q 457 436 446 425 q 428 452 445 452 q 419 450 418 452 q 423 445 423 446 q 436 484 423 448 q 447 464 436 477 q 476 487 458 469 q 446 498 467 489 l 446 544 q 473 529 446 541 q 498 546 490 546 m 402 453 l 391 453 l 391 477 l 402 477 l 402 453 m 421 312 l 410 312 l 410 336 l 421 336 l 421 312 m 415 274 l 404 274 l 404 291 l 415 291 l 415 274 m 374 -14 l 328 -14 q 238 70 269 -14 q 215 189 215 130 q 292 522 215 299 q 369 800 369 744 q 349 867 369 836 q 282 905 324 905 q 170 830 216 905 q 132 713 132 768 q 138 657 132 675 q 180 601 148 631 q 189 576 189 585 q 161 524 189 552 q 109 497 133 497 q 36 627 36 497 q 112 839 36 725 q 283 962 193 962 l 374 962 l 374 -14 m 898 776 l 895 786 l 880 778 l 880 768 l 898 776 m 814 787 l 814 799 l 784 799 l 784 787 l 814 787 m 803 696 l 797 702 l 781 686 l 788 680 l 803 696 m 837 589 l 837 589 l 837 589 m 751 636 l 748 645 l 733 638 l 733 628 l 751 636 m 450 893 q 440 893 446 890 q 422 899 430 899 q 415 908 406 899 q 404 894 412 905 q 394 882 396 884 q 416 860 407 882 q 423 873 416 866 q 429 860 428 867 q 450 893 432 876 m 430 803 q 423 815 430 806 q 416 828 416 825 q 401 797 401 809 q 405 804 404 797 q 410 815 406 812 q 430 803 416 812 m 396 185 l 388 214 l 377 214 l 385 185 l 396 185 "},"◊":{"x_min":0,"x_max":0,"ha":1389},"Ñ":{"x_min":41,"x_max":1223.9375,"ha":1229,"o":"m 1223 906 q 1185 848 1223 860 q 1077 785 1120 827 q 1029 665 1057 765 q 975 435 1010 594 q 837 19 927 209 q 804 -6 827 -1 q 767 -14 785 -10 l 745 -14 q 736 42 745 26 q 735 40 736 41 q 736 -13 728 30 q 687 -13 719 -16 q 618 461 675 133 q 577 727 605 549 q 498 458 551 678 q 390 138 444 238 q 181 -15 308 -15 q 116 -5 136 -15 q 41 63 85 8 l 41 117 l 56 132 q 67 125 61 125 q 59 141 72 129 q 152 209 91 170 q 185 127 162 203 q 248 62 204 62 q 407 309 329 62 q 489 628 448 469 q 538 798 514 713 q 605 957 568 891 l 634 957 q 664 491 664 724 q 729 48 691 229 q 738 52 733 50 q 671 574 671 342 q 671 963 671 768 q 680 967 657 963 q 712 971 704 971 q 721 964 719 971 q 731 958 723 958 q 743 960 740 958 q 749 963 747 963 q 744 912 749 952 q 749 886 741 888 l 856 190 q 950 545 905 307 q 1182 971 1031 971 q 1213 946 1201 971 q 1223 906 1223 927 m 708 920 l 708 950 l 697 950 l 697 920 l 708 920 m 708 894 l 708 912 l 697 912 l 697 894 l 708 894 m 687 924 l 683 934 l 668 926 l 668 917 l 687 924 m 746 831 l 746 848 l 735 848 l 735 831 l 746 831 m 688 896 l 679 900 l 671 884 l 680 880 l 688 896 m 714 867 l 705 867 l 697 845 l 706 842 l 714 867 m 726 831 l 719 837 l 697 815 l 704 809 l 726 831 m 577 782 l 577 794 l 553 794 l 553 782 l 577 782 m 151 187 l 142 190 l 134 173 l 143 170 l 151 187 m 113 133 l 105 163 l 94 163 l 102 133 l 113 133 m 93 133 l 85 152 l 76 148 l 84 133 l 93 133 m 119 95 l 112 125 l 101 125 l 108 95 l 119 95 m 150 66 l 128 88 l 122 81 l 143 60 l 150 66 m 96 75 q 84 112 84 99 q 80 106 82 112 q 69 100 78 100 q 55 81 55 100 q 81 87 64 87 l 96 75 m 112 46 l 103 49 l 95 32 l 104 28 l 112 46 m 81 37 l 81 67 l 70 67 l 70 37 l 81 37 "},"F":{"x_min":24,"x_max":845,"ha":840,"o":"m 765 886 l 765 886 l 765 886 m 752 866 l 752 866 l 752 866 m 732 851 l 720 851 l 720 889 l 732 889 l 732 851 m 634 853 l 634 853 l 634 853 m 528 873 l 528 873 l 528 873 m 640 728 l 640 728 l 640 728 m 666 680 l 656 680 l 642 708 l 650 712 l 666 680 m 487 855 l 480 849 l 464 864 l 470 871 l 487 855 m 811 547 l 774 514 l 767 523 l 804 555 l 811 547 m 581 741 l 581 741 l 581 741 m 649 654 q 618 691 618 667 q 637 710 618 710 q 645 685 625 698 q 646 668 646 685 q 649 654 646 660 m 612 702 l 604 697 l 589 720 l 597 726 l 612 702 m 652 601 l 642 601 l 634 631 l 646 631 l 652 601 m 568 688 l 568 688 l 568 688 m 601 637 q 538 621 585 637 q 569 646 551 637 q 582 648 581 633 q 601 637 582 636 m 627 576 l 627 576 l 627 576 m 686 470 l 686 470 l 686 470 m 298 832 l 286 832 l 286 856 l 298 856 l 298 832 m 541 556 l 541 556 l 541 556 m 552 503 q 538 395 552 457 q 519 439 519 421 l 519 532 q 552 503 552 522 m 540 352 l 532 335 l 522 339 l 530 356 l 540 352 m 522 332 l 522 332 l 522 332 m 547 291 l 537 291 l 529 306 l 538 309 l 547 291 m 264 563 l 264 563 l 264 563 m 237 594 l 221 578 l 214 585 l 230 601 l 237 594 m 202 570 l 202 570 l 202 570 m 821 566 q 815 526 821 534 q 823 496 823 510 q 705 415 823 431 q 699 445 705 429 q 690 422 691 435 q 681 404 688 409 q 629 304 652 393 q 567 158 602 198 q 439 28 520 74 q 275 -14 362 -14 q 152 2 243 -14 q 68 45 109 9 q 24 120 24 83 q 59 188 24 143 q 121 236 95 236 l 155 236 q 176 109 169 130 q 271 32 202 32 q 352 75 306 32 q 411 163 398 119 q 411 110 411 154 l 426 119 l 420 200 q 447 293 432 238 l 447 329 q 309 284 415 329 q 412 424 338 362 q 472 553 472 472 q 499 551 487 540 q 479 562 499 562 q 513 659 507 601 q 526 651 519 659 q 540 640 535 643 q 560 664 547 649 q 597 685 593 664 q 619 632 600 675 q 632 632 623 632 q 650 632 642 632 q 661 646 661 632 q 662 513 649 562 q 687 500 674 513 q 718 530 692 504 q 757 553 734 545 l 773 540 q 821 566 787 550 m 561 187 l 561 187 l 561 187 m 508 211 l 496 211 l 496 248 l 508 248 l 508 211 m 403 134 l 403 134 l 403 134 m 422 42 l 414 24 l 404 28 l 412 45 l 422 42 m 304 25 l 304 25 l 304 25 m 178 67 l 170 44 l 160 48 l 168 67 l 178 67 m 189 21 l 189 21 l 189 21 m 845 992 l 845 992 l 845 992 m 818 946 l 818 946 l 818 946 m 812 911 l 800 911 l 800 955 l 812 955 l 812 911 m 799 911 l 787 911 l 787 942 l 799 942 l 799 911 m 765 946 l 765 946 l 765 946 m 739 958 l 739 958 l 739 958 m 732 931 l 720 931 l 720 975 l 732 975 l 732 931 m 686 965 l 686 965 l 686 965 m 719 911 l 707 911 l 707 955 l 719 955 l 719 911 m 706 918 l 695 918 l 695 955 l 706 955 l 706 918 m 666 944 l 654 944 l 654 981 l 666 981 l 666 944 m 587 970 l 576 970 l 576 1001 l 587 1001 l 587 970 m 640 898 l 628 898 l 628 962 l 640 962 l 640 898 m 627 904 l 615 904 l 615 975 l 627 975 l 627 904 m 541 978 l 541 978 l 541 978 m 574 918 l 562 918 l 562 949 l 574 949 l 574 918 m 520 984 l 505 961 l 496 966 l 512 990 l 520 984 m 561 891 l 549 891 l 549 955 l 561 955 l 561 891 m 515 946 l 515 946 l 515 946 m 482 988 l 474 957 l 463 957 l 470 988 l 482 988 m 488 939 l 488 939 l 488 939 m 495 912 l 495 912 l 495 912 m 423 952 l 423 952 l 423 952 m 450 838 q 393 840 442 840 q 433 868 420 852 q 399 858 421 871 q 416 877 397 877 q 428 880 426 877 q 432 887 430 883 q 429 901 427 896 q 435 929 435 911 q 445 909 436 922 q 450 838 450 903 m 390 968 q 395 951 395 960 q 386 917 395 939 q 371 877 373 886 q 354 903 354 894 q 362 925 354 910 q 370 946 370 939 q 376 923 370 929 q 383 946 380 930 q 390 968 386 962 m 380 862 q 371 831 370 843 q 361 837 368 834 q 350 843 354 840 q 261 789 321 814 q 236 671 236 745 q 242 654 236 664 q 248 642 248 644 q 247 622 233 625 q 335 570 335 609 q 313 541 335 551 q 287 509 309 527 q 238 488 261 488 q 171 537 199 488 q 150 606 150 576 q 210 781 150 679 q 333 929 265 876 q 325 907 333 922 q 314 881 316 887 q 324 880 319 876 q 329 889 329 884 q 352 856 338 879 q 359 862 357 856 q 357 873 362 868 q 370 867 360 870 q 380 862 380 864 m 818 919 l 818 919 l 818 919 m 752 939 l 752 939 l 752 939 m 752 899 l 752 899 l 752 899 m 739 912 l 739 912 l 739 912 m 713 893 l 713 893 l 713 893 m 686 906 l 686 906 l 686 906 m 652 877 l 652 922 l 642 922 l 642 877 l 652 877 m 600 845 l 600 909 l 589 909 l 589 845 l 600 845 m 587 845 l 587 914 l 575 914 l 575 845 l 587 845 m 547 878 l 547 916 l 535 916 l 535 878 l 547 878 m 363 906 l 363 906 l 363 906 "},"­":{"x_min":0,"x_max":0,"ha":1389},":":{"x_min":25.09375,"x_max":380.453125,"ha":390,"o":"m 380 534 q 341 427 360 457 q 247 375 307 375 q 127 417 195 375 q 197 578 160 453 q 312 520 269 520 q 351 527 328 520 q 380 534 375 534 m 273 144 q 234 37 252 67 q 143 -16 202 -16 q 25 27 93 -16 q 92 187 63 85 q 205 131 162 131 q 273 144 216 131 "},"Û":{"x_min":36,"x_max":1064.296875,"ha":1055,"o":"m 578 158 l 578 158 l 578 158 m 475 55 q 466 29 475 39 q 457 46 465 35 q 475 55 469 55 m 739 566 l 720 558 l 720 567 l 735 576 l 739 566 m 521 720 q 517 637 521 657 q 486 553 511 597 q 474 553 474 566 q 476 563 471 557 l 466 574 q 459 566 460 574 q 463 555 458 559 q 402 618 405 598 q 381 613 397 613 q 396 625 384 617 q 411 636 408 633 q 423 624 411 624 l 437 614 l 437 677 l 429 688 q 423 682 422 687 q 413 716 423 709 q 425 741 425 729 q 409 746 420 746 q 399 734 387 746 q 382 740 387 740 l 382 905 q 397 921 397 905 q 404 915 397 916 q 423 911 416 913 l 423 915 q 406 933 424 926 q 421 942 421 936 q 506 835 485 896 q 521 720 521 794 m 1062 214 q 1060 146 1066 186 q 780 -21 925 -21 q 713 14 755 -21 q 664 70 673 47 q 651 128 657 85 q 638 196 644 178 q 587 120 613 158 q 510 42 554 73 q 504 42 506 47 q 508 33 503 37 q 489 36 502 27 q 485 27 483 32 q 488 18 488 18 q 445 3 475 9 q 408 -7 415 -2 q 421 23 411 1 q 464 14 438 14 q 429 49 456 25 q 410 23 423 42 q 402 36 410 26 q 393 14 396 31 q 396 -13 389 -2 q 381 14 381 -4 q 411 66 381 30 q 410 77 412 70 q 408 86 408 84 q 480 81 425 81 q 523 115 490 81 q 570 174 556 149 q 664 416 600 227 q 681 423 669 416 q 668 428 675 428 q 686 499 673 436 q 714 546 694 539 q 701 555 714 555 q 755 712 713 602 q 778 823 767 767 q 829 946 796 898 q 993 955 863 955 l 910 632 q 859 613 894 629 q 863 598 859 602 q 902 610 879 602 q 855 411 888 562 q 815 182 815 229 q 832 117 815 148 q 885 81 852 81 q 988 143 919 81 q 1062 214 1025 178 m 408 584 l 401 578 l 385 594 l 392 600 l 408 584 m 438 521 q 436 531 435 526 q 436 503 436 503 q 406 522 419 518 q 438 521 404 521 m 498 546 q 470 518 490 535 q 482 493 482 505 q 441 413 482 460 q 438 424 438 416 q 436 436 438 432 q 457 436 446 425 q 428 452 445 452 q 419 450 418 452 q 423 445 423 446 q 436 484 423 448 q 447 464 436 477 q 476 487 458 469 q 446 498 467 489 l 446 544 q 473 529 446 541 q 498 546 490 546 m 402 453 l 391 453 l 391 477 l 402 477 l 402 453 m 421 312 l 410 312 l 410 336 l 421 336 l 421 312 m 415 274 l 404 274 l 404 291 l 415 291 l 415 274 m 374 -14 l 328 -14 q 238 70 269 -14 q 215 189 215 130 q 292 522 215 299 q 369 800 369 744 q 349 867 369 836 q 282 905 324 905 q 170 830 216 905 q 132 713 132 768 q 138 657 132 675 q 180 601 148 631 q 189 576 189 585 q 161 524 189 552 q 109 497 133 497 q 36 627 36 497 q 112 839 36 725 q 283 962 193 962 l 374 962 l 374 -14 m 898 776 l 895 786 l 880 778 l 880 768 l 898 776 m 814 787 l 814 799 l 784 799 l 784 787 l 814 787 m 803 696 l 797 702 l 781 686 l 788 680 l 803 696 m 837 589 l 837 589 l 837 589 m 751 636 l 747 645 l 733 638 l 733 628 l 751 636 m 450 893 q 440 893 446 890 q 423 899 430 899 q 415 908 406 899 q 404 894 412 905 q 394 882 396 884 q 416 860 407 882 q 423 873 416 866 q 429 860 428 867 q 450 893 432 876 m 430 803 q 423 815 430 806 q 416 828 416 825 q 401 797 401 809 q 405 804 404 797 q 410 815 406 812 q 430 803 416 812 m 396 185 l 388 214 l 377 214 l 385 185 l 396 185 m 417 1166 l 426 1199 q 636 1423 548 1282 l 782 1447 q 789 1311 782 1358 q 846 1191 802 1240 l 839 1163 q 668 1321 737 1199 q 417 1166 551 1198 "},"*":{"x_min":20.796875,"x_max":664.171875,"ha":666,"o":"m 383 499 l 383 499 l 383 499 m 359 458 l 359 458 l 359 458 m 398 369 q 380 378 390 369 q 359 394 365 391 q 374 411 361 402 q 388 430 388 420 q 383 448 388 437 q 398 369 383 447 m 367 371 q 318 361 356 361 q 338 437 338 401 q 367 371 338 413 m 147 570 l 137 549 l 125 554 l 135 574 l 147 570 m 99 554 q 90 547 92 554 q 94 536 88 541 q 77 547 87 536 q 66 570 66 559 q 99 554 66 554 m 581 871 l 581 871 l 581 871 m 615 885 q 542 789 589 834 q 545 830 552 815 q 531 809 542 824 q 524 790 524 798 q 532 767 524 780 l 487 723 l 477 731 q 435 689 455 726 q 439 829 435 787 q 468 928 457 876 q 615 885 516 915 m 486 792 l 486 792 l 486 792 m 469 757 l 457 757 l 447 776 l 459 781 l 469 757 m 664 518 q 618 491 635 525 l 629 544 l 648 554 q 619 566 637 566 q 608 563 607 566 q 611 554 611 549 q 623 587 611 581 q 614 594 619 589 q 609 625 609 599 q 615 628 598 625 q 654 631 633 631 l 654 590 q 621 618 643 618 q 606 611 613 618 q 639 569 624 599 q 664 518 651 544 m 425 686 q 368 683 395 669 q 374 698 368 687 q 379 714 379 710 q 387 697 379 710 q 402 739 396 713 q 412 780 412 778 q 400 711 412 730 q 425 686 424 686 m 514 611 q 467 625 507 625 q 476 647 476 640 q 496 638 492 641 q 514 611 505 631 m 263 840 l 249 840 l 249 862 l 263 862 l 263 840 m 341 739 q 316 748 333 748 q 306 722 305 737 q 294 756 306 736 q 272 797 283 776 q 276 773 262 787 q 246 805 257 784 q 221 773 242 793 q 217 789 221 777 q 212 805 212 801 q 235 801 226 792 q 219 827 219 818 q 222 830 219 830 q 235 850 224 836 q 181 880 206 880 q 160 878 161 880 q 190 920 175 893 q 213 962 211 960 q 258 918 235 953 q 285 871 271 894 l 276 865 l 282 830 q 300 845 297 845 q 310 842 304 845 q 260 809 293 830 q 265 800 263 804 q 280 797 267 797 q 288 799 287 797 q 285 805 288 801 q 282 811 282 809 q 289 814 283 814 q 298 810 298 814 q 297 806 298 809 q 295 801 295 803 q 297 797 296 799 q 303 821 303 803 q 325 780 314 811 q 341 739 333 760 m 598 586 q 593 563 598 574 q 588 546 588 551 q 562 583 583 556 q 516 545 550 556 q 556 518 530 530 q 494 563 538 525 q 441 607 447 604 q 451 605 445 609 q 470 599 459 599 q 482 604 483 599 q 478 615 478 620 q 496 566 483 598 q 513 587 504 576 q 532 599 522 599 q 542 593 543 599 q 545 583 542 585 q 579 623 553 599 q 589 609 579 620 q 598 586 598 598 m 404 619 l 404 619 l 404 619 m 330 675 l 316 675 l 316 705 l 330 705 l 330 675 m 386 640 q 344 616 374 626 q 344 671 349 656 q 364 665 357 671 q 364 658 369 665 q 359 638 359 646 q 371 632 353 632 q 386 640 386 632 m 334 625 l 303 625 l 303 656 q 334 625 307 656 m 430 358 q 421 375 430 363 q 408 356 415 365 q 387 343 400 343 q 367 346 378 343 q 346 350 357 350 q 333 342 335 350 q 327 327 330 328 q 335 344 327 337 q 311 335 316 341 q 293 318 302 323 l 293 461 q 307 505 293 475 q 332 540 320 534 q 317 518 332 533 l 317 489 q 384 480 339 476 q 352 493 372 493 q 355 499 352 495 q 359 516 359 504 q 326 580 359 531 q 368 591 356 580 q 364 557 360 588 q 389 599 371 563 q 376 570 389 584 q 391 565 382 565 q 367 536 391 548 q 393 512 375 525 q 404 462 393 496 q 415 415 415 428 q 408 396 415 403 q 430 358 431 373 m 297 611 l 281 624 q 276 593 263 606 q 268 588 274 593 q 252 583 263 583 q 236 591 240 583 q 231 607 232 605 q 221 601 227 603 q 210 594 214 599 q 224 566 224 581 q 215 583 224 570 q 171 533 201 570 q 202 618 191 573 q 197 629 198 622 q 191 640 195 636 q 156 562 177 599 q 144 592 156 575 q 122 624 133 608 l 86 618 q 142 656 106 632 q 157 599 142 628 q 171 631 164 615 q 193 648 178 648 q 209 635 204 648 q 223 615 215 619 q 235 618 228 611 q 223 634 226 622 q 216 657 217 654 q 229 640 221 640 q 233 642 232 640 q 233 643 233 643 q 226 638 231 642 q 267 655 262 638 q 268 644 267 653 q 297 611 268 640 m 84 574 q 68 592 75 579 q 57 611 59 609 q 63 603 61 607 q 78 599 65 599 q 89 589 91 599 q 84 574 84 567 m 44 591 q 20 603 33 595 l 42 623 q 44 591 42 593 m 568 824 l 568 870 l 553 870 l 553 824 l 568 824 m 535 828 l 500 905 l 488 900 l 524 828 l 535 828 m 466 854 l 466 854 l 466 854 m 461 568 l 450 591 l 439 586 l 449 568 l 461 568 m 200 805 l 200 845 q 174 871 200 845 q 138 839 138 854 l 157 854 q 178 824 163 851 l 200 805 m 130 584 l 121 592 l 101 573 l 109 563 l 130 584 "},"†":{"x_min":0,"x_max":0,"ha":1389},"°":{"x_min":0,"x_max":0,"ha":1389},"V":{"x_min":28,"x_max":905.8125,"ha":940,"o":"m 544 18 l 528 1 l 522 9 l 538 24 l 544 18 m 507 11 l 496 11 l 496 41 l 507 41 l 507 11 m 481 15 l 475 8 l 459 24 l 465 31 l 481 15 m 453 5 l 444 5 l 433 26 l 442 30 l 453 5 m 390 22 l 390 22 l 390 22 m 334 37 l 318 21 l 312 28 l 328 43 l 334 37 m 905 744 q 899 700 905 741 q 897 653 894 666 q 893 673 893 657 q 878 685 880 685 q 883 624 878 652 q 870 611 877 617 q 866 588 863 604 q 876 596 869 588 q 891 607 884 604 q 883 584 891 604 q 880 546 880 579 q 854 516 880 524 q 867 512 860 512 q 847 437 860 484 q 832 448 844 437 q 829 420 824 438 q 833 401 833 400 q 785 343 820 368 q 807 337 799 329 q 802 316 802 332 q 753 329 783 319 q 752 337 752 333 q 758 360 752 344 q 764 384 764 376 q 763 392 764 388 q 774 379 763 390 q 776 384 776 382 q 771 398 776 388 q 766 414 766 407 q 777 460 766 422 q 794 519 791 505 q 823 448 805 496 q 829 458 829 443 q 823 476 829 467 q 814 490 818 483 q 790 548 807 507 q 790 611 790 570 q 746 763 790 653 q 703 865 702 873 q 767 929 703 894 q 853 957 828 962 q 902 831 893 886 q 905 744 905 812 m 784 295 q 749 233 773 262 q 736 251 749 239 l 727 241 q 746 215 734 235 q 712 162 727 208 q 693 169 705 169 q 703 161 684 161 q 673 114 693 145 q 584 42 641 90 l 577 54 q 578 42 574 51 q 572 36 580 36 q 555 25 557 36 q 540 42 551 30 q 509 0 528 30 q 473 -14 499 -14 l 450 -14 q 438 -3 444 -14 q 426 9 432 7 q 435 -6 422 6 q 420 -18 419 -6 q 410 -9 420 -9 q 401 -10 401 -9 q 403 -12 399 -10 q 408 -16 406 -14 q 403 -5 406 -14 q 393 9 401 2 q 389 -14 389 6 q 379 -5 387 -14 q 361 3 371 3 q 352 0 351 3 q 355 -5 355 -9 q 336 16 355 16 q 331 13 331 16 q 333 10 331 13 q 335 6 335 7 q 329 4 334 4 q 246 87 311 4 q 250 108 242 101 q 246 118 262 118 q 223 175 223 118 q 231 210 223 200 q 219 214 225 214 q 252 402 225 279 q 365 808 365 729 q 340 855 365 818 q 303 898 316 893 q 259 907 280 907 q 193 856 238 907 q 150 801 153 811 q 130 706 130 731 q 135 650 130 661 q 178 598 136 647 q 187 573 187 582 q 161 525 187 553 q 107 494 133 494 q 47 540 70 494 q 28 620 28 579 q 120 855 28 749 q 342 965 216 965 q 481 870 428 965 q 524 713 524 794 q 485 522 524 647 q 424 336 454 429 q 387 171 397 249 q 357 124 383 141 q 370 120 362 118 q 381 125 382 125 q 389 92 389 119 q 399 111 399 92 q 432 61 406 96 q 441 64 436 58 l 430 79 q 488 36 443 66 q 492 45 493 39 q 485 51 490 51 q 498 54 488 50 q 516 60 508 58 q 526 34 516 34 q 549 65 526 65 q 585 98 576 65 q 568 69 585 77 q 572 54 568 58 l 585 67 l 592 61 q 596 68 594 61 q 601 77 598 75 q 609 85 609 80 q 632 83 621 73 q 604 99 630 85 q 597 86 597 92 q 676 172 596 114 q 658 180 663 185 q 681 206 676 198 q 700 239 695 223 q 700 219 700 232 q 700 200 700 206 q 715 209 706 200 q 734 227 724 222 q 720 235 729 233 q 712 232 712 237 q 742 334 721 280 q 778 307 750 322 q 766 299 776 310 q 784 295 770 295 m 556 41 l 556 41 l 556 41 m 798 660 l 791 678 l 782 674 l 790 660 l 798 660 m 823 640 l 806 648 l 803 639 l 819 631 l 823 640 m 854 579 q 827 624 826 608 q 833 592 827 613 q 845 557 843 565 q 854 579 845 570 m 866 526 q 863 541 866 529 q 860 556 860 552 q 842 540 858 556 q 866 526 850 540 m 469 808 l 460 811 l 452 795 l 461 792 l 469 808 m 823 429 l 820 438 l 805 430 l 805 422 l 823 429 m 824 389 l 810 412 l 800 406 l 816 384 l 824 389 m 772 333 l 772 333 l 772 333 m 778 283 l 775 292 l 760 284 l 760 275 l 778 283 m 735 266 l 728 272 l 713 256 l 719 250 l 735 266 m 704 176 l 704 194 l 693 194 l 693 176 l 704 176 m 442 424 l 425 432 l 422 423 l 438 415 l 442 424 m 415 440 l 415 450 l 398 450 l 398 440 l 415 440 m 357 397 q 338 384 352 394 q 323 376 326 376 q 338 367 329 376 q 357 397 338 377 m 297 323 l 297 339 l 286 339 l 286 323 l 297 323 m 301 270 l 301 270 l 301 270 m 307 238 l 304 247 l 284 239 l 284 230 l 307 238 m 353 189 l 347 195 l 331 180 l 338 173 l 353 189 m 271 261 l 262 265 l 254 248 l 263 244 l 271 261 m 362 107 l 362 107 l 362 107 m 453 47 q 420 42 430 47 q 403 47 414 48 l 417 30 q 425 36 420 30 q 438 42 429 42 q 444 29 452 42 q 453 47 450 35 m 398 81 l 391 87 l 375 72 l 381 65 l 398 81 m 282 197 q 231 218 263 204 q 261 188 262 188 q 282 197 270 197 m 235 190 l 235 190 l 235 190 m 277 149 l 262 164 l 255 158 l 271 142 l 277 149 m 328 94 l 321 100 l 305 85 l 311 78 l 328 94 m 322 59 l 305 75 l 299 68 l 314 52 l 322 59 "},"å":{"x_min":1,"x_max":737.140625,"ha":724,"o":"m 531 20 l 510 11 l 510 22 l 526 30 l 531 20 m 172 3 l 168 -7 l 144 5 l 147 16 l 172 3 m 151 -7 l 151 -7 l 151 -7 m 737 137 q 614 28 675 82 q 492 -22 553 -22 q 400 44 426 -22 q 396 98 396 57 q 389 164 396 145 q 292 42 373 144 q 265 55 277 42 q 280 65 280 55 q 248 78 271 68 l 244 54 q 273 33 250 46 q 261 35 267 29 q 227 0 252 21 q 223 41 240 24 l 238 27 q 238 54 238 41 q 224 72 231 63 q 215 58 215 72 q 206 65 210 58 q 198 78 201 75 q 189 57 197 72 q 181 36 181 42 q 191 26 181 29 q 181 5 181 19 q 194 -19 181 -9 q 115 -22 138 -15 l 95 -7 q 73 19 73 5 q 80 37 73 27 q 44 29 70 37 q 57 53 47 37 q 16 72 41 72 q 8 120 16 88 q 1 160 1 153 q 30 226 1 208 q 22 236 30 236 q 18 246 17 236 q 30 263 20 258 q 16 265 30 278 q 32 316 24 290 q 79 354 46 343 q 65 376 65 370 q 89 414 69 389 q 120 450 117 446 q 127 429 120 434 q 278 557 120 481 q 286 534 278 551 q 295 508 295 517 q 251 448 295 490 q 208 378 208 407 q 225 393 225 378 q 186 266 186 304 q 168 250 184 266 q 158 278 158 261 q 172 311 158 291 q 201 340 186 331 q 192 348 197 343 q 183 357 186 353 q 170 352 179 353 q 158 347 161 350 l 172 333 q 159 312 165 323 q 149 274 149 293 q 149 265 149 270 q 122 279 136 279 q 102 273 115 279 q 94 275 94 270 q 89 286 95 280 q 69 260 74 288 q 36 254 59 260 q 53 236 45 249 q 69 207 69 208 q 65 226 76 215 q 92 220 92 226 l 101 232 q 92 246 98 235 q 83 254 87 254 q 120 272 110 254 q 126 242 120 249 q 133 257 133 249 q 113 178 113 219 q 82 193 102 182 l 71 182 q 84 164 80 178 q 98 135 92 144 q 102 163 114 151 q 142 150 116 163 q 156 167 149 153 q 170 185 163 181 q 174 142 172 164 q 197 100 177 117 q 194 120 206 108 q 244 100 218 100 q 322 150 281 100 q 381 222 381 222 q 377 234 387 226 q 403 305 385 258 q 424 347 407 315 q 438 382 438 372 q 359 530 438 530 q 338 521 349 530 q 319 508 321 509 q 295 556 318 509 q 370 580 366 580 q 442 548 412 580 q 484 501 463 524 q 562 546 505 511 q 613 572 605 572 l 658 572 q 590 357 625 481 q 552 171 552 216 q 577 100 552 100 q 636 120 604 100 q 644 93 636 98 q 678 147 661 120 q 737 199 709 190 l 737 137 m 178 241 q 155 193 172 221 l 141 207 q 134 196 133 203 q 140 225 134 205 q 146 257 146 246 q 178 241 161 241 m 80 243 l 75 233 l 57 241 l 61 253 l 80 243 m 402 557 l 398 567 l 381 559 l 381 548 l 402 557 m 500 409 q 483 447 492 425 l 483 416 q 500 409 488 416 m 476 216 l 476 235 l 463 235 l 463 216 l 476 216 m 487 178 l 487 178 l 487 178 m 382 165 l 382 192 l 370 192 l 370 165 l 382 165 m 161 381 l 161 407 l 149 407 l 149 381 l 161 381 m 161 352 l 161 371 l 149 371 l 149 352 l 161 352 m 144 363 q 130 366 140 363 q 116 370 120 370 q 138 353 122 365 l 122 337 q 144 363 144 347 m 84 329 l 67 315 q 65 308 63 315 q 69 296 69 299 q 76 312 69 300 q 84 329 84 325 m 39 280 l 39 299 l 27 299 l 27 280 l 39 280 m 179 110 q 163 132 171 118 q 154 150 155 147 q 165 104 154 123 q 153 78 153 91 q 179 110 162 90 m 194 85 l 190 95 l 173 86 l 173 75 l 194 85 m 153 103 l 145 120 l 135 120 l 144 99 l 153 103 m 53 194 l 53 214 l 41 214 l 41 194 l 53 194 m 87 150 l 45 166 l 45 156 l 82 140 l 87 150 m 153 29 l 153 63 l 142 63 l 142 29 l 153 29 m 129 70 q 104 64 110 70 l 94 74 q 114 86 109 90 q 104 121 114 112 q 80 97 95 113 l 80 42 q 107 42 107 42 q 116 56 107 49 q 129 70 126 63 m 81 114 l 74 124 l 49 107 l 55 97 l 81 114 m 22 143 l 22 143 l 22 143 m 46 118 l 36 122 l 27 104 l 36 99 l 46 118 m 67 65 l 58 86 l 48 81 l 57 65 l 67 65 "}," ":{"x_min":0,"x_max":0,"ha":347},"0":{"x_min":43,"x_max":710,"ha":724,"o":"m 343 32 l 323 12 l 316 21 l 335 40 l 343 32 m 215 83 q 179 45 201 76 l 179 92 q 193 87 181 92 q 215 83 206 83 m 129 122 q 101 69 118 104 q 91 98 101 78 q 76 131 78 122 q 85 117 80 124 q 101 109 89 109 q 119 115 113 109 q 129 122 126 122 m 376 844 l 376 844 l 376 844 m 489 904 q 472 887 472 904 q 441 918 463 899 q 451 874 435 907 q 417 841 445 863 q 387 808 421 817 l 373 794 q 384 783 373 783 q 331 666 360 742 l 308 690 q 307 668 310 684 q 317 648 305 656 q 266 477 299 594 q 257 598 266 508 q 248 694 248 688 q 248 763 248 710 q 264 772 256 768 q 273 800 275 783 q 261 793 270 797 q 252 785 252 789 q 348 882 264 815 q 455 949 433 949 l 489 949 l 489 904 m 710 645 q 689 631 705 637 q 664 620 665 621 q 553 270 652 496 q 325 -1 433 -1 q 295 17 311 -1 l 295 85 q 341 78 309 78 q 480 213 410 78 q 578 473 532 315 q 615 637 615 599 q 530 712 569 658 l 563 712 q 533 745 563 745 q 516 737 524 745 q 530 766 516 752 q 516 769 530 783 q 619 950 548 950 q 680 804 680 950 q 672 701 680 747 q 710 672 682 679 l 710 645 m 670 857 q 650 910 664 875 l 640 857 l 670 857 m 639 842 q 621 870 624 849 q 600 859 614 870 q 639 842 617 842 m 573 749 l 573 749 l 573 749 m 416 854 q 415 886 431 870 q 397 876 415 878 q 416 854 397 874 m 289 663 l 277 667 l 268 646 l 279 642 l 289 663 m 297 623 l 286 627 l 275 607 l 286 602 l 297 623 m 208 570 q 196 559 202 570 q 184 544 185 545 q 206 533 191 537 q 208 570 206 567 m 160 492 l 160 504 l 136 493 l 141 483 l 160 492 m 106 445 l 101 456 l 83 447 l 83 436 l 106 445 m 286 -16 l 286 51 q 264 112 286 63 q 241 175 242 165 q 244 240 244 205 q 244 365 244 278 q 244 489 244 446 q 244 610 244 521 q 244 720 244 680 q 233 717 235 720 q 219 714 231 714 q 206 723 206 714 q 208 739 208 710 q 229 737 217 749 l 229 768 q 98 532 152 680 q 43 257 43 382 q 43 204 43 219 q 56 196 56 201 q 50 188 56 195 q 47 174 44 181 q 99 52 47 116 q 212 -17 156 -17 q 235 -13 210 -17 q 286 -16 252 -11 m 225 236 l 217 244 l 190 217 l 198 208 l 225 236 m 171 191 l 160 195 l 150 175 l 161 170 l 171 191 m 70 168 l 70 168 l 70 168 "},"”":{"x_min":34.78125,"x_max":647,"ha":665,"o":"m 536 970 q 647 807 647 912 q 554 633 647 710 q 375 538 485 575 l 367 582 q 520 737 520 656 q 499 789 520 764 q 452 820 478 813 q 428 839 428 826 q 469 909 428 873 q 536 970 532 965 m 201 970 q 314 808 314 911 q 41 534 314 630 l 34 579 q 186 736 186 653 q 112 821 186 800 q 94 838 94 826 q 144 901 94 842 q 201 970 173 936 "},"¾":{"x_min":0,"x_max":0,"ha":1389},"@":{"x_min":0,"x_max":1155.25,"ha":1155,"o":"m 1155 109 q 930 -184 1077 -81 q 577 -289 781 -289 q 163 -127 326 -289 q 0 284 0 33 q 179 731 0 556 q 631 907 359 907 q 966 790 837 907 q 1101 465 1101 668 q 998 147 1101 281 q 710 0 887 0 q 615 28 650 0 q 578 116 578 59 q 592 206 578 151 q 367 0 472 0 q 281 47 310 0 q 257 147 257 87 q 309 372 257 259 q 448 558 362 484 q 594 630 531 630 q 689 527 673 630 l 711 609 l 869 609 l 750 199 q 731 99 731 131 q 746 62 731 77 q 785 48 762 48 q 924 119 850 48 q 1019 250 985 179 q 1065 453 1065 343 q 947 752 1065 637 q 645 866 829 866 q 228 689 392 866 q 68 262 68 517 q 211 -108 68 36 q 580 -253 354 -253 q 905 -155 760 -253 q 1115 109 1050 -58 l 1155 109 m 464 119 q 597 275 530 119 q 658 494 658 414 q 612 582 658 582 q 484 411 549 582 q 427 181 427 261 q 464 119 427 119 "},"ö":{"x_min":8,"x_max":629.265625,"ha":608,"o":"m 619 211 q 629 181 629 196 q 581 116 629 145 q 506 91 540 91 q 409 121 472 91 q 214 -14 289 -14 l 171 -14 q 97 10 126 -14 q 70 44 91 23 q 89 44 72 44 q 119 44 106 44 q 127 85 127 51 q 115 54 115 85 q 95 62 102 62 l 95 91 q 100 89 97 89 q 111 93 102 89 q 128 98 119 98 q 138 95 138 98 q 136 92 138 95 q 134 87 134 89 q 136 83 134 85 q 143 107 151 98 q 146 109 132 107 q 159 106 154 111 q 169 112 163 110 q 179 117 175 113 q 124 146 147 135 q 155 193 132 166 q 121 219 143 209 l 95 196 q 90 219 95 214 q 82 207 81 214 q 74 243 82 214 q 66 288 66 273 q 71 305 66 300 q 82 320 82 309 q 89 301 82 309 q 112 347 112 337 q 119 331 111 338 q 122 343 119 334 q 122 354 123 349 q 110 367 119 360 q 138 323 117 364 q 145 330 144 323 q 140 342 146 337 q 181 354 151 354 q 187 369 187 351 q 176 389 187 381 q 159 399 168 394 q 146 377 146 385 q 134 382 142 380 q 126 389 125 384 q 120 407 127 394 l 106 393 l 79 393 q 99 422 79 403 q 106 399 99 406 q 171 449 127 413 q 152 477 167 460 q 220 524 157 491 q 308 557 283 557 l 350 557 q 334 538 350 553 q 333 538 333 538 q 335 536 332 536 q 346 535 338 535 q 385 550 355 535 q 424 565 415 565 q 485 534 462 565 q 506 467 506 506 q 471 274 506 413 q 451 224 468 261 q 435 181 435 190 q 506 144 435 144 q 559 157 537 144 q 619 211 577 169 m 73 190 l 59 190 l 59 218 l 73 218 l 73 190 m 44 61 q 21 124 34 75 q 8 196 8 174 q 18 272 8 238 q 44 347 31 309 l 44 61 m 105 100 l 91 100 l 91 120 l 105 120 l 105 100 m 368 281 l 359 309 l 347 306 l 357 281 l 368 281 m 396 519 l 339 519 q 255 461 303 519 q 187 380 194 386 q 204 372 194 380 q 179 223 179 236 q 197 129 179 172 q 264 76 220 76 q 320 99 287 76 q 374 162 357 126 q 319 264 319 233 q 324 280 319 274 q 339 268 339 280 q 335 283 339 271 q 331 298 331 294 q 333 289 331 302 q 323 286 335 286 q 306 316 306 286 q 314 354 306 342 q 344 309 330 325 q 334 411 332 397 q 331 425 331 418 q 360 476 331 444 q 396 519 394 515 m 142 311 l 134 318 l 115 300 l 122 292 l 142 311 m 135 242 l 135 263 l 122 263 l 122 242 l 135 242 m 112 212 l 112 241 l 98 241 l 98 212 l 112 212 m 166 46 l 166 68 l 153 68 l 153 46 l 166 46 "},"i":{"x_min":16,"x_max":356.078125,"ha":333,"o":"m 320 772 q 295 720 320 747 q 243 693 270 693 l 221 693 q 161 772 161 725 q 186 825 161 799 q 240 852 211 852 q 296 821 270 852 q 320 772 320 793 m 354 220 q 356 202 356 211 q 265 66 356 144 q 190 7 211 20 q 117 -18 152 -18 q 16 155 16 -18 q 74 383 16 321 q 60 389 67 389 l 60 412 q 78 463 59 419 q 117 521 99 513 q 106 530 113 529 q 120 555 120 530 q 128 541 120 551 q 129 542 128 541 q 129 551 130 543 q 138 555 128 555 q 201 565 148 555 q 287 582 265 579 q 269 509 279 563 q 241 464 264 477 q 254 459 248 459 q 175 192 175 221 q 223 112 175 159 q 354 220 289 155 m 240 481 q 222 484 236 481 q 205 487 208 487 l 232 461 q 240 481 232 467 m 183 515 l 133 535 l 133 524 l 179 505 l 183 515 "},"≤":{"x_min":0,"x_max":0,"ha":1389},"Õ":{"x_min":50.34375,"x_max":862,"ha":882,"o":"m 179 322 l 163 338 q 179 348 168 340 q 185 335 185 343 q 179 322 185 327 m 157 316 l 157 316 l 157 316 m 121 304 l 98 289 l 92 297 l 115 312 l 121 304 m 201 124 l 184 124 l 184 135 l 201 135 l 201 124 m 87 232 l 70 232 l 70 243 l 87 243 l 87 232 m 88 215 l 88 215 l 88 215 m 227 63 l 227 63 l 227 63 m 185 98 l 177 92 l 161 108 l 168 115 l 185 98 m 96 159 l 87 159 l 79 174 l 88 177 l 96 159 m 96 127 l 87 127 l 79 149 l 88 151 l 96 127 m 862 738 q 840 634 862 740 q 816 641 827 647 q 842 626 816 632 q 660 256 803 447 q 324 -6 498 39 l 312 5 q 287 -13 295 -13 q 274 -7 279 -13 q 262 -1 269 -1 q 251 -3 254 -1 q 240 -6 248 -6 q 98 92 156 -6 q 50 245 50 174 l 50 285 q 65 278 55 285 q 81 307 67 291 q 66 316 76 309 q 52 291 62 307 l 52 328 q 71 316 60 328 q 76 335 76 326 q 71 354 76 345 q 59 335 68 348 l 59 379 q 65 360 59 373 q 68 376 68 366 q 81 396 67 384 q 63 400 77 400 q 122 601 85 511 q 134 609 124 604 q 280 843 180 732 q 490 970 393 970 q 511 966 498 970 q 531 962 525 962 q 313 661 372 800 q 255 478 290 605 q 233 472 248 478 q 251 468 237 468 q 227 425 255 440 l 227 397 q 243 392 233 392 q 243 298 243 361 q 243 231 243 234 q 280 165 243 210 q 338 120 318 120 q 361 113 344 120 q 386 107 377 107 q 577 218 476 107 q 726 451 659 311 q 794 653 786 578 q 800 640 794 649 q 811 773 811 705 q 741 913 811 913 q 647 850 692 913 q 596 750 611 802 q 582 631 582 695 q 645 594 604 619 q 611 541 645 582 q 566 500 578 500 q 477 548 505 500 q 456 636 456 584 q 528 837 456 736 l 542 824 q 542 836 545 827 q 540 854 539 848 q 744 970 637 970 q 838 881 807 970 q 862 738 862 816 m 255 508 l 255 525 l 244 525 l 244 508 l 255 508 m 170 557 l 170 557 l 170 557 m 147 565 l 147 595 l 136 595 l 136 565 l 147 565 m 233 456 l 233 456 l 233 456 m 204 483 l 204 500 l 193 500 l 193 483 l 204 483 m 138 543 l 138 554 l 121 554 l 121 543 l 138 543 m 138 526 l 138 526 l 138 526 m 191 464 l 183 482 l 174 478 l 182 464 l 191 464 m 153 479 l 138 501 l 130 496 l 144 474 l 153 479 m 113 513 l 113 513 l 113 513 m 113 468 l 113 468 l 113 468 m 181 430 q 151 414 169 425 l 168 399 q 174 414 168 402 q 181 430 181 427 m 126 449 l 126 449 l 126 449 m 100 468 l 97 477 l 83 470 l 83 460 l 100 468 m 187 367 q 187 396 187 367 q 170 389 187 390 q 178 380 174 389 q 187 367 184 369 m 141 394 l 138 430 l 128 430 l 128 394 l 141 394 m 109 406 l 109 436 l 98 436 l 98 406 l 109 406 m 128 383 l 128 383 l 128 383 m 109 385 l 99 385 l 92 363 l 100 360 l 109 385 m 115 351 l 106 355 l 98 338 l 106 334 l 115 351 "},"þ":{"x_min":0,"x_max":684,"ha":782,"o":"m 353 479 q 429 546 402 528 q 523 576 474 576 q 643 519 599 576 q 684 390 684 467 q 593 125 684 251 q 359 -12 493 -12 q 248 31 301 -12 q 184 -314 200 -187 q 19 -344 113 -325 q 144 304 41 -145 q 15 150 77 206 l 0 150 l 0 211 q 161 431 107 326 q 248 692 212 530 l 304 936 l 478 968 l 353 479 m 263 108 q 344 40 292 40 q 472 164 421 40 q 514 354 514 264 q 497 426 514 396 q 437 463 476 463 q 299 264 345 463 l 263 108 "},"]":{"x_min":0,"x_max":0,"ha":1389},"m":{"x_min":11.3125,"x_max":1023.828125,"ha":999,"o":"m 392 204 l 392 204 l 392 204 m 147 177 l 147 177 l 147 177 m 90 138 l 85 127 l 57 141 l 60 152 l 90 138 m 56 79 l 56 79 l 56 79 m 1022 220 q 1023 204 1023 212 q 924 58 1023 135 q 764 -14 830 -14 q 678 34 699 -14 q 666 118 666 62 q 701 283 666 190 q 737 415 737 376 q 726 446 737 432 q 716 462 716 459 q 721 472 716 466 q 711 475 718 477 q 526 278 629 383 q 541 273 533 273 q 471 20 520 184 q 308 -12 414 7 q 409 434 341 114 q 399 447 404 440 q 381 454 393 454 q 282 397 358 454 q 267 371 276 392 q 248 338 257 347 q 181 209 195 279 q 175 86 175 176 q 170 62 175 82 q 165 18 165 42 q 148 24 155 18 q 142 11 142 17 q 85 2 122 11 q 20 -13 52 -5 q 16 45 20 3 q 12 95 12 86 q 12 128 12 100 q 12 178 12 156 q 29 182 14 180 q 42 196 42 185 q 36 208 42 205 q 24 208 32 209 q 11 206 13 206 q 38 329 24 267 q 82 421 56 409 q 69 427 82 439 q 92 445 88 445 q 88 386 92 423 l 73 372 l 86 360 q 109 397 100 366 q 144 413 119 401 l 144 434 q 106 441 137 441 q 119 458 106 443 q 103 464 114 464 q 93 458 92 464 q 121 555 93 496 l 143 555 q 153 550 148 553 q 154 540 151 542 q 186 565 164 563 q 240 571 213 568 q 284 577 255 577 q 267 534 278 569 q 242 517 261 513 l 229 504 q 244 499 231 502 q 253 485 253 496 q 233 440 253 474 q 214 395 214 405 q 225 368 214 380 q 333 486 279 427 q 490 579 429 579 q 575 487 575 579 q 569 449 575 468 q 577 400 563 424 q 703 523 616 438 q 708 500 703 506 q 755 564 716 537 q 763 554 759 564 q 771 540 768 542 q 785 545 775 544 q 799 551 795 547 q 776 578 791 556 q 789 582 779 578 q 810 587 799 587 q 887 556 859 587 q 916 473 916 526 q 877 290 916 390 q 838 146 838 189 q 838 116 838 117 q 865 95 842 95 q 949 150 886 95 q 1022 220 997 191 m 771 432 l 771 453 l 757 453 l 757 432 l 771 432 m 696 483 l 696 496 l 675 496 l 675 483 l 696 483 m 521 526 l 521 547 l 507 547 l 507 526 l 521 526 m 495 539 l 490 550 l 455 529 l 458 517 l 495 539 m 423 446 l 423 446 l 423 446 m 464 312 l 459 324 l 441 315 l 441 303 l 464 312 m 205 511 q 175 538 178 538 l 190 520 q 177 501 177 507 q 205 511 186 511 m 440 258 l 436 269 l 410 260 l 410 248 l 440 258 m 208 385 l 200 430 l 186 430 l 194 385 l 208 385 m 140 450 q 136 467 140 453 q 132 489 132 480 q 126 476 132 485 q 121 463 121 466 q 140 450 140 463 m 177 362 l 177 383 l 164 383 l 164 362 l 177 362 m 153 327 l 134 346 l 125 338 l 145 319 l 153 327 m 93 340 q 73 334 93 334 q 86 313 80 326 q 89 327 86 317 q 93 340 93 337 m 73 350 q 42 333 59 350 q 65 323 50 325 q 73 350 55 332 "},"8":{"x_min":40.484375,"x_max":721,"ha":726,"o":"m 604 220 q 567 227 597 227 q 587 234 570 230 q 602 240 602 236 q 604 220 592 231 m 561 242 l 547 242 l 547 264 l 561 264 l 561 242 m 674 940 l 669 929 l 631 952 l 637 963 l 674 940 m 714 920 q 713 874 713 918 q 695 882 711 875 q 682 898 682 886 q 714 920 682 920 m 701 859 q 694 841 703 854 q 687 820 686 828 l 687 878 q 692 865 687 872 q 701 859 697 857 m 673 894 q 656 889 673 894 q 637 890 644 886 q 635 871 632 882 q 639 849 639 850 q 656 864 656 849 q 652 870 656 867 l 673 852 q 645 842 667 852 q 612 833 623 833 q 578 850 595 833 q 561 879 561 867 q 580 912 567 892 q 580 927 582 919 q 570 936 576 936 q 587 933 574 936 q 609 930 600 930 q 592 955 609 939 q 606 882 598 949 q 616 890 609 882 q 632 902 624 898 q 620 911 628 911 q 630 921 624 911 q 639 931 635 931 q 649 904 645 908 q 673 894 661 899 m 671 808 q 661 824 670 812 q 653 812 652 819 q 671 841 653 831 l 671 808 m 721 740 l 667 740 l 667 754 l 721 754 l 721 740 m 484 980 q 412 933 480 976 q 457 1005 426 956 q 467 995 457 1002 q 484 980 480 986 m 659 758 l 649 725 l 637 730 l 647 758 l 659 758 m 594 687 l 580 687 l 580 709 l 594 709 l 594 687 m 435 561 l 435 561 l 435 561 m 596 401 l 596 401 l 596 401 m 621 294 q 612 323 621 315 q 604 306 604 314 q 552 349 571 349 q 588 380 552 363 q 606 345 592 365 q 620 318 620 327 l 621 294 m 569 308 l 555 308 l 555 338 l 569 338 l 569 308 m 594 259 l 580 259 l 580 289 l 594 289 l 594 259 m 606 674 q 599 660 603 667 q 582 653 595 653 q 561 668 561 653 q 559 663 559 666 q 575 640 559 656 q 538 611 565 631 q 493 574 511 592 q 530 526 506 559 q 524 489 532 512 q 515 451 515 460 q 534 397 534 428 q 517 367 534 375 q 537 363 525 363 q 537 272 537 334 q 542 203 537 210 q 530 94 542 219 q 283 -14 443 -14 q 110 39 175 -14 q 40 199 40 97 q 279 501 40 353 q 241 559 275 510 q 213 611 213 601 q 244 660 213 618 q 273 726 275 703 q 209 640 236 695 q 213 656 205 649 q 189 714 189 681 q 426 995 189 917 q 345 820 345 862 q 376 705 345 757 q 456 611 399 667 q 532 668 482 633 q 537 636 532 642 q 552 693 552 666 q 581 660 563 685 q 591 667 584 660 q 606 674 598 674 m 460 207 q 400 75 460 122 q 279 35 350 35 q 146 80 202 35 q 90 191 90 126 q 325 463 90 336 q 431 324 407 367 q 460 207 460 272 m 604 845 q 600 862 604 850 q 596 878 596 874 q 583 860 596 871 q 604 845 603 860 m 355 889 l 335 908 l 326 901 l 347 880 l 355 889 m 347 829 l 336 833 l 325 812 l 336 807 l 347 829 m 273 859 l 273 897 l 259 897 l 259 859 l 273 859 m 331 803 l 319 810 l 300 781 l 311 774 l 331 803 m 256 823 l 245 823 l 234 795 l 246 791 l 256 823 m 298 747 l 286 751 l 276 730 l 288 725 l 298 747 m 578 423 l 578 470 l 563 470 l 563 423 l 578 423 m 241 743 l 241 791 l 226 791 l 226 743 l 241 743 m 224 733 l 210 733 l 201 670 l 215 670 l 224 733 "},"ž":{"x_min":0,"x_max":0,"ha":1389},"R":{"x_min":33.484375,"x_max":1116,"ha":1113,"o":"m 937 694 l 937 694 l 937 694 m 1031 585 l 1022 585 l 1014 600 l 1023 603 l 1031 585 m 953 646 l 953 646 l 953 646 m 943 585 l 934 585 l 926 600 l 935 603 l 943 585 m 663 590 l 663 590 l 663 590 m 590 663 l 582 646 l 573 650 l 581 666 l 590 663 m 568 640 l 568 640 l 568 640 m 804 392 l 793 368 l 783 372 l 795 394 l 804 392 m 524 627 l 524 627 l 524 627 m 801 333 q 783 339 795 333 q 789 353 783 344 q 801 362 796 362 q 801 333 801 333 m 559 264 l 543 242 l 535 248 l 550 270 l 559 264 m 861 895 l 861 895 l 861 895 m 1116 144 q 989 28 1029 58 q 867 -21 923 -21 l 830 -21 q 825 -19 825 -21 q 827 -14 825 -17 q 830 -10 830 -12 q 824 -9 829 -9 q 817 -12 816 -9 q 811 -15 819 -15 q 732 50 764 -15 q 707 132 707 99 q 729 237 707 141 q 752 341 752 333 q 737 401 752 373 q 683 438 718 438 l 683 476 q 734 492 697 492 q 785 492 760 492 q 872 582 840 492 q 897 708 897 649 q 837 867 897 782 q 832 855 832 861 q 828 888 828 858 q 819 880 824 888 q 811 867 813 869 q 791 888 792 888 l 791 949 q 811 930 798 943 q 830 943 823 943 q 871 928 842 943 q 876 899 871 909 l 898 899 q 900 908 903 903 q 893 908 898 913 q 926 911 896 911 q 935 895 935 910 q 928 865 935 888 q 919 833 920 840 q 902 827 914 833 q 931 804 906 818 q 931 845 931 824 q 954 879 935 875 q 947 885 954 883 q 936 881 941 885 q 943 899 943 893 q 981 867 973 867 q 1009 821 1009 845 q 1056 770 1037 821 q 1073 688 1073 728 q 1060 655 1073 661 q 808 448 1060 508 q 910 262 910 362 q 890 190 910 223 q 902 185 897 185 q 896 145 896 170 q 922 89 896 99 q 913 60 906 74 q 953 85 930 77 q 997 103 982 93 q 993 86 986 93 q 1049 146 1004 103 q 1116 212 1107 203 l 1116 144 m 789 933 q 771 920 783 929 q 776 909 771 918 q 782 894 782 900 q 743 911 762 896 l 730 899 q 645 911 668 911 q 642 901 632 911 q 632 909 638 905 q 623 918 626 914 q 619 899 619 913 q 436 843 535 899 q 295 699 324 780 q 296 687 294 697 q 289 679 297 679 q 278 682 280 679 q 273 681 277 684 q 291 671 283 671 q 287 647 287 659 q 327 570 287 610 q 368 529 368 529 q 251 470 368 494 q 190 515 212 470 q 172 596 172 552 q 337 857 172 750 q 628 949 480 949 q 674 930 660 949 q 684 949 684 930 l 707 949 q 714 924 707 928 q 718 936 719 928 q 715 948 715 950 l 752 948 q 746 922 746 940 l 756 911 q 752 933 764 920 q 782 949 767 949 q 789 933 783 942 m 915 874 l 915 874 l 915 874 m 974 839 l 965 843 l 950 814 l 959 810 l 974 839 m 1068 717 l 1060 735 l 1051 732 l 1059 717 l 1068 717 m 902 892 q 887 885 889 894 q 882 867 883 868 q 862 871 882 871 q 868 865 866 871 q 865 857 870 861 q 871 859 867 857 q 884 861 875 861 q 893 851 892 861 q 896 850 894 850 q 899 863 896 850 q 902 892 902 877 m 962 804 l 951 804 l 944 774 l 954 774 l 962 804 m 842 922 l 832 922 l 824 894 l 835 894 l 842 922 m 899 763 l 899 763 l 899 763 m 912 707 l 912 707 l 912 707 m 591 939 l 591 939 l 591 939 m 515 920 l 515 920 l 515 920 m 771 789 q 717 811 738 811 q 563 711 643 811 q 490 558 490 619 q 490 549 490 553 q 490 548 490 548 q 483 548 488 546 q 481 539 481 548 q 475 494 481 533 q 469 442 469 456 q 440 294 460 393 q 439 298 440 296 q 440 300 438 300 q 449 300 441 300 q 459 295 459 300 q 455 285 459 293 q 450 274 451 278 q 449 278 449 274 q 440 282 449 282 q 396 180 441 282 q 326 55 348 75 q 288 23 309 45 q 259 40 281 40 q 224 40 241 40 q 219 29 224 35 q 192 64 214 41 q 172 92 172 85 q 191 217 172 107 q 178 222 184 217 q 191 237 191 234 l 157 237 q 80 195 131 237 q 34 129 28 152 l 34 112 q 40 96 55 112 q 78 34 40 78 q 151 -15 119 -15 q 211 -14 147 -14 q 291 -14 264 -14 q 300 4 291 4 q 298 -13 308 -4 q 460 65 373 3 q 579 188 547 128 q 637 365 616 257 q 661 523 640 379 q 686 654 674 612 q 746 758 709 736 q 736 763 740 758 q 737 772 732 768 l 752 767 q 771 789 748 767 "}}}
